<svg viewBox="0 0 901.44 201.39" xmlns="http://www.w3.org/2000/svg" xmlns:xlink="http://www.w3.org/1999/xlink" id="Logo_Text" overflow="hidden"><defs></defs><g><circle cx="558.66" cy="42.17" r="42.17" fill="#FFAEBF"/><g><path d="M494.73 13.11 406.71 13.11C406.71 13.11 195.58 201.39 0 201.39L901.44 201.39C705.86 201.39 494.73 13.11 494.73 13.11Z" fill="#5050D3"/><path d="M494.73 13.11 406.71 13.11C406.71 13.11 310.89 98.55 188.56 154.32L712.87 154.32C590.55 98.55 494.73 13.11 494.73 13.11Z" fill="#5050D3"/></g></g><path d="M493.22 177.44 493.22 153.41 453.69 153.41 453.69 102.98 438.28 102.98 438.28 61.8 394.13 61.8 394.13 79.67 389.38 79.67 389.38 89.85 385.11 89.85 385.11 85.01 372.16 85.01 372.16 69.66 374.74 69.66 374.74 68.22 368.61 68.22 368.61 65.39 374.03 65.39 374.03 63.95 368.61 63.95 368.61 61.12 373.32 61.12 373.32 59.67 368.61 59.67 368.61 56.84 372.61 56.84 372.61 55.4 368.61 55.4 368.61 52.57 372.61 52.57 372.61 51.13 368.61 51.13 368.61 48.3 372.61 48.3 372.61 46.85 368.61 46.85 368.61 38.67 367.16 38.67 367.16 46.85 363.17 46.85 363.17 48.3 367.16 48.3 367.16 51.13 363.17 51.13 363.17 52.57 367.16 52.57 367.16 55.4 363.17 55.4 363.17 56.84 367.16 56.84 367.16 59.67 362.46 59.67 362.46 61.12 367.16 61.12 367.16 63.95 361.75 63.95 361.75 65.39 367.16 65.39 367.16 68.22 361.03 68.22 361.03 69.66 363.61 69.66 363.61 85.01 355.79 85.01 355.79 103.51 352.35 103.51 352.35 92.82 348.31 92.82 344.27 92.82 344.27 103.51 340.83 103.51 340.83 168.28 295.14 168.28 295.14 118.22 278.62 118.22 278.69 149.11 217.51 149.11 217.51 177.33 169.62 177.33 169.62 185.34 159.83 185.34 159.83 179.77 155.39 179.77 155.39 85.25 137.72 85.25 137.72 179.77 128.67 179.77 128.67 165.23 122.44 165.23 122.44 151.07 117.63 151.07 117.63 201.47 453.69 201.47 453.69 201.47 466.06 201.47 466.06 201.47 561.64 201.47 561.64 177.44 493.22 177.44Z" fill="#2F2FBC"/><rect x="529.24" y="155.51" width="29.42" height="31.06" fill="#2F2FBC"/><rect x="551.88" y="142.06" width="103.49" height="59.03" fill="#2F2FBC"/><rect x="649.76" y="161.48" width="13.69" height="39.92" fill="#2F2FBC"/><rect x="90.02" y="182.85" width="16.39" height="18.63" fill="#2F2FBC"/></svg>