<svg viewBox="0 0 273.48 123.98" xmlns="http://www.w3.org/2000/svg" xmlns:xlink="http://www.w3.org/1999/xlink" id="Layer_2" overflow="hidden"><defs></defs><g id="Logo_Text"><g><g><path d="M54.7 87.51C34.56 87.51 18.24 103.84 18.24 123.97L91.17 123.97C91.17 103.83 74.84 87.51 54.71 87.51Z" fill="#FFFFFF"/><path d="M91.16 105.74C81.09 105.74 72.93 113.9 72.93 123.97L109.39 123.97C109.39 113.9 101.23 105.74 91.16 105.74Z" fill="#FFFFFF"/><path d="M18.23 105.74C8.16 105.74 0 113.9 0 123.97L36.46 123.97C36.46 113.9 28.3 105.74 18.23 105.74Z" fill="#FFFFFF"/></g><g><path d="M120.33 0C100.19 0 83.87 16.33 83.87 36.46L156.8 36.46C156.8 16.32 140.47 0 120.34 0Z" fill="#FFFFFF"/><path d="M156.79 18.23C146.72 18.23 138.56 26.39 138.56 36.46L175.02 36.46C175.02 26.39 166.86 18.23 156.79 18.23Z" fill="#FFFFFF"/><path d="M83.87 18.23C73.8 18.23 65.64 26.39 65.64 36.46L102.1 36.46C102.1 26.39 93.94 18.23 83.87 18.23Z" fill="#FFFFFF"/></g><g><path d="M218.78 43.76C198.64 43.76 182.32 60.09 182.32 80.22L255.25 80.22C255.25 60.08 238.92 43.76 218.79 43.76Z" fill="#FFFFFF"/><path d="M255.25 61.99C245.18 61.99 237.02 70.15 237.02 80.22L273.48 80.22C273.48 70.15 265.32 61.99 255.25 61.99Z" fill="#FFFFFF"/><path d="M182.32 61.99C172.25 61.99 164.09 70.15 164.09 80.22L200.55 80.22C200.55 70.15 192.39 61.99 182.32 61.99Z" fill="#FFFFFF"/></g></g></g></svg>