<svg viewBox="0 0 188.78 248.54" xmlns="http://www.w3.org/2000/svg" xmlns:xlink="http://www.w3.org/1999/xlink" id="Logo_Text" overflow="hidden"><defs><clipPath id="clippath-1"><rect x="-133.65" y="14.8" width="84.33" height="168.7" fill="none"/></clipPath></defs><g><path d="M92.03 9.25 92.03 55.41 116.77 130.06 92.03 202.76C145.47 202.76 188.78 159.44 188.78 106.01 188.78 52.58 145.46 9.25 92.03 9.25Z" fill="#06062D"/><g><rect x="80.91" y="119.22" width="21.69" height="10.84" fill="#0A0C10"/><path d="M102.6 97.53 102.6 97.53 102.6 119.22 80.91 119.22C80.91 107.24 90.62 97.53 102.6 97.53Z" fill="#0A0C10"/><path d="M102.6 130.06 102.6 130.06C102.6 130.06 102.6 130.06 102.6 130.06 102.6 142.04 92.89 151.75 80.91 151.75L77.99 151.75C74.24 158.23 67.25 162.59 59.23 162.59L59.23 151.75C59.23 151.75 59.23 140.91 59.23 140.91L59.23 140.91C59.23 116.96 78.65 97.54 102.6 97.54L102.6 130.07Z" fill="#06062D"/></g><path d="M10.7 53.95 17.93 53.95C17.93 53.95 17.93 32.69 17.93 32.69L10.7 32.69C8.7 32.69 7.09 34.31 7.09 36.3L7.09 50.33C7.09 52.33 8.71 53.94 10.7 53.94Z" fill="#FFFFFF"/><g><path d="M98.3 188.4 85.52 175.62 72.74 188.4C79.8 195.46 91.24 195.46 98.3 188.4Z" fill="#06062D"/><rect x="86.07" y="174.3" width="18.07" height="9.04" fill="#06062D" transform="matrix(0.707107 0.707107 -0.707107 0.707107 154.3 -14.87)"/><path d="M66.35 169.23 66.35 169.23 59.96 175.62 53.57 182.01C58.3 186.74 64.99 188.28 71.01 186.68L72.73 188.4 79.12 182.01 91.9 169.23C84.84 162.17 73.4 162.17 66.34 169.23Z" fill="#06062D"/></g><path d="M39.35 187.41 39.35 187.41C37.03 177.7 27.29 171.71 17.58 174.03L17.58 174.03C17.58 174.03 17.58 174.03 17.58 174.03L8.79 176.13 3.55271e-15 178.23C1.55 184.73 6.44 189.55 12.42 191.34L12.99 193.71C15.31 203.42 25.05 209.41 34.76 207.09 25.05 209.41 19.06 219.16 21.38 228.86L21.95 231.23C17.43 235.52 15.24 242.03 16.79 248.54L25.58 246.44 34.37 244.34 34.37 244.34C34.37 244.34 34.37 244.34 34.37 244.34 44.08 242.02 50.07 232.27 47.75 222.57L47.75 222.57C57.46 220.25 63.45 210.5 61.13 200.8 58.81 191.09 49.06 185.1 39.36 187.42Z" fill="#06062D"/><path d="M176.24 104.73C176.24 46.89 122 0 64.16 0 37.17 0 15.29 21.88 15.29 48.86 15.29 74.1 34.42 94.86 58.97 97.45L58.97 97.45C82.16 100.14 100.15 120.43 100.15 144.34 100.15 164.98 86.82 182.54 68.23 188.67L68.23 188.67C63.96 190.06 60.88 194.07 60.88 198.8 60.88 204.68 65.64 209.44 71.52 209.45L71.51 209.45C71.51 209.45 71.53 209.45 71.53 209.45 71.53 209.45 71.54 209.45 71.55 209.45 129.37 209.43 176.24 162.55 176.24 104.72Z" fill="#FFFFFF"/><g><rect x="109.27" y="119.22" width="21.69" height="10.84" fill="#0A0C10" transform="matrix(-1 -1.22465e-16 1.22465e-16 -1 240.23 249.28)"/><path d="M109.27 97.53 109.27 97.53 109.27 119.22 130.96 119.22C130.96 107.24 121.25 97.53 109.27 97.53Z" fill="#0A0C10"/><path d="M109.27 130.06 109.27 130.06C109.27 130.06 109.27 130.06 109.27 130.06 109.27 142.04 118.98 151.75 130.96 151.75L133.88 151.75C137.63 158.23 144.62 162.59 152.64 162.59L152.64 151.75C152.64 151.75 152.64 140.91 152.64 140.91L152.64 140.91C152.64 116.96 133.22 97.54 109.27 97.54L109.27 130.07Z" fill="#06062D"/></g><circle cx="54.18" cy="34.28" r="9.11" fill="#06062D"/><g><path d="M92.6 182.71 105.38 195.49 92.6 208.27C85.54 201.21 85.54 189.77 92.6 182.71Z" fill="#06062D"/><rect x="93.15" y="181.38" width="18.07" height="9.04" fill="#06062D" transform="matrix(-0.707107 -0.707107 0.707107 -0.707107 42.99 389.61)"/><path d="M98.99 201.87 92.6 208.26 94.32 209.98C92.71 216.01 94.26 222.7 98.99 227.43L105.38 221.04 111.77 214.65 111.77 214.65C118.83 207.59 118.83 196.15 111.77 189.09L98.99 201.87Z" fill="#06062D"/></g><g><path d="M168.22 87.2 167.85 88.1 175.24 91.12C174.84 88.46 174.33 85.83 173.71 83.23 172.62 85.44 170.53 86.88 168.22 87.2Z" fill="#FFFFFF"/><path d="M77.03 12.93C80.85 16.75 86.28 17.98 91.14 16.62 91.46 17.06 91.81 17.49 92.21 17.89 96.44 22.12 103.31 22.12 107.54 17.89 109.66 15.77 110.72 12.99 110.72 10.21 98.87 4.86 86.09 1.44 72.99 0.37 72.27 4.8 73.6 9.51 77.02 12.93Z" fill="#DB1E3D"/><path d="M121.01 36.72 126.14 42.4C121.96 46.18 121.63 52.64 125.41 56.82 129.19 61 135.65 61.33 139.83 57.55L144.96 63.23C150.63 69.5 160.31 69.99 166.59 64.32 166.69 64.23 166.78 64.12 166.88 64.03 157.31 43.98 141.09 27.12 121.45 15.74 115.81 21.48 115.54 30.68 121 36.72Z" fill="#DB1E3D"/><path d="M173.93 82.78C175.3 79.43 173.96 75.65 170.95 73.85 172.03 76.92 172.95 80.05 173.71 83.23 173.78 83.08 173.87 82.93 173.93 82.78Z" fill="#DB1E3D"/><path d="M160.54 77.31 157.8 84C152.26 81.73 145.93 84.39 143.66 89.94 141.39 95.48 144.05 101.81 149.6 104.08L159.64 108.18 159.27 109.08C156.8 109.42 154.57 111.03 153.56 113.5 152.05 117.2 153.82 121.42 157.52 122.93L164.21 125.66 164.21 125.66C161.94 131.2 164.6 137.53 170.15 139.8L170.21 139.82C174.11 128.84 176.25 117.03 176.25 104.71 176.25 100.1 175.9 95.56 175.24 91.11L167.85 88.09 168.22 87.19C170.53 86.87 172.62 85.43 173.71 83.22 172.95 80.04 172.03 76.91 170.95 73.84 170.64 73.65 170.32 73.48 169.97 73.34 166.27 71.83 162.05 73.6 160.54 77.3Z" fill="#DB1E3D"/><path d="M122.75 193.21C122.75 194.15 122.81 195.07 122.92 195.98 134.29 189.56 144.34 181.08 152.56 171.05 150.45 170.42 148.21 170.07 145.89 170.07 133.11 170.07 122.74 180.43 122.74 193.22Z" fill="#DB1E3D"/></g></g><g clip-path="url(#clippath-1)"><path d="M-12.85 119.87C-22.92 119.87-31.08 128.03-31.08 138.1L5.38 138.1C5.38 128.03-2.78 119.87-12.85 119.87Z" fill="#FFFFFF"/></g></svg>