<svg viewBox="0 0 901.44 201.39" xmlns="http://www.w3.org/2000/svg" xmlns:xlink="http://www.w3.org/1999/xlink" id="Logo_Text" overflow="hidden"><defs><clipPath id="clippath"><rect x="-624.4" y="233.38" width="612" height="87.43" fill="none"/></clipPath></defs><g><circle cx="558.66" cy="42.17" r="42.17" fill="#FFAEBF"/><g><path d="M494.73 13.11 406.71 13.11C406.71 13.11 195.58 201.39 0 201.39L901.44 201.39C705.86 201.39 494.73 13.11 494.73 13.11Z" fill="#5050D3"/><path d="M494.73 13.11 406.71 13.11C406.71 13.11 310.89 98.55 188.56 154.32L712.87 154.32C590.55 98.55 494.73 13.11 494.73 13.11Z" fill="#5050D3"/></g></g><g clip-path="url(#clippath)"><g><path d="M11.5 207.53C11.5 188.83-3.66 173.66-22.37 173.66-41.08 173.66-56.24 188.82-56.24 207.53-56.24 226.24-41.08 241.4-22.37 241.4-3.66 241.4 11.5 226.24 11.5 207.53Z" fill="#1D1D6B"/><path d="M-22.37 242.36C-41.58 242.36-57.2 226.73-57.2 207.53-57.2 188.33-41.58 172.7-22.37 172.7-3.16 172.7 12.46 188.32 12.46 207.53 12.46 226.74-3.17 242.36-22.37 242.36ZM-22.37 174.63C-40.51 174.63-55.27 189.39-55.27 207.53-55.27 225.67-40.51 240.43-22.37 240.43-4.23 240.43 10.53 225.67 10.53 207.53 10.53 189.39-4.23 174.63-22.37 174.63Z" fill="#3939D8"/></g><g><path d="M45.49 224.54C45.49 205.84 30.33 190.67 11.62 190.67-7.09 190.67-22.25 205.83-22.25 224.54-22.25 243.25-7.09 258.41 11.62 258.41 30.33 258.41 45.49 243.25 45.49 224.54Z" fill="#1D1D6B"/><path d="M11.62 259.37C-7.59 259.37-23.21 243.75-23.21 224.54-23.21 205.33-7.59 189.71 11.62 189.71 30.83 189.71 46.45 205.33 46.45 224.54 46.45 243.75 30.82 259.37 11.62 259.37ZM11.62 191.64C-6.52 191.64-21.28 206.4-21.28 224.54-21.28 242.68-6.52 257.44 11.62 257.44 29.76 257.44 44.52 242.68 44.52 224.54 44.52 206.4 29.76 191.64 11.62 191.64Z" fill="#3939D8"/></g></g></svg>