<svg viewBox="0 0 612 87.43" xmlns="http://www.w3.org/2000/svg" xmlns:xlink="http://www.w3.org/1999/xlink" id="Logo_Text" overflow="hidden"><defs><clipPath id="clippath-1"><rect x="-661.57" y="76.21" width="612" height="87.43" fill="none"/></clipPath><clipPath id="clippath-2"><rect x="0" y="0" width="612" height="87.43" fill="none"/></clipPath></defs><g clip-path="url(#clippath-1)"><g><path d="M8.32 67.37C8.32 48.67-6.84 33.5-25.55 33.5-44.26 33.5-59.42 48.66-59.42 67.37-59.42 86.08-44.26 101.24-25.55 101.24-6.84 101.24 8.32 86.08 8.32 67.37Z" fill="#1D1D6B"/><path d="M-25.55 102.2C-44.76 102.2-60.38 86.58-60.38 67.37-60.38 48.16-44.76 32.54-25.55 32.54-6.34 32.54 9.28 48.16 9.28 67.37 9.28 86.58-6.35 102.2-25.55 102.2ZM-25.55 34.47C-43.69 34.47-58.45 49.23-58.45 67.37-58.45 85.51-43.69 100.27-25.55 100.27-7.41 100.27 7.36 85.51 7.36 67.37 7.36 49.23-7.4 34.47-25.55 34.47Z" fill="#3939D8"/></g><g><path d="M8.32 101.39C8.32 82.69-6.84 67.52-25.55 67.52-44.26 67.52-59.42 82.68-59.42 101.39-59.42 120.1-44.26 135.26-25.55 135.26-6.84 135.26 8.32 120.1 8.32 101.39Z" fill="#1D1D6B"/><path d="M-25.55 136.22C-44.76 136.22-60.38 120.59-60.38 101.39-60.38 82.19-44.76 66.56-25.55 66.56-6.34 66.56 9.28 82.18 9.28 101.39 9.28 120.6-6.35 136.22-25.55 136.22ZM-25.55 68.48C-43.69 68.48-58.45 83.24-58.45 101.38-58.45 119.52-43.69 134.28-25.55 134.28-7.41 134.28 7.36 119.53 7.36 101.39 7.36 83.25-7.4 68.49-25.54 68.49Z" fill="#3939D8"/></g></g><g clip-path="url(#clippath-2)"><g><g><path d="M432.84-25.85C432.84-44.55 417.68-59.72 398.97-59.72 380.26-59.72 365.1-44.56 365.1-25.85 365.1-7.14 380.26 8.02 398.97 8.02 417.68 8.02 432.84-7.14 432.84-25.85Z" fill="#1D1D6B"/><path d="M398.97 8.98C379.76 8.98 364.14-6.65 364.14-25.85 364.14-45.05 379.76-60.68 398.97-60.68 418.18-60.68 433.8-45.06 433.8-25.85 433.8-6.64 418.18 8.98 398.97 8.98ZM398.97-58.75C380.83-58.75 366.07-43.99 366.07-25.85 366.07-7.71 380.83 7.05 398.97 7.05 417.11 7.05 431.87-7.71 431.87-25.85 431.87-43.99 417.11-58.75 398.97-58.75Z" fill="#3939D8"/></g><g><path d="M365.1-25.85C365.1-44.55 349.94-59.72 331.23-59.72 312.52-59.72 297.36-44.56 297.36-25.85 297.36-7.14 312.52 8.02 331.23 8.02 349.94 8.02 365.1-7.14 365.1-25.85Z" fill="#1D1D6B"/><path d="M331.24 8.98C312.03 8.98 296.41-6.65 296.41-25.85 296.41-45.05 312.03-60.68 331.24-60.68 350.45-60.68 366.07-45.06 366.07-25.85 366.07-6.64 350.44 8.98 331.24 8.98ZM331.24-58.75C313.1-58.75 298.34-43.99 298.34-25.85 298.34-7.71 313.1 7.05 331.24 7.05 349.38 7.05 364.14-7.71 364.14-25.85 364.14-43.99 349.38-58.75 331.24-58.75Z" fill="#3939D8"/></g><g><path d="M500.69-25.85C500.69-44.55 485.53-59.72 466.82-59.72 448.11-59.72 432.95-44.56 432.95-25.85 432.95-7.14 448.11 8.02 466.82 8.02 485.53 8.02 500.69-7.14 500.69-25.85Z" fill="#1D1D6B"/><path d="M466.82 8.98C447.61 8.98 431.99-6.65 431.99-25.85 431.99-45.05 447.61-60.68 466.82-60.68 486.03-60.68 501.65-45.06 501.65-25.85 501.65-6.64 486.02 8.98 466.82 8.98ZM466.82-58.75C448.68-58.75 433.92-43.99 433.92-25.85 433.92-7.71 448.68 7.05 466.82 7.05 484.96 7.05 499.72-7.71 499.72-25.85 499.72-43.99 484.96-58.75 466.82-58.75Z" fill="#3939D8"/></g><g><path d="M568.42-25.85C568.42-44.55 553.26-59.72 534.55-59.72 515.84-59.72 500.68-44.56 500.68-25.85 500.68-7.14 515.84 8.02 534.55 8.02 553.26 8.02 568.42-7.14 568.42-25.85Z" fill="#1D1D6B"/><path d="M534.56 8.98C515.35 8.98 499.73-6.65 499.73-25.85 499.73-45.05 515.35-60.68 534.56-60.68 553.77-60.68 569.39-45.06 569.39-25.85 569.39-6.64 553.77 8.98 534.56 8.98ZM534.56-58.75C516.42-58.75 501.66-43.99 501.66-25.85 501.66-7.71 516.42 7.05 534.56 7.05 552.7 7.05 567.46-7.71 567.46-25.85 567.46-43.99 552.7-58.75 534.56-58.75Z" fill="#3939D8"/></g></g><g><path d="M635.9-25.85C635.9-44.55 620.74-59.72 602.03-59.72 583.32-59.72 568.16-44.56 568.16-25.85 568.16-7.14 583.32 8.02 602.03 8.02 620.74 8.02 635.9-7.14 635.9-25.85Z" fill="#1D1D6B"/><path d="M602.03 8.98C582.82 8.98 567.2-6.65 567.2-25.85 567.2-45.05 582.82-60.68 602.03-60.68 621.24-60.68 636.86-45.06 636.86-25.85 636.86-6.64 621.23 8.98 602.03 8.98ZM602.03-58.75C583.89-58.75 569.13-43.99 569.13-25.85 569.13-7.71 583.89 7.05 602.03 7.05 620.17 7.05 634.93-7.71 634.93-25.85 634.93-43.99 620.17-58.75 602.03-58.75Z" fill="#3939D8"/></g><g><g><path d="M602.04-8.84C602.04-27.54 586.88-42.71 568.17-42.71 549.46-42.71 534.3-27.55 534.3-8.84 534.3 9.87 549.46 25.03 568.17 25.03 586.88 25.03 602.04 9.87 602.04-8.84Z" fill="#1D1D6B"/><path d="M568.17 25.99C548.96 25.99 533.34 10.37 533.34-8.84 533.34-28.05 548.96-43.67 568.17-43.67 587.38-43.67 603-28.05 603-8.84 603 10.37 587.38 25.99 568.17 25.99ZM568.17-41.74C550.03-41.74 535.27-26.98 535.27-8.84 535.27 9.3 550.03 24.06 568.17 24.06 586.31 24.06 601.07 9.3 601.07-8.84 601.07-26.98 586.31-41.74 568.17-41.74Z" fill="#3939D8"/></g><g><path d="M669.89-8.84C669.89-27.54 654.73-42.71 636.02-42.71 617.31-42.71 602.15-27.55 602.15-8.84 602.15 9.87 617.31 25.03 636.02 25.03 654.73 25.03 669.89 9.87 669.89-8.84Z" fill="#1D1D6B"/><path d="M636.02 25.99C616.81 25.99 601.19 10.37 601.19-8.84 601.19-28.05 616.81-43.67 636.02-43.67 655.23-43.67 670.85-28.05 670.85-8.84 670.85 10.37 655.22 25.99 636.02 25.99ZM636.02-41.74C617.88-41.74 603.12-26.98 603.12-8.84 603.12 9.3 617.88 24.06 636.02 24.06 654.16 24.06 668.92 9.3 668.92-8.84 668.92-26.98 654.16-41.74 636.02-41.74Z" fill="#3939D8"/></g></g><g><g><path d="M94.05-25.85C94.05-44.55 78.89-59.72 60.18-59.72 41.47-59.72 26.32-44.55 26.32-25.85 26.32-7.15 41.48 8.02 60.19 8.02 78.9 8.02 94.06-7.14 94.06-25.85Z" fill="#1D1D6B"/><path d="M60.19 8.98C40.98 8.98 25.36-6.65 25.36-25.85 25.36-45.05 40.98-60.68 60.19-60.68 79.4-60.68 95.02-45.06 95.02-25.85 95.02-6.64 79.39 8.98 60.19 8.98ZM60.19-58.75C42.05-58.75 27.29-43.99 27.29-25.85 27.29-7.71 42.04 7.06 60.19 7.06 78.34 7.06 93.09-7.7 93.09-25.84 93.09-43.98 78.33-58.74 60.19-58.74Z" fill="#3939D8"/></g><g><path d="M26.32-25.85C26.32-44.55 11.16-59.72-7.55-59.72-26.26-59.72-41.42-44.56-41.42-25.85-41.42-7.14-26.25 8.02-7.55 8.02 11.15 8.02 26.32-7.14 26.32-25.85Z" fill="#1D1D6B"/><path d="M-7.55 8.98C-26.76 8.98-42.38-6.65-42.38-25.85-42.38-45.05-26.75-60.68-7.55-60.68 11.65-60.68 27.28-45.05 27.28-25.85 27.28-6.65 11.66 8.98-7.55 8.98ZM-7.55-58.75C-25.69-58.75-40.45-43.99-40.45-25.85-40.45-7.71-25.69 7.06-7.55 7.06 10.59 7.06 25.36-7.7 25.36-25.85 25.36-44 10.59-58.75-7.55-58.75Z" fill="#3939D8"/></g><g><path d="M161.9-25.85C161.9-44.55 146.74-59.72 128.03-59.72 109.32-59.72 94.16-44.56 94.16-25.85 94.16-7.14 109.32 8.02 128.03 8.02 146.74 8.02 161.9-7.14 161.9-25.85Z" fill="#1D1D6B"/><path d="M128.04 8.98C108.83 8.98 93.21-6.65 93.21-25.85 93.21-45.05 108.83-60.68 128.04-60.68 147.25-60.68 162.87-45.06 162.87-25.85 162.87-6.64 147.24 8.98 128.04 8.98ZM128.04-58.75C109.9-58.75 95.14-43.99 95.14-25.85 95.14-7.71 109.89 7.06 128.04 7.06 146.19 7.06 160.94-7.7 160.94-25.84 160.94-43.98 146.18-58.74 128.04-58.74Z" fill="#3939D8"/></g><g><path d="M229.64-25.85C229.64-44.55 214.48-59.72 195.77-59.72 177.06-59.72 161.9-44.56 161.9-25.85 161.9-7.14 177.06 8.02 195.77 8.02 214.48 8.02 229.64-7.14 229.64-25.85Z" fill="#1D1D6B"/><path d="M195.77 8.98C176.56 8.98 160.94-6.65 160.94-25.85 160.94-45.05 176.56-60.68 195.77-60.68 214.98-60.68 230.6-45.06 230.6-25.85 230.6-6.64 214.98 8.98 195.77 8.98ZM195.77-58.75C177.63-58.75 162.87-43.99 162.87-25.85 162.87-7.71 177.63 7.05 195.77 7.05 213.91 7.05 228.67-7.71 228.67-25.85 228.67-43.99 213.91-58.75 195.77-58.75Z" fill="#3939D8"/></g><g><path d="M297.37-25.85C297.37-44.55 282.21-59.72 263.5-59.72 244.79-59.72 229.63-44.56 229.63-25.85 229.63-7.14 244.79 8.02 263.5 8.02 282.21 8.02 297.37-7.14 297.37-25.85Z" fill="#1D1D6B"/><path d="M263.5 8.98C244.29 8.98 228.67-6.65 228.67-25.85 228.67-45.05 244.29-60.68 263.5-60.68 282.71-60.68 298.33-45.06 298.33-25.85 298.33-6.64 282.7 8.98 263.5 8.98ZM263.5-58.75C245.36-58.75 230.6-43.99 230.6-25.85 230.6-7.71 245.36 7.05 263.5 7.05 281.64 7.05 296.4-7.71 296.4-25.85 296.4-43.99 281.64-58.75 263.5-58.75Z" fill="#3939D8"/></g></g><g><g><path d="M60.19-8.84C60.19-27.54 45.03-42.71 26.32-42.71 7.61-42.71-7.55-27.54-7.55-8.84-7.55 9.86 7.62 25.03 26.32 25.03 45.02 25.03 60.19 9.86 60.19-8.84Z" fill="#1D1D6B"/><path d="M26.32 25.99C7.11 25.99-8.51 10.37-8.51-8.84-8.51-28.05 7.11-43.67 26.32-43.67 45.53-43.67 61.15-28.04 61.15-8.84 61.15 10.36 45.52 25.99 26.32 25.99ZM26.32-41.74C8.18-41.74-6.58-26.98-6.58-8.84-6.58 9.3 8.18 24.06 26.32 24.06 44.46 24.06 59.22 9.3 59.22-8.84 59.22-26.98 44.46-41.74 26.32-41.74Z" fill="#3939D8"/></g><g><path d="M128.04-8.84C128.04-27.54 112.88-42.71 94.17-42.71 75.46-42.71 60.3-27.54 60.3-8.84 60.3 9.86 75.46 25.03 94.17 25.03 112.88 25.03 128.04 9.87 128.04-8.84Z" fill="#1D1D6B"/><path d="M94.17 25.99C74.96 25.99 59.34 10.37 59.34-8.84 59.34-28.05 74.96-43.67 94.17-43.67 113.38-43.67 129-28.05 129-8.84 129 10.37 113.38 25.99 94.17 25.99ZM94.17-41.74C76.03-41.74 61.27-26.98 61.27-8.84 61.27 9.3 76.03 24.06 94.17 24.06 112.31 24.06 127.07 9.3 127.07-8.84 127.07-26.98 112.31-41.74 94.17-41.74Z" fill="#3939D8"/></g><g><path d="M195.77-8.84C195.77-27.54 180.61-42.71 161.9-42.71 143.19-42.71 128.03-27.55 128.03-8.84 128.03 9.87 143.19 25.03 161.9 25.03 180.61 25.03 195.77 9.87 195.77-8.84Z" fill="#1D1D6B"/><path d="M161.9 25.99C142.69 25.99 127.07 10.37 127.07-8.84 127.07-28.05 142.69-43.67 161.9-43.67 181.11-43.67 196.73-28.05 196.73-8.84 196.73 10.37 181.1 25.99 161.9 25.99ZM161.9-41.74C143.76-41.74 129-26.98 129-8.84 129 9.3 143.76 24.06 161.9 24.06 180.04 24.06 194.8 9.3 194.8-8.84 194.8-26.98 180.04-41.74 161.9-41.74Z" fill="#3939D8"/></g><g><path d="M263.5-8.84C263.5-27.54 248.34-42.71 229.63-42.71 210.92-42.71 195.76-27.55 195.76-8.84 195.76 9.87 210.92 25.03 229.63 25.03 248.34 25.03 263.5 9.87 263.5-8.84Z" fill="#1D1D6B"/><path d="M229.64 25.99C210.43 25.99 194.81 10.37 194.81-8.84 194.81-28.05 210.43-43.67 229.64-43.67 248.85-43.67 264.47-28.05 264.47-8.84 264.47 10.37 248.84 25.99 229.64 25.99ZM229.64-41.74C211.5-41.74 196.74-26.98 196.74-8.84 196.74 9.3 211.5 24.06 229.64 24.06 247.78 24.06 262.54 9.3 262.54-8.84 262.54-26.98 247.78-41.74 229.64-41.74Z" fill="#3939D8"/></g></g><g><g><path d="M331.53-8.84C331.53-27.54 316.37-42.71 297.66-42.71 278.95-42.71 263.79-27.55 263.79-8.84 263.79 9.87 278.95 25.03 297.66 25.03 316.37 25.03 331.53 9.87 331.53-8.84Z" fill="#1D1D6B"/><path d="M297.66 25.99C278.45 25.99 262.83 10.37 262.83-8.84 262.83-28.05 278.45-43.67 297.66-43.67 316.87-43.67 332.49-28.05 332.49-8.84 332.49 10.37 316.87 25.99 297.66 25.99ZM297.66-41.74C279.52-41.74 264.76-26.98 264.76-8.84 264.76 9.3 279.52 24.06 297.66 24.06 315.8 24.06 330.56 9.3 330.56-8.84 330.56-26.98 315.8-41.74 297.66-41.74Z" fill="#3939D8"/></g><g><path d="M399.38-8.84C399.38-27.54 384.22-42.71 365.51-42.71 346.8-42.71 331.64-27.55 331.64-8.84 331.64 9.87 346.8 25.03 365.51 25.03 384.22 25.03 399.38 9.87 399.38-8.84Z" fill="#1D1D6B"/><path d="M365.52 25.99C346.31 25.99 330.69 10.37 330.69-8.84 330.69-28.05 346.31-43.67 365.52-43.67 384.73-43.67 400.35-28.05 400.35-8.84 400.35 10.37 384.73 25.99 365.52 25.99ZM365.52-41.74C347.38-41.74 332.62-26.98 332.62-8.84 332.62 9.3 347.38 24.06 365.52 24.06 383.66 24.06 398.42 9.3 398.42-8.84 398.42-26.98 383.66-41.74 365.52-41.74Z" fill="#3939D8"/></g><g><path d="M467.12-8.84C467.12-27.54 451.96-42.71 433.25-42.71 414.54-42.71 399.38-27.55 399.38-8.84 399.38 9.87 414.54 25.03 433.25 25.03 451.96 25.03 467.12 9.87 467.12-8.84Z" fill="#1D1D6B"/><path d="M433.25 25.99C414.04 25.99 398.42 10.37 398.42-8.84 398.42-28.05 414.04-43.67 433.25-43.67 452.46-43.67 468.08-28.05 468.08-8.84 468.08 10.37 452.46 25.99 433.25 25.99ZM433.25-41.74C415.11-41.74 400.35-26.98 400.35-8.84 400.35 9.3 415.11 24.06 433.25 24.06 451.39 24.06 466.15 9.3 466.15-8.84 466.15-26.98 451.39-41.74 433.25-41.74Z" fill="#3939D8"/></g><g><path d="M534.85-8.84C534.85-27.54 519.69-42.71 500.98-42.71 482.27-42.71 467.11-27.55 467.11-8.84 467.11 9.87 482.27 25.03 500.98 25.03 519.69 25.03 534.85 9.87 534.85-8.84Z" fill="#1D1D6B"/><path d="M500.98 25.99C481.77 25.99 466.15 10.37 466.15-8.84 466.15-28.05 481.77-43.67 500.98-43.67 520.19-43.67 535.81-28.05 535.81-8.84 535.81 10.37 520.18 25.99 500.98 25.99ZM500.98-41.74C482.84-41.74 468.08-26.98 468.08-8.84 468.08 9.3 482.84 24.06 500.98 24.06 519.12 24.06 533.88 9.3 533.88-8.84 533.88-26.98 519.12-41.74 500.98-41.74Z" fill="#3939D8"/></g></g><g><g><path d="M94.05 8.17C94.05-10.53 78.89-25.7 60.18-25.7 41.47-25.7 26.32-10.53 26.32 8.17 26.32 26.87 41.48 42.04 60.19 42.04 78.9 42.04 94.06 26.88 94.06 8.17Z" fill="#1D1D6B"/><path d="M60.19 43C40.98 43 25.36 27.38 25.36 8.17 25.36-11.04 40.98-26.66 60.19-26.66 79.4-26.66 95.02-11.04 95.02 8.17 95.02 27.38 79.4 43 60.19 43ZM60.19-24.73C42.05-24.73 27.29-9.97 27.29 8.17 27.29 26.31 42.05 41.07 60.19 41.07 78.33 41.07 93.09 26.31 93.09 8.17 93.09-9.97 78.33-24.73 60.19-24.73Z" fill="#3939D8"/></g><g><path d="M26.32 8.17C26.32-10.53 11.16-25.7-7.55-25.7-26.26-25.7-41.41-10.53-41.41 8.17-41.41 26.87-26.25 42.04-7.55 42.04 11.15 42.04 26.32 26.87 26.32 8.17Z" fill="#1D1D6B"/><path d="M-7.55 43C-26.76 43-42.38 27.38-42.38 8.17-42.38-11.04-26.75-26.66-7.55-26.66 11.65-26.66 27.28-11.03 27.28 8.17 27.28 27.37 11.66 43-7.55 43ZM-7.55-24.73C-25.69-24.73-40.45-9.97-40.45 8.17-40.45 26.31-25.69 41.07-7.55 41.07 10.59 41.07 25.36 26.31 25.36 8.17 25.36-9.97 10.59-24.73-7.55-24.73Z" fill="#3939D8"/></g><g><path d="M161.9 8.17C161.9-10.53 146.74-25.7 128.03-25.7 109.32-25.7 94.16-10.54 94.16 8.17 94.16 26.88 109.32 42.04 128.03 42.04 146.74 42.04 161.9 26.88 161.9 8.17Z" fill="#1D1D6B"/><path d="M128.04 43C108.83 43 93.21 27.38 93.21 8.17 93.21-11.04 108.83-26.66 128.04-26.66 147.25-26.66 162.87-11.04 162.87 8.17 162.87 27.38 147.24 43 128.04 43ZM128.04-24.73C109.9-24.73 95.14-9.97 95.14 8.17 95.14 26.31 109.9 41.07 128.04 41.07 146.18 41.07 160.94 26.31 160.94 8.17 160.94-9.97 146.18-24.73 128.04-24.73Z" fill="#3939D8"/></g><g><path d="M229.64 8.17C229.64-10.53 214.48-25.7 195.77-25.7 177.06-25.7 161.9-10.54 161.9 8.17 161.9 26.88 177.06 42.04 195.77 42.04 214.48 42.04 229.64 26.88 229.64 8.17Z" fill="#1D1D6B"/><path d="M195.77 43C176.56 43 160.94 27.38 160.94 8.17 160.94-11.04 176.56-26.66 195.77-26.66 214.98-26.66 230.6-11.04 230.6 8.17 230.6 27.38 214.98 43 195.77 43ZM195.77-24.73C177.63-24.73 162.87-9.97 162.87 8.17 162.87 26.31 177.63 41.07 195.77 41.07 213.91 41.07 228.67 26.31 228.67 8.17 228.67-9.97 213.91-24.73 195.77-24.73Z" fill="#3939D8"/></g><g><path d="M297.37 8.17C297.37-10.53 282.21-25.7 263.5-25.7 244.79-25.7 229.63-10.54 229.63 8.17 229.63 26.88 244.79 42.04 263.5 42.04 282.21 42.04 297.37 26.88 297.37 8.17Z" fill="#1D1D6B"/><path d="M263.5 43C244.29 43 228.67 27.38 228.67 8.17 228.67-11.04 244.29-26.66 263.5-26.66 282.71-26.66 298.33-11.04 298.33 8.17 298.33 27.38 282.7 43 263.5 43ZM263.5-24.73C245.36-24.73 230.6-9.97 230.6 8.17 230.6 26.31 245.36 41.07 263.5 41.07 281.64 41.07 296.4 26.31 296.4 8.17 296.4-9.97 281.64-24.73 263.5-24.73Z" fill="#3939D8"/></g></g><g><g><path d="M433.13 8.17C433.13-10.53 417.97-25.7 399.26-25.7 380.55-25.7 365.39-10.54 365.39 8.17 365.39 26.88 380.55 42.04 399.26 42.04 417.97 42.04 433.13 26.88 433.13 8.17Z" fill="#1D1D6B"/><path d="M399.26 43C380.05 43 364.43 27.38 364.43 8.17 364.43-11.04 380.05-26.66 399.26-26.66 418.47-26.66 434.09-11.04 434.09 8.17 434.09 27.38 418.47 43 399.26 43ZM399.26-24.73C381.12-24.73 366.36-9.97 366.36 8.17 366.36 26.31 381.12 41.07 399.26 41.07 417.4 41.07 432.16 26.31 432.16 8.17 432.16-9.97 417.4-24.73 399.26-24.73Z" fill="#3939D8"/></g><g><path d="M365.4 8.17C365.4-10.53 350.24-25.7 331.53-25.7 312.82-25.7 297.66-10.54 297.66 8.17 297.66 26.88 312.82 42.04 331.53 42.04 350.24 42.04 365.4 26.88 365.4 8.17Z" fill="#1D1D6B"/><path d="M331.53 43C312.32 43 296.7 27.38 296.7 8.17 296.7-11.04 312.32-26.66 331.53-26.66 350.74-26.66 366.36-11.04 366.36 8.17 366.36 27.38 350.74 43 331.53 43ZM331.53-24.73C313.39-24.73 298.63-9.97 298.63 8.17 298.63 26.31 313.39 41.07 331.53 41.07 349.67 41.07 364.43 26.31 364.43 8.17 364.43-9.97 349.67-24.73 331.53-24.73Z" fill="#3939D8"/></g><g><path d="M500.98 8.17C500.98-10.53 485.82-25.7 467.11-25.7 448.4-25.7 433.24-10.54 433.24 8.17 433.24 26.88 448.4 42.04 467.11 42.04 485.82 42.04 500.98 26.88 500.98 8.17Z" fill="#1D1D6B"/><path d="M467.12 43C447.91 43 432.29 27.38 432.29 8.17 432.29-11.04 447.91-26.66 467.12-26.66 486.33-26.66 501.95-11.04 501.95 8.17 501.95 27.38 486.33 43 467.12 43ZM467.12-24.73C448.98-24.73 434.22-9.97 434.22 8.17 434.22 26.31 448.98 41.07 467.12 41.07 485.26 41.07 500.02 26.31 500.02 8.17 500.02-9.97 485.26-24.73 467.12-24.73Z" fill="#3939D8"/></g><g><path d="M568.72 8.17C568.72-10.53 553.56-25.7 534.85-25.7 516.14-25.7 500.98-10.54 500.98 8.17 500.98 26.88 516.14 42.04 534.85 42.04 553.56 42.04 568.72 26.88 568.72 8.17Z" fill="#1D1D6B"/><path d="M534.85 43C515.64 43 500.02 27.38 500.02 8.17 500.02-11.04 515.64-26.66 534.85-26.66 554.06-26.66 569.68-11.04 569.68 8.17 569.68 27.38 554.06 43 534.85 43ZM534.85-24.73C516.71-24.73 501.95-9.97 501.95 8.17 501.95 26.31 516.71 41.07 534.85 41.07 552.99 41.07 567.75 26.31 567.75 8.17 567.75-9.97 552.99-24.73 534.85-24.73Z" fill="#3939D8"/></g></g><g><g><path d="M60.19 25.18C60.19 6.48 45.03-8.69 26.32-8.69 7.61-8.69-7.55 6.48-7.55 25.18-7.55 43.88 7.62 59.05 26.32 59.05 45.02 59.05 60.19 43.89 60.19 25.18Z" fill="#1D1D6B"/><path d="M26.32 60.01C7.11 60.01-8.51 44.38-8.51 25.18-8.51 5.98 7.11-9.65 26.32-9.65 45.53-9.65 61.15 5.97 61.15 25.18 61.15 44.39 45.52 60.01 26.32 60.01ZM26.32-7.72C8.18-7.72-6.58 7.04-6.58 25.18-6.58 43.32 8.18 58.08 26.32 58.08 44.46 58.08 59.22 43.32 59.22 25.18 59.22 7.04 44.46-7.72 26.32-7.72Z" fill="#3939D8"/></g><g><path d="M128.04 25.18C128.04 6.48 112.88-8.69 94.17-8.69 75.46-8.69 60.3 6.48 60.3 25.18 60.3 43.88 75.46 59.05 94.17 59.05 112.88 59.05 128.04 43.89 128.04 25.18Z" fill="#1D1D6B"/><path d="M94.17 60.01C74.96 60.01 59.34 44.38 59.34 25.18 59.34 5.98 74.96-9.65 94.17-9.65 113.38-9.65 129 5.97 129 25.18 129 44.39 113.38 60.01 94.17 60.01ZM94.17-7.72C76.03-7.72 61.27 7.04 61.27 25.18 61.27 43.32 76.03 58.08 94.17 58.08 112.31 58.08 127.07 43.32 127.07 25.18 127.07 7.04 112.31-7.72 94.17-7.72Z" fill="#3939D8"/></g><g><path d="M195.77 25.18C195.77 6.48 180.61-8.69 161.9-8.69 143.19-8.69 128.03 6.47 128.03 25.18 128.03 43.89 143.19 59.05 161.9 59.05 180.61 59.05 195.77 43.89 195.77 25.18Z" fill="#1D1D6B"/><path d="M161.9 60.01C142.69 60.01 127.07 44.38 127.07 25.18 127.07 5.98 142.69-9.65 161.9-9.65 181.11-9.65 196.73 5.97 196.73 25.18 196.73 44.39 181.1 60.01 161.9 60.01ZM161.9-7.72C143.76-7.72 129 7.04 129 25.18 129 43.32 143.76 58.08 161.9 58.08 180.04 58.08 194.8 43.32 194.8 25.18 194.8 7.04 180.04-7.72 161.9-7.72Z" fill="#3939D8"/></g><g><path d="M263.5 25.18C263.5 6.48 248.34-8.69 229.63-8.69 210.92-8.69 195.76 6.47 195.76 25.18 195.76 43.89 210.92 59.05 229.63 59.05 248.34 59.05 263.5 43.89 263.5 25.18Z" fill="#1D1D6B"/><path d="M229.64 60.01C210.43 60.01 194.81 44.38 194.81 25.18 194.81 5.98 210.43-9.65 229.64-9.65 248.85-9.65 264.47 5.97 264.47 25.18 264.47 44.39 248.84 60.01 229.64 60.01ZM229.64-7.72C211.5-7.72 196.74 7.04 196.74 25.18 196.74 43.32 211.5 58.08 229.64 58.08 247.78 58.08 262.54 43.32 262.54 25.18 262.54 7.04 247.78-7.72 229.64-7.72Z" fill="#3939D8"/></g></g><g><path d="M635.9 8.17C635.9-10.53 620.74-25.7 602.03-25.7 583.32-25.7 568.16-10.54 568.16 8.17 568.16 26.88 583.32 42.04 602.03 42.04 620.74 42.04 635.9 26.88 635.9 8.17Z" fill="#1D1D6B"/><path d="M602.03 43C582.82 43 567.2 27.38 567.2 8.17 567.2-11.04 582.82-26.66 602.03-26.66 621.24-26.66 636.86-11.04 636.86 8.17 636.86 27.38 621.23 43 602.03 43ZM602.03-24.73C583.89-24.73 569.13-9.97 569.13 8.17 569.13 26.31 583.89 41.07 602.03 41.07 620.17 41.07 634.93 26.31 634.93 8.17 634.93-9.97 620.17-24.73 602.03-24.73Z" fill="#3939D8"/></g><g><g><path d="M331.47 25.18C331.47 6.48 316.31-8.69 297.6-8.69 278.89-8.69 263.73 6.47 263.73 25.18 263.73 43.89 278.89 59.05 297.6 59.05 316.31 59.05 331.47 43.89 331.47 25.18Z" fill="#1D1D6B"/><path d="M297.61 60.01C278.4 60.01 262.78 44.38 262.78 25.18 262.78 5.98 278.4-9.65 297.61-9.65 316.82-9.65 332.44 5.97 332.44 25.18 332.44 44.39 316.81 60.01 297.61 60.01ZM297.61-7.72C279.47-7.72 264.71 7.04 264.71 25.18 264.71 43.32 279.47 58.08 297.61 58.08 315.75 58.08 330.51 43.32 330.51 25.18 330.51 7.04 315.75-7.72 297.61-7.72Z" fill="#3939D8"/></g><g><path d="M399.32 25.18C399.32 6.48 384.16-8.69 365.45-8.69 346.74-8.69 331.58 6.47 331.58 25.18 331.58 43.89 346.74 59.05 365.45 59.05 384.16 59.05 399.32 43.89 399.32 25.18Z" fill="#1D1D6B"/><path d="M365.46 60.01C346.25 60.01 330.63 44.38 330.63 25.18 330.63 5.98 346.25-9.65 365.46-9.65 384.67-9.65 400.29 5.97 400.29 25.18 400.29 44.39 384.67 60.01 365.46 60.01ZM365.46-7.72C347.32-7.72 332.56 7.04 332.56 25.18 332.56 43.32 347.32 58.08 365.46 58.08 383.6 58.08 398.36 43.32 398.36 25.18 398.36 7.04 383.6-7.72 365.46-7.72Z" fill="#3939D8"/></g><g><path d="M467.06 25.18C467.06 6.48 451.9-8.69 433.19-8.69 414.48-8.69 399.32 6.47 399.32 25.18 399.32 43.89 414.48 59.05 433.19 59.05 451.9 59.05 467.06 43.89 467.06 25.18Z" fill="#1D1D6B"/><path d="M433.19 60.01C413.98 60.01 398.36 44.38 398.36 25.18 398.36 5.98 413.98-9.65 433.19-9.65 452.4-9.65 468.02 5.97 468.02 25.18 468.02 44.39 452.39 60.01 433.19 60.01ZM433.19-7.72C415.05-7.72 400.29 7.04 400.29 25.18 400.29 43.32 415.05 58.08 433.19 58.08 451.33 58.08 466.09 43.32 466.09 25.18 466.09 7.04 451.33-7.72 433.19-7.72Z" fill="#3939D8"/></g><g><path d="M534.79 25.18C534.79 6.48 519.63-8.69 500.92-8.69 482.21-8.69 467.05 6.47 467.05 25.18 467.05 43.89 482.21 59.05 500.92 59.05 519.63 59.05 534.79 43.89 534.79 25.18Z" fill="#1D1D6B"/><path d="M500.92 60.01C481.71 60.01 466.09 44.38 466.09 25.18 466.09 5.98 481.71-9.65 500.92-9.65 520.13-9.65 535.75 5.97 535.75 25.18 535.75 44.39 520.13 60.01 500.92 60.01ZM500.92-7.72C482.78-7.72 468.02 7.04 468.02 25.18 468.02 43.32 482.78 58.08 500.92 58.08 519.06 58.08 533.82 43.32 533.82 25.18 533.82 7.04 519.06-7.72 500.92-7.72Z" fill="#3939D8"/></g></g><g><g><path d="M602.04 25.18C602.04 6.48 586.88-8.69 568.17-8.69 549.46-8.69 534.3 6.47 534.3 25.18 534.3 43.89 549.46 59.05 568.17 59.05 586.88 59.05 602.04 43.89 602.04 25.18Z" fill="#1D1D6B"/><path d="M568.17 60.01C548.96 60.01 533.34 44.38 533.34 25.18 533.34 5.98 548.96-9.65 568.17-9.65 587.38-9.65 603 5.97 603 25.18 603 44.39 587.38 60.01 568.17 60.01ZM568.17-7.72C550.03-7.72 535.27 7.04 535.27 25.18 535.27 43.32 550.03 58.08 568.17 58.08 586.31 58.08 601.07 43.32 601.07 25.18 601.07 7.04 586.31-7.72 568.17-7.72Z" fill="#3939D8"/></g><g><path d="M669.89 25.18C669.89 6.48 654.73-8.69 636.02-8.69 617.31-8.69 602.15 6.47 602.15 25.18 602.15 43.89 617.31 59.05 636.02 59.05 654.73 59.05 669.89 43.89 669.89 25.18Z" fill="#1D1D6B"/><path d="M636.02 60.01C616.81 60.01 601.19 44.38 601.19 25.18 601.19 5.98 616.81-9.65 636.02-9.65 655.23-9.65 670.85 5.97 670.85 25.18 670.85 44.39 655.22 60.01 636.02 60.01ZM636.02-7.72C617.88-7.72 603.12 7.04 603.12 25.18 603.12 43.32 617.88 58.08 636.02 58.08 654.16 58.08 668.92 43.32 668.92 25.18 668.92 7.04 654.16-7.72 636.02-7.72Z" fill="#3939D8"/></g></g><g><g><path d="M94.05 42.19C94.05 23.49 78.89 8.32 60.18 8.32 41.47 8.32 26.32 23.48 26.32 42.19 26.32 60.9 41.48 76.06 60.19 76.06 78.9 76.06 94.06 60.9 94.06 42.19Z" fill="#1D1D6B"/><path d="M60.19 77.02C40.98 77.02 25.36 61.4 25.36 42.19 25.36 22.98 40.98 7.36 60.19 7.36 79.4 7.36 95.02 22.98 95.02 42.19 95.02 61.4 79.4 77.02 60.19 77.02ZM60.19 9.28C42.05 9.28 27.29 24.04 27.29 42.18 27.29 60.32 42.05 75.08 60.19 75.08 78.33 75.08 93.09 60.32 93.09 42.18 93.09 24.04 78.33 9.28 60.19 9.28Z" fill="#3939D8"/></g><g><path d="M26.32 42.19C26.32 23.48 11.16 8.32-7.55 8.32-26.26 8.32-41.42 23.48-41.42 42.19-41.42 60.9-26.26 76.06-7.55 76.06 11.16 76.06 26.32 60.9 26.32 42.19Z" fill="#1D1D6B"/><path d="M-7.55 77.02C-26.76 77.02-42.38 61.4-42.38 42.19-42.38 22.98-26.75 7.36-7.55 7.36 11.65 7.36 27.28 22.98 27.28 42.19 27.28 61.4 11.66 77.02-7.55 77.02ZM-7.55 9.28C-25.69 9.28-40.45 24.04-40.45 42.18-40.45 60.32-25.69 75.08-7.55 75.08 10.59 75.08 25.35 60.32 25.35 42.18 25.35 24.04 10.59 9.28-7.55 9.28Z" fill="#3939D8"/></g><g><path d="M161.9 42.19C161.9 23.49 146.74 8.32 128.03 8.32 109.32 8.32 94.16 23.48 94.16 42.19 94.16 60.9 109.32 76.06 128.03 76.06 146.74 76.06 161.9 60.9 161.9 42.19Z" fill="#1D1D6B"/><path d="M128.04 77.02C108.83 77.02 93.21 61.4 93.21 42.19 93.21 22.98 108.83 7.36 128.04 7.36 147.25 7.36 162.87 22.98 162.87 42.19 162.87 61.4 147.24 77.02 128.04 77.02ZM128.04 9.28C109.9 9.28 95.14 24.04 95.14 42.18 95.14 60.32 109.9 75.08 128.04 75.08 146.18 75.08 160.94 60.32 160.94 42.18 160.94 24.04 146.18 9.28 128.04 9.28Z" fill="#3939D8"/></g><g><path d="M229.64 42.19C229.64 23.49 214.48 8.32 195.77 8.32 177.06 8.32 161.9 23.48 161.9 42.19 161.9 60.9 177.06 76.06 195.77 76.06 214.48 76.06 229.64 60.9 229.64 42.19Z" fill="#1D1D6B"/><path d="M195.77 77.02C176.56 77.02 160.94 61.4 160.94 42.19 160.94 22.98 176.56 7.36 195.77 7.36 214.98 7.36 230.6 22.98 230.6 42.19 230.6 61.4 214.98 77.02 195.77 77.02ZM195.77 9.28C177.63 9.28 162.87 24.04 162.87 42.18 162.87 60.32 177.63 75.08 195.77 75.08 213.91 75.08 228.67 60.32 228.67 42.18 228.67 24.04 213.91 9.28 195.77 9.28Z" fill="#3939D8"/></g><g><path d="M297.37 42.19C297.37 23.49 282.21 8.32 263.5 8.32 244.79 8.32 229.63 23.48 229.63 42.19 229.63 60.9 244.79 76.06 263.5 76.06 282.21 76.06 297.37 60.9 297.37 42.19Z" fill="#1D1D6B"/><path d="M263.5 77.02C244.29 77.02 228.67 61.4 228.67 42.19 228.67 22.98 244.29 7.36 263.5 7.36 282.71 7.36 298.33 22.98 298.33 42.19 298.33 61.4 282.7 77.02 263.5 77.02ZM263.5 9.28C245.36 9.28 230.6 24.04 230.6 42.18 230.6 60.32 245.36 75.08 263.5 75.08 281.64 75.08 296.4 60.32 296.4 42.18 296.4 24.04 281.64 9.28 263.5 9.28Z" fill="#3939D8"/></g></g><g><g><path d="M433.07 42.19C433.07 23.49 417.91 8.32 399.2 8.32 380.49 8.32 365.33 23.48 365.33 42.19 365.33 60.9 380.49 76.06 399.2 76.06 417.91 76.06 433.07 60.9 433.07 42.19Z" fill="#1D1D6B"/><path d="M399.21 77.02C380 77.02 364.38 61.4 364.38 42.19 364.38 22.98 380 7.36 399.21 7.36 418.42 7.36 434.04 22.98 434.04 42.19 434.04 61.4 418.41 77.02 399.21 77.02ZM399.21 9.28C381.07 9.28 366.31 24.04 366.31 42.18 366.31 60.32 381.07 75.08 399.21 75.08 417.35 75.08 432.11 60.32 432.11 42.18 432.11 24.04 417.35 9.28 399.21 9.28Z" fill="#3939D8"/></g><g><path d="M365.34 42.19C365.34 23.49 350.18 8.32 331.47 8.32 312.76 8.32 297.6 23.48 297.6 42.19 297.6 60.9 312.76 76.06 331.47 76.06 350.18 76.06 365.34 60.9 365.34 42.19Z" fill="#1D1D6B"/><path d="M331.47 77.02C312.26 77.02 296.64 61.4 296.64 42.19 296.64 22.98 312.26 7.36 331.47 7.36 350.68 7.36 366.3 22.98 366.3 42.19 366.3 61.4 350.68 77.02 331.47 77.02ZM331.47 9.28C313.33 9.28 298.57 24.04 298.57 42.18 298.57 60.32 313.33 75.08 331.47 75.08 349.61 75.08 364.37 60.32 364.37 42.18 364.37 24.04 349.61 9.28 331.47 9.28Z" fill="#3939D8"/></g><g><path d="M500.92 42.19C500.92 23.49 485.76 8.32 467.05 8.32 448.34 8.32 433.18 23.48 433.18 42.19 433.18 60.9 448.34 76.06 467.05 76.06 485.76 76.06 500.92 60.9 500.92 42.19Z" fill="#1D1D6B"/><path d="M467.06 77.02C447.85 77.02 432.23 61.4 432.23 42.19 432.23 22.98 447.85 7.36 467.06 7.36 486.27 7.36 501.89 22.98 501.89 42.19 501.89 61.4 486.27 77.02 467.06 77.02ZM467.06 9.28C448.92 9.28 434.16 24.04 434.16 42.18 434.16 60.32 448.92 75.08 467.06 75.08 485.2 75.08 499.96 60.32 499.96 42.18 499.96 24.04 485.2 9.28 467.06 9.28Z" fill="#3939D8"/></g><g><path d="M568.66 42.19C568.66 23.49 553.5 8.32 534.79 8.32 516.08 8.32 500.92 23.48 500.92 42.19 500.92 60.9 516.08 76.06 534.79 76.06 553.5 76.06 568.66 60.9 568.66 42.19Z" fill="#1D1D6B"/><path d="M534.79 77.02C515.58 77.02 499.96 61.4 499.96 42.19 499.96 22.98 515.58 7.36 534.79 7.36 554 7.36 569.62 22.98 569.62 42.19 569.62 61.4 553.99 77.02 534.79 77.02ZM534.79 9.28C516.65 9.28 501.89 24.04 501.89 42.18 501.89 60.32 516.65 75.08 534.79 75.08 552.93 75.08 567.69 60.32 567.69 42.18 567.69 24.04 552.93 9.28 534.79 9.28Z" fill="#3939D8"/></g></g><g><g><path d="M60.19 59.19C60.19 40.49 45.03 25.32 26.32 25.32 7.61 25.32-7.55 40.49-7.55 59.19-7.55 77.89 7.61 93.06 26.32 93.06 45.03 93.06 60.19 77.9 60.19 59.19Z" fill="#1D1D6B"/><path d="M26.32 94.03C7.11 94.03-8.51 78.41-8.51 59.2-8.51 39.99 7.11 24.36 26.32 24.36 45.53 24.36 61.15 39.98 61.15 59.19 61.15 78.4 45.52 94.02 26.32 94.02ZM26.32 26.29C8.18 26.29-6.58 41.05-6.58 59.19-6.58 77.33 8.18 92.09 26.32 92.09 44.46 92.09 59.22 77.33 59.22 59.19 59.22 41.05 44.46 26.29 26.32 26.29Z" fill="#3939D8"/></g><g><path d="M128.04 59.19C128.04 40.49 112.88 25.32 94.17 25.32 75.46 25.32 60.3 40.48 60.3 59.19 60.3 77.9 75.46 93.06 94.17 93.06 112.88 93.06 128.04 77.9 128.04 59.19Z" fill="#1D1D6B"/><path d="M94.17 94.03C74.96 94.03 59.34 78.41 59.34 59.2 59.34 39.99 74.96 24.37 94.17 24.37 113.38 24.37 129 39.99 129 59.2 129 78.41 113.38 94.03 94.17 94.03ZM94.17 26.29C76.03 26.29 61.27 41.05 61.27 59.19 61.27 77.33 76.03 92.09 94.17 92.09 112.31 92.09 127.07 77.33 127.07 59.19 127.07 41.05 112.31 26.29 94.17 26.29Z" fill="#3939D8"/></g><g><path d="M195.77 59.19C195.77 40.49 180.61 25.32 161.9 25.32 143.19 25.32 128.03 40.48 128.03 59.19 128.03 77.9 143.19 93.06 161.9 93.06 180.61 93.06 195.77 77.9 195.77 59.19Z" fill="#1D1D6B"/><path d="M161.9 94.03C142.69 94.03 127.07 78.41 127.07 59.2 127.07 39.99 142.69 24.37 161.9 24.37 181.11 24.37 196.73 39.99 196.73 59.2 196.73 78.41 181.1 94.03 161.9 94.03ZM161.9 26.29C143.76 26.29 129 41.05 129 59.19 129 77.33 143.76 92.09 161.9 92.09 180.04 92.09 194.8 77.33 194.8 59.19 194.8 41.05 180.04 26.29 161.9 26.29Z" fill="#3939D8"/></g><g><path d="M263.5 59.19C263.5 40.49 248.34 25.32 229.63 25.32 210.92 25.32 195.76 40.48 195.76 59.19 195.76 77.9 210.92 93.06 229.63 93.06 248.34 93.06 263.5 77.9 263.5 59.19Z" fill="#1D1D6B"/><path d="M229.64 94.03C210.43 94.03 194.81 78.41 194.81 59.2 194.81 39.99 210.43 24.37 229.64 24.37 248.85 24.37 264.47 39.99 264.47 59.2 264.47 78.41 248.84 94.03 229.64 94.03ZM229.64 26.29C211.5 26.29 196.74 41.05 196.74 59.19 196.74 77.33 211.5 92.09 229.64 92.09 247.78 92.09 262.54 77.33 262.54 59.19 262.54 41.05 247.78 26.29 229.64 26.29Z" fill="#3939D8"/></g></g><g><path d="M635.9 42.19C635.9 23.49 620.74 8.32 602.03 8.32 583.32 8.32 568.16 23.48 568.16 42.19 568.16 60.9 583.32 76.06 602.03 76.06 620.74 76.06 635.9 60.9 635.9 42.19Z" fill="#1D1D6B"/><path d="M602.03 77.02C582.82 77.02 567.2 61.4 567.2 42.19 567.2 22.98 582.82 7.36 602.03 7.36 621.24 7.36 636.86 22.98 636.86 42.19 636.86 61.4 621.23 77.02 602.03 77.02ZM602.03 9.28C583.89 9.28 569.13 24.04 569.13 42.18 569.13 60.32 583.89 75.08 602.03 75.08 620.17 75.08 634.93 60.32 634.93 42.18 634.93 24.04 620.17 9.28 602.03 9.28Z" fill="#3939D8"/></g><g><g><path d="M602.04 59.19C602.04 40.49 586.88 25.32 568.17 25.32 549.46 25.32 534.3 40.48 534.3 59.19 534.3 77.9 549.46 93.06 568.17 93.06 586.88 93.06 602.04 77.9 602.04 59.19Z" fill="#1D1D6B"/><path d="M568.17 94.03C548.96 94.03 533.34 78.41 533.34 59.2 533.34 39.99 548.96 24.37 568.17 24.37 587.38 24.37 603 39.99 603 59.2 603 78.41 587.38 94.03 568.17 94.03ZM568.17 26.29C550.03 26.29 535.27 41.05 535.27 59.19 535.27 77.33 550.03 92.09 568.17 92.09 586.31 92.09 601.07 77.33 601.07 59.19 601.07 41.05 586.31 26.29 568.17 26.29Z" fill="#3939D8"/></g><g><path d="M669.89 59.19C669.89 40.49 654.73 25.32 636.02 25.32 617.31 25.32 602.15 40.48 602.15 59.19 602.15 77.9 617.31 93.06 636.02 93.06 654.73 93.06 669.89 77.9 669.89 59.19Z" fill="#1D1D6B"/><path d="M636.02 94.03C616.81 94.03 601.19 78.41 601.19 59.2 601.19 39.99 616.81 24.37 636.02 24.37 655.23 24.37 670.85 39.99 670.85 59.2 670.85 78.41 655.22 94.03 636.02 94.03ZM636.02 26.29C617.88 26.29 603.12 41.05 603.12 59.19 603.12 77.33 617.88 92.09 636.02 92.09 654.16 92.09 668.92 77.33 668.92 59.19 668.92 41.05 654.16 26.29 636.02 26.29Z" fill="#3939D8"/></g></g><g><g><path d="M331.41 59.19C331.41 40.49 316.25 25.32 297.54 25.32 278.83 25.32 263.67 40.48 263.67 59.19 263.67 77.9 278.83 93.06 297.54 93.06 316.25 93.06 331.41 77.9 331.41 59.19Z" fill="#1D1D6B"/><path d="M297.55 94.03C278.34 94.03 262.72 78.41 262.72 59.2 262.72 39.99 278.34 24.37 297.55 24.37 316.76 24.37 332.38 39.99 332.38 59.2 332.38 78.41 316.76 94.03 297.55 94.03ZM297.55 26.29C279.41 26.29 264.65 41.05 264.65 59.19 264.65 77.33 279.41 92.09 297.55 92.09 315.69 92.09 330.45 77.33 330.45 59.19 330.45 41.05 315.69 26.29 297.55 26.29Z" fill="#3939D8"/></g><g><path d="M399.27 59.19C399.27 40.49 384.11 25.32 365.4 25.32 346.69 25.32 331.53 40.48 331.53 59.19 331.53 77.9 346.69 93.06 365.4 93.06 384.11 93.06 399.27 77.9 399.27 59.19Z" fill="#1D1D6B"/><path d="M365.4 94.03C346.19 94.03 330.57 78.41 330.57 59.2 330.57 39.99 346.19 24.37 365.4 24.37 384.61 24.37 400.23 39.99 400.23 59.2 400.23 78.41 384.6 94.03 365.4 94.03ZM365.4 26.29C347.26 26.29 332.5 41.05 332.5 59.19 332.5 77.33 347.26 92.09 365.4 92.09 383.54 92.09 398.3 77.33 398.3 59.19 398.3 41.05 383.54 26.29 365.4 26.29Z" fill="#3939D8"/></g><g><path d="M467 59.19C467 40.49 451.84 25.32 433.13 25.32 414.42 25.32 399.26 40.48 399.26 59.19 399.26 77.9 414.42 93.06 433.13 93.06 451.84 93.06 467 77.9 467 59.19Z" fill="#1D1D6B"/><path d="M433.13 94.03C413.92 94.03 398.3 78.41 398.3 59.2 398.3 39.99 413.92 24.37 433.13 24.37 452.34 24.37 467.96 39.99 467.96 59.2 467.96 78.41 452.34 94.03 433.13 94.03ZM433.13 26.29C414.99 26.29 400.23 41.05 400.23 59.19 400.23 77.33 414.99 92.09 433.13 92.09 451.27 92.09 466.03 77.33 466.03 59.19 466.03 41.05 451.27 26.29 433.13 26.29Z" fill="#3939D8"/></g><g><path d="M534.73 59.19C534.73 40.49 519.57 25.32 500.86 25.32 482.15 25.32 466.99 40.48 466.99 59.19 466.99 77.9 482.15 93.06 500.86 93.06 519.57 93.06 534.73 77.9 534.73 59.19Z" fill="#1D1D6B"/><path d="M500.87 94.03C481.66 94.03 466.04 78.41 466.04 59.2 466.04 39.99 481.66 24.37 500.87 24.37 520.08 24.37 535.7 39.99 535.7 59.2 535.7 78.41 520.08 94.03 500.87 94.03ZM500.87 26.29C482.73 26.29 467.97 41.05 467.97 59.19 467.97 77.33 482.73 92.09 500.87 92.09 519.01 92.09 533.77 77.33 533.77 59.19 533.77 41.05 519.01 26.29 500.87 26.29Z" fill="#3939D8"/></g></g><g><g><path d="M94.05 76.2C94.05 57.5 78.89 42.33 60.18 42.33 41.47 42.33 26.31 57.49 26.31 76.2 26.31 94.91 41.47 110.07 60.18 110.07 78.89 110.07 94.05 94.91 94.05 76.2Z" fill="#1D1D6B"/><path d="M60.19 111.03C40.98 111.03 25.36 95.4 25.36 76.2 25.36 57 40.98 41.37 60.19 41.37 79.4 41.37 95.02 56.99 95.02 76.2 95.02 95.41 79.4 111.03 60.19 111.03ZM60.19 43.3C42.05 43.3 27.29 58.06 27.29 76.2 27.29 94.34 42.05 109.1 60.19 109.1 78.33 109.1 93.09 94.34 93.09 76.2 93.09 58.06 78.33 43.3 60.19 43.3Z" fill="#3939D8"/></g><g><path d="M26.32 76.2C26.32 57.5 11.16 42.33-7.55 42.33-26.26 42.33-41.42 57.49-41.42 76.2-41.42 94.91-26.26 110.07-7.55 110.07 11.16 110.07 26.32 94.91 26.32 76.2Z" fill="#1D1D6B"/><path d="M-7.55 111.03C-26.76 111.03-42.38 95.4-42.38 76.2-42.38 57-26.75 41.37-7.55 41.37 11.65 41.37 27.28 56.99 27.28 76.2 27.28 95.41 11.66 111.03-7.55 111.03ZM-7.55 43.3C-25.69 43.3-40.45 58.06-40.45 76.2-40.45 94.34-25.69 109.1-7.55 109.1 10.59 109.1 25.35 94.34 25.35 76.2 25.35 58.06 10.59 43.3-7.55 43.3Z" fill="#3939D8"/></g><g><path d="M161.9 76.2C161.9 57.5 146.74 42.33 128.03 42.33 109.32 42.33 94.16 57.49 94.16 76.2 94.16 94.91 109.32 110.07 128.03 110.07 146.74 110.07 161.9 94.91 161.9 76.2Z" fill="#1D1D6B"/><path d="M128.04 111.03C108.83 111.03 93.21 95.4 93.21 76.2 93.21 57 108.83 41.37 128.04 41.37 147.25 41.37 162.87 56.99 162.87 76.2 162.87 95.41 147.24 111.03 128.04 111.03ZM128.04 43.3C109.9 43.3 95.14 58.06 95.14 76.2 95.14 94.34 109.9 109.1 128.04 109.1 146.18 109.1 160.94 94.34 160.94 76.2 160.94 58.06 146.18 43.3 128.04 43.3Z" fill="#3939D8"/></g><g><path d="M229.64 76.2C229.64 57.5 214.48 42.33 195.77 42.33 177.06 42.33 161.9 57.49 161.9 76.2 161.9 94.91 177.06 110.07 195.77 110.07 214.48 110.07 229.64 94.91 229.64 76.2Z" fill="#1D1D6B"/><path d="M195.77 111.03C176.56 111.03 160.94 95.4 160.94 76.2 160.94 57 176.56 41.37 195.77 41.37 214.98 41.37 230.6 56.99 230.6 76.2 230.6 95.41 214.98 111.03 195.77 111.03ZM195.77 43.3C177.63 43.3 162.87 58.06 162.87 76.2 162.87 94.34 177.63 109.1 195.77 109.1 213.91 109.1 228.67 94.34 228.67 76.2 228.67 58.06 213.91 43.3 195.77 43.3Z" fill="#3939D8"/></g><g><path d="M297.37 76.2C297.37 57.5 282.21 42.33 263.5 42.33 244.79 42.33 229.63 57.49 229.63 76.2 229.63 94.91 244.79 110.07 263.5 110.07 282.21 110.07 297.37 94.91 297.37 76.2Z" fill="#1D1D6B"/><path d="M263.5 111.03C244.29 111.03 228.67 95.4 228.67 76.2 228.67 57 244.29 41.37 263.5 41.37 282.71 41.37 298.33 56.99 298.33 76.2 298.33 95.41 282.7 111.03 263.5 111.03ZM263.5 43.3C245.36 43.3 230.6 58.06 230.6 76.2 230.6 94.34 245.36 109.1 263.5 109.1 281.64 109.1 296.4 94.34 296.4 76.2 296.4 58.06 281.64 43.3 263.5 43.3Z" fill="#3939D8"/></g></g><g><g><path d="M432.84 76.2C432.84 57.5 417.68 42.33 398.97 42.33 380.26 42.33 365.1 57.49 365.1 76.2 365.1 94.91 380.26 110.07 398.97 110.07 417.68 110.07 432.84 94.91 432.84 76.2Z" fill="#1D1D6B"/><path d="M398.97 111.03C379.76 111.03 364.14 95.4 364.14 76.2 364.14 57 379.76 41.37 398.97 41.37 418.18 41.37 433.8 56.99 433.8 76.2 433.8 95.41 418.18 111.03 398.97 111.03ZM398.97 43.3C380.83 43.3 366.07 58.06 366.07 76.2 366.07 94.34 380.83 109.1 398.97 109.1 417.11 109.1 431.87 94.34 431.87 76.2 431.87 58.06 417.11 43.3 398.97 43.3Z" fill="#3939D8"/></g><g><path d="M365.1 76.2C365.1 57.5 349.94 42.33 331.23 42.33 312.52 42.33 297.36 57.49 297.36 76.2 297.36 94.91 312.52 110.07 331.23 110.07 349.94 110.07 365.1 94.91 365.1 76.2Z" fill="#1D1D6B"/><path d="M331.24 111.03C312.03 111.03 296.41 95.4 296.41 76.2 296.41 57 312.03 41.37 331.24 41.37 350.45 41.37 366.07 56.99 366.07 76.2 366.07 95.41 350.44 111.03 331.24 111.03ZM331.24 43.3C313.1 43.3 298.34 58.06 298.34 76.2 298.34 94.34 313.1 109.1 331.24 109.1 349.38 109.1 364.14 94.34 364.14 76.2 364.14 58.06 349.38 43.3 331.24 43.3Z" fill="#3939D8"/></g><g><path d="M500.69 76.2C500.69 57.5 485.53 42.33 466.82 42.33 448.11 42.33 432.95 57.49 432.95 76.2 432.95 94.91 448.11 110.07 466.82 110.07 485.53 110.07 500.69 94.91 500.69 76.2Z" fill="#1D1D6B"/><path d="M466.82 111.03C447.61 111.03 431.99 95.4 431.99 76.2 431.99 57 447.61 41.37 466.82 41.37 486.03 41.37 501.65 56.99 501.65 76.2 501.65 95.41 486.02 111.03 466.82 111.03ZM466.82 43.3C448.68 43.3 433.92 58.06 433.92 76.2 433.92 94.34 448.68 109.1 466.82 109.1 484.96 109.1 499.72 94.34 499.72 76.2 499.72 58.06 484.96 43.3 466.82 43.3Z" fill="#3939D8"/></g><g><path d="M568.42 76.2C568.42 57.5 553.26 42.33 534.55 42.33 515.84 42.33 500.68 57.49 500.68 76.2 500.68 94.91 515.84 110.07 534.55 110.07 553.26 110.07 568.42 94.91 568.42 76.2Z" fill="#1D1D6B"/><path d="M534.56 111.03C515.35 111.03 499.73 95.4 499.73 76.2 499.73 57 515.35 41.37 534.56 41.37 553.77 41.37 569.39 56.99 569.39 76.2 569.39 95.41 553.77 111.03 534.56 111.03ZM534.56 43.3C516.42 43.3 501.66 58.06 501.66 76.2 501.66 94.34 516.42 109.1 534.56 109.1 552.7 109.1 567.46 94.34 567.46 76.2 567.46 58.06 552.7 43.3 534.56 43.3Z" fill="#3939D8"/></g></g><g><g><path d="M60.19 93.21C60.19 74.51 45.03 59.34 26.32 59.34 7.61 59.34-7.55 74.51-7.55 93.21-7.55 111.91 7.61 127.08 26.32 127.08 45.03 127.08 60.19 111.92 60.19 93.21Z" fill="#1D1D6B"/><path d="M26.32 128.04C7.11 128.04-8.51 112.42-8.51 93.21-8.51 74 7.11 58.38 26.32 58.38 45.53 58.38 61.15 74 61.15 93.21 61.15 112.42 45.52 128.04 26.32 128.04ZM26.32 60.31C8.18 60.31-6.58 75.07-6.58 93.21-6.58 111.35 8.18 126.11 26.32 126.11 44.46 126.11 59.22 111.35 59.22 93.21 59.22 75.07 44.46 60.31 26.32 60.31Z" fill="#3939D8"/></g><g><path d="M128.04 93.21C128.04 74.51 112.88 59.34 94.17 59.34 75.46 59.34 60.3 74.5 60.3 93.21 60.3 111.92 75.46 127.08 94.17 127.08 112.88 127.08 128.04 111.92 128.04 93.21Z" fill="#1D1D6B"/><path d="M94.17 128.04C74.96 128.04 59.34 112.42 59.34 93.21 59.34 74 74.96 58.38 94.17 58.38 113.38 58.38 129 74 129 93.21 129 112.42 113.38 128.04 94.17 128.04ZM94.17 60.31C76.03 60.31 61.27 75.07 61.27 93.21 61.27 111.35 76.03 126.11 94.17 126.11 112.31 126.11 127.07 111.35 127.07 93.21 127.07 75.07 112.31 60.31 94.17 60.31Z" fill="#3939D8"/></g><g><path d="M195.77 93.21C195.77 74.51 180.61 59.34 161.9 59.34 143.19 59.34 128.03 74.5 128.03 93.21 128.03 111.92 143.19 127.08 161.9 127.08 180.61 127.08 195.77 111.92 195.77 93.21Z" fill="#1D1D6B"/><path d="M161.9 128.04C142.69 128.04 127.07 112.42 127.07 93.21 127.07 74 142.69 58.38 161.9 58.38 181.11 58.38 196.73 74 196.73 93.21 196.73 112.42 181.1 128.04 161.9 128.04ZM161.9 60.31C143.76 60.31 129 75.07 129 93.21 129 111.35 143.76 126.11 161.9 126.11 180.04 126.11 194.8 111.35 194.8 93.21 194.8 75.07 180.04 60.31 161.9 60.31Z" fill="#3939D8"/></g><g><path d="M263.5 93.21C263.5 74.51 248.34 59.34 229.63 59.34 210.92 59.34 195.76 74.5 195.76 93.21 195.76 111.92 210.92 127.08 229.63 127.08 248.34 127.08 263.5 111.92 263.5 93.21Z" fill="#1D1D6B"/><path d="M229.64 128.04C210.43 128.04 194.81 112.42 194.81 93.21 194.81 74 210.43 58.38 229.64 58.38 248.85 58.38 264.47 74 264.47 93.21 264.47 112.42 248.84 128.04 229.64 128.04ZM229.64 60.31C211.5 60.31 196.74 75.07 196.74 93.21 196.74 111.35 211.5 126.11 229.64 126.11 247.78 126.11 262.54 111.35 262.54 93.21 262.54 75.07 247.78 60.31 229.64 60.31Z" fill="#3939D8"/></g></g><g><g><path d="M331.36 93.21C331.36 74.51 316.2 59.34 297.49 59.34 278.78 59.34 263.62 74.5 263.62 93.21 263.62 111.92 278.78 127.08 297.49 127.08 316.2 127.08 331.36 111.92 331.36 93.21Z" fill="#1D1D6B"/><path d="M297.49 128.04C278.28 128.04 262.66 112.42 262.66 93.21 262.66 74 278.28 58.38 297.49 58.38 316.7 58.38 332.32 74 332.32 93.21 332.32 112.42 316.7 128.04 297.49 128.04ZM297.49 60.31C279.35 60.31 264.59 75.07 264.59 93.21 264.59 111.35 279.35 126.11 297.49 126.11 315.63 126.11 330.39 111.35 330.39 93.21 330.39 75.07 315.63 60.31 297.49 60.31Z" fill="#3939D8"/></g><g><path d="M399.21 93.21C399.21 74.51 384.05 59.34 365.34 59.34 346.63 59.34 331.47 74.5 331.47 93.21 331.47 111.92 346.63 127.08 365.34 127.08 384.05 127.08 399.21 111.92 399.21 93.21Z" fill="#1D1D6B"/><path d="M365.34 128.04C346.13 128.04 330.51 112.42 330.51 93.21 330.51 74 346.13 58.38 365.34 58.38 384.55 58.38 400.17 74 400.17 93.21 400.17 112.42 384.55 128.04 365.34 128.04ZM365.34 60.31C347.2 60.31 332.44 75.07 332.44 93.21 332.44 111.35 347.2 126.11 365.34 126.11 383.48 126.11 398.24 111.35 398.24 93.21 398.24 75.07 383.48 60.31 365.34 60.31Z" fill="#3939D8"/></g><g><path d="M466.94 93.21C466.94 74.51 451.78 59.34 433.07 59.34 414.36 59.34 399.2 74.5 399.2 93.21 399.2 111.92 414.36 127.08 433.07 127.08 451.78 127.08 466.94 111.92 466.94 93.21Z" fill="#1D1D6B"/><path d="M433.07 128.04C413.86 128.04 398.24 112.42 398.24 93.21 398.24 74 413.86 58.38 433.07 58.38 452.28 58.38 467.9 74 467.9 93.21 467.9 112.42 452.28 128.04 433.07 128.04ZM433.07 60.31C414.93 60.31 400.17 75.07 400.17 93.21 400.17 111.35 414.93 126.11 433.07 126.11 451.21 126.11 465.97 111.35 465.97 93.21 465.97 75.07 451.21 60.31 433.07 60.31Z" fill="#3939D8"/></g><g><path d="M534.67 93.21C534.67 74.51 519.51 59.34 500.8 59.34 482.09 59.34 466.93 74.5 466.93 93.21 466.93 111.92 482.09 127.08 500.8 127.08 519.51 127.08 534.67 111.92 534.67 93.21Z" fill="#1D1D6B"/><path d="M500.81 128.04C481.6 128.04 465.98 112.42 465.98 93.21 465.98 74 481.6 58.38 500.81 58.38 520.02 58.38 535.64 74 535.64 93.21 535.64 112.42 520.01 128.04 500.81 128.04ZM500.81 60.31C482.67 60.31 467.91 75.07 467.91 93.21 467.91 111.35 482.67 126.11 500.81 126.11 518.95 126.11 533.71 111.35 533.71 93.21 533.71 75.07 518.95 60.31 500.81 60.31Z" fill="#3939D8"/></g></g><g><g><path d="M94.05 110.22C94.05 91.52 78.89 76.35 60.18 76.35 41.47 76.35 26.31 91.51 26.31 110.22 26.31 128.93 41.47 144.09 60.18 144.09 78.89 144.09 94.05 128.93 94.05 110.22Z" fill="#1D1D6B"/><path d="M60.19 145.05C40.98 145.05 25.36 129.43 25.36 110.22 25.36 91.01 40.98 75.39 60.19 75.39 79.4 75.39 95.02 91.01 95.02 110.22 95.02 129.43 79.4 145.05 60.19 145.05ZM60.19 77.32C42.05 77.32 27.29 92.08 27.29 110.22 27.29 128.36 42.05 143.12 60.19 143.12 78.33 143.12 93.09 128.36 93.09 110.22 93.09 92.08 78.33 77.32 60.19 77.32Z" fill="#3939D8"/></g><g><path d="M26.32 110.22C26.32 91.52 11.16 76.35-7.55 76.35-26.26 76.35-41.42 91.51-41.42 110.22-41.42 128.93-26.26 144.09-7.55 144.09 11.16 144.09 26.32 128.93 26.32 110.22Z" fill="#1D1D6B"/><path d="M-7.55 145.05C-26.76 145.05-42.38 129.43-42.38 110.22-42.38 91.01-26.76 75.39-7.55 75.39 11.66 75.39 27.28 91.01 27.28 110.22 27.28 129.43 11.66 145.05-7.55 145.05ZM-7.55 77.32C-25.69 77.32-40.45 92.08-40.45 110.22-40.45 128.36-25.69 143.12-7.55 143.12 10.59 143.12 25.35 128.36 25.35 110.22 25.35 92.08 10.59 77.32-7.55 77.32Z" fill="#3939D8"/></g><g><path d="M161.9 110.22C161.9 91.52 146.74 76.35 128.03 76.35 109.32 76.35 94.16 91.51 94.16 110.22 94.16 128.93 109.32 144.09 128.03 144.09 146.74 144.09 161.9 128.93 161.9 110.22Z" fill="#1D1D6B"/><path d="M128.04 145.05C108.83 145.05 93.21 129.43 93.21 110.22 93.21 91.01 108.83 75.39 128.04 75.39 147.25 75.39 162.87 91.01 162.87 110.22 162.87 129.43 147.24 145.05 128.04 145.05ZM128.04 77.32C109.9 77.32 95.14 92.08 95.14 110.22 95.14 128.36 109.9 143.12 128.04 143.12 146.18 143.12 160.94 128.36 160.94 110.22 160.94 92.08 146.18 77.32 128.04 77.32Z" fill="#3939D8"/></g><g><path d="M229.64 110.22C229.64 91.52 214.48 76.35 195.77 76.35 177.06 76.35 161.9 91.51 161.9 110.22 161.9 128.93 177.06 144.09 195.77 144.09 214.48 144.09 229.64 128.93 229.64 110.22Z" fill="#1D1D6B"/><path d="M195.77 145.05C176.56 145.05 160.94 129.43 160.94 110.22 160.94 91.01 176.56 75.39 195.77 75.39 214.98 75.39 230.6 91.01 230.6 110.22 230.6 129.43 214.98 145.05 195.77 145.05ZM195.77 77.32C177.63 77.32 162.87 92.08 162.87 110.22 162.87 128.36 177.63 143.12 195.77 143.12 213.91 143.12 228.67 128.36 228.67 110.22 228.67 92.08 213.91 77.32 195.77 77.32Z" fill="#3939D8"/></g><g><path d="M297.37 110.22C297.37 91.52 282.21 76.35 263.5 76.35 244.79 76.35 229.63 91.51 229.63 110.22 229.63 128.93 244.79 144.09 263.5 144.09 282.21 144.09 297.37 128.93 297.37 110.22Z" fill="#1D1D6B"/><path d="M263.5 145.05C244.29 145.05 228.67 129.43 228.67 110.22 228.67 91.01 244.29 75.39 263.5 75.39 282.71 75.39 298.33 91.01 298.33 110.22 298.33 129.43 282.7 145.05 263.5 145.05ZM263.5 77.32C245.36 77.32 230.6 92.08 230.6 110.22 230.6 128.36 245.36 143.12 263.5 143.12 281.64 143.12 296.4 128.36 296.4 110.22 296.4 92.08 281.64 77.32 263.5 77.32Z" fill="#3939D8"/></g></g><g><path d="M635.9 76.2C635.9 57.5 620.74 42.33 602.03 42.33 583.32 42.33 568.16 57.49 568.16 76.2 568.16 94.91 583.32 110.07 602.03 110.07 620.74 110.07 635.9 94.91 635.9 76.2Z" fill="#1D1D6B"/><path d="M602.03 111.03C582.82 111.03 567.2 95.4 567.2 76.2 567.2 57 582.82 41.37 602.03 41.37 621.24 41.37 636.86 56.99 636.86 76.2 636.86 95.41 621.23 111.03 602.03 111.03ZM602.03 43.3C583.89 43.3 569.13 58.06 569.13 76.2 569.13 94.34 583.89 109.1 602.03 109.1 620.17 109.1 634.93 94.34 634.93 76.2 634.93 58.06 620.17 43.3 602.03 43.3Z" fill="#3939D8"/></g><g><g><path d="M602.04 93.21C602.04 74.51 586.88 59.34 568.17 59.34 549.46 59.34 534.3 74.5 534.3 93.21 534.3 111.92 549.46 127.08 568.17 127.08 586.88 127.08 602.04 111.92 602.04 93.21Z" fill="#1D1D6B"/><path d="M568.17 128.04C548.96 128.04 533.34 112.42 533.34 93.21 533.34 74 548.96 58.38 568.17 58.38 587.38 58.38 603 74 603 93.21 603 112.42 587.38 128.04 568.17 128.04ZM568.17 60.31C550.03 60.31 535.27 75.07 535.27 93.21 535.27 111.35 550.03 126.11 568.17 126.11 586.31 126.11 601.07 111.35 601.07 93.21 601.07 75.07 586.31 60.31 568.17 60.31Z" fill="#3939D8"/></g><g><path d="M669.89 93.21C669.89 74.51 654.73 59.34 636.02 59.34 617.31 59.34 602.15 74.5 602.15 93.21 602.15 111.92 617.31 127.08 636.02 127.08 654.73 127.08 669.89 111.92 669.89 93.21Z" fill="#1D1D6B"/><path d="M636.02 128.04C616.81 128.04 601.19 112.42 601.19 93.21 601.19 74 616.81 58.38 636.02 58.38 655.23 58.38 670.85 74 670.85 93.21 670.85 112.42 655.22 128.04 636.02 128.04ZM636.02 60.31C617.88 60.31 603.12 75.07 603.12 93.21 603.12 111.35 617.88 126.11 636.02 126.11 654.16 126.11 668.92 111.35 668.92 93.21 668.92 75.07 654.16 60.31 636.02 60.31Z" fill="#3939D8"/></g></g><g><g><path d="M432.84 110.22C432.84 91.52 417.68 76.35 398.97 76.35 380.26 76.35 365.1 91.51 365.1 110.22 365.1 128.93 380.26 144.09 398.97 144.09 417.68 144.09 432.84 128.93 432.84 110.22Z" fill="#1D1D6B"/><path d="M398.97 145.05C379.76 145.05 364.14 129.43 364.14 110.22 364.14 91.01 379.76 75.39 398.97 75.39 418.18 75.39 433.8 91.01 433.8 110.22 433.8 129.43 418.18 145.05 398.97 145.05ZM398.97 77.32C380.83 77.32 366.07 92.08 366.07 110.22 366.07 128.36 380.83 143.12 398.97 143.12 417.11 143.12 431.87 128.36 431.87 110.22 431.87 92.08 417.11 77.32 398.97 77.32Z" fill="#3939D8"/></g><g><path d="M365.1 110.22C365.1 91.52 349.94 76.35 331.23 76.35 312.52 76.35 297.36 91.51 297.36 110.22 297.36 128.93 312.52 144.09 331.23 144.09 349.94 144.09 365.1 128.93 365.1 110.22Z" fill="#1D1D6B"/><path d="M331.24 145.05C312.03 145.05 296.41 129.43 296.41 110.22 296.41 91.01 312.03 75.39 331.24 75.39 350.45 75.39 366.07 91.01 366.07 110.22 366.07 129.43 350.44 145.05 331.24 145.05ZM331.24 77.32C313.1 77.32 298.34 92.08 298.34 110.22 298.34 128.36 313.1 143.12 331.24 143.12 349.38 143.12 364.14 128.36 364.14 110.22 364.14 92.08 349.38 77.32 331.24 77.32Z" fill="#3939D8"/></g><g><path d="M500.69 110.22C500.69 91.52 485.53 76.35 466.82 76.35 448.11 76.35 432.95 91.51 432.95 110.22 432.95 128.93 448.11 144.09 466.82 144.09 485.53 144.09 500.69 128.93 500.69 110.22Z" fill="#1D1D6B"/><path d="M466.82 145.05C447.61 145.05 431.99 129.43 431.99 110.22 431.99 91.01 447.61 75.39 466.82 75.39 486.03 75.39 501.65 91.01 501.65 110.22 501.65 129.43 486.02 145.05 466.82 145.05ZM466.82 77.32C448.68 77.32 433.92 92.08 433.92 110.22 433.92 128.36 448.68 143.12 466.82 143.12 484.96 143.12 499.72 128.36 499.72 110.22 499.72 92.08 484.96 77.32 466.82 77.32Z" fill="#3939D8"/></g><g><path d="M568.42 110.22C568.42 91.52 553.26 76.35 534.55 76.35 515.84 76.35 500.68 91.51 500.68 110.22 500.68 128.93 515.84 144.09 534.55 144.09 553.26 144.09 568.42 128.93 568.42 110.22Z" fill="#1D1D6B"/><path d="M534.56 145.05C515.35 145.05 499.73 129.43 499.73 110.22 499.73 91.01 515.35 75.39 534.56 75.39 553.77 75.39 569.39 91.01 569.39 110.22 569.39 129.43 553.77 145.05 534.56 145.05ZM534.56 77.32C516.42 77.32 501.66 92.08 501.66 110.22 501.66 128.36 516.42 143.12 534.56 143.12 552.7 143.12 567.46 128.36 567.46 110.22 567.46 92.08 552.7 77.32 534.56 77.32Z" fill="#3939D8"/></g></g><g><path d="M635.9 110.22C635.9 91.52 620.74 76.35 602.03 76.35 583.32 76.35 568.16 91.51 568.16 110.22 568.16 128.93 583.32 144.09 602.03 144.09 620.74 144.09 635.9 128.93 635.9 110.22Z" fill="#1D1D6B"/><path d="M602.03 145.05C582.82 145.05 567.2 129.43 567.2 110.22 567.2 91.01 582.82 75.39 602.03 75.39 621.24 75.39 636.86 91.01 636.86 110.22 636.86 129.43 621.23 145.05 602.03 145.05ZM602.03 77.32C583.89 77.32 569.13 92.08 569.13 110.22 569.13 128.36 583.89 143.12 602.03 143.12 620.17 143.12 634.93 128.36 634.93 110.22 634.93 92.08 620.17 77.32 602.03 77.32Z" fill="#3939D8"/></g></g></svg>