<svg viewBox="0 0 616.06 346.59" xmlns="http://www.w3.org/2000/svg" xmlns:xlink="http://www.w3.org/1999/xlink" id="Logo_Text" overflow="hidden"><defs><clipPath id="clippath"><rect x="0" y="0" width="616.06" height="349.14" fill="none"/></clipPath><clipPath id="clippath-1"><path d="M363.86 228.83 363.86 146.93C385.05 162.43 376.62 237.32 376.62 237.32L363.86 237.32 363.86 228.84Z" fill="none"/></clipPath><clipPath id="clippath-2"><rect x="0" y="305.59" width="616.06" height="88.01" fill="none"/></clipPath><clipPath id="clippath-3"><rect x="0" y="214.38" width="616.06" height="90.88" fill="none"/></clipPath><clipPath id="clippath-4"><rect x="301.27" y="-46.78" width="314.79" height="410.72" fill="none"/></clipPath></defs><rect x="0" y="0" width="616.06" height="349.14" fill="#3939D8"/><g clip-path="url(#clippath)"><g><circle cx="518.54" cy="66.87" r="45.56" fill="#FFAEBF"/><g><path d="M449.47 35.48 354.39 35.48C354.39 35.48 126.29 238.88-85 238.88L888.85 238.88C677.56 238.88 449.47 35.48 449.47 35.48Z" fill="#5050D3"/><path d="M449.47 35.48 354.39 35.48C354.39 35.48 250.88 127.78 118.72 188.03L685.14 188.03C552.99 127.78 449.47 35.48 449.47 35.48Z" fill="#5050D3"/></g></g></g><path d="M444.7 213.34 444.7 189.15 404.92 189.15 404.92 138.38 389.4 138.38 389.4 96.92 344.95 96.92 344.95 114.92 340.18 114.92 340.18 125.16 335.87 125.16 335.87 120.29 322.84 120.29 322.84 104.84 325.44 104.84 325.44 103.39 319.27 103.39 319.27 100.54 324.73 100.54 324.73 99.09 319.27 99.09 319.27 96.24 324.01 96.24 324.01 94.78 319.27 94.78 319.27 91.94 323.29 91.94 323.29 90.48 319.27 90.48 319.27 87.64 323.29 87.64 323.29 86.18 319.27 86.18 319.27 83.34 323.29 83.34 323.29 81.88 319.27 81.88 319.27 73.65 317.81 73.65 317.81 81.88 313.79 81.88 313.79 83.34 317.81 83.34 317.81 86.18 313.79 86.18 313.79 87.64 317.81 87.64 317.81 90.48 313.79 90.48 313.79 91.94 317.81 91.94 317.81 94.78 313.08 94.78 313.08 96.24 317.81 96.24 317.81 99.09 312.36 99.09 312.36 100.54 317.81 100.54 317.81 103.39 311.64 103.39 311.64 104.84 314.24 104.84 314.24 120.29 306.36 120.29 306.36 138.91 302.9 138.91 302.9 128.16 298.84 128.16 294.77 128.16 294.77 138.91 291.31 138.91 291.31 204.12 245.31 204.12 245.31 153.72 228.68 153.72 228.76 184.82 167.17 184.82 167.17 213.22 118.96 213.22 118.96 221.29 109.1 221.29 109.1 215.67 104.63 215.67 104.63 120.53 86.84 120.53 86.84 215.67 77.74 215.67 77.74 201.04 71.47 201.04 71.47 186.79 66.63 186.79 66.63 237.53 404.92 237.53 404.92 237.53 417.37 237.53 417.37 237.53 513.58 237.53 513.58 213.34 444.7 213.34Z" fill="#2F2FBC"/><rect x="480.97" y="190.39" width="29.62" height="31.26" fill="#2F2FBC"/><rect x="503.75" y="176.84" width="104.18" height="59.42" fill="#2F2FBC"/><rect x="602.28" y="167.12" width="13.78" height="40.18" fill="#2F2FBC"/><g><rect x="414.68" y="131.2" width="1.85" height="112.02" fill="#FFAEBF"/><rect x="26.87" y="131.2" width="1.85" height="108" fill="#FFAEBF"/><rect x="208.36" y="130.39" width="407.7" height="1.85" fill="#FFAEBF"/><rect x="0" y="130.39" width="208.36" height="1.85" fill="#FFAEBF"/><circle cx="15.67" cy="131.31" r="4.33" fill="#F33357"/><circle cx="39.63" cy="131.31" r="4.33" fill="#F33357"/><path d="M150.59 237.31 143.59 130.02 143.59 130.02 143.59 130.02 136.6 130.02 129.61 130.02 128.05 130.02 122.61 130.02 115.62 130.02 115.62 130.02 108.62 237.31 115.62 237.31 115.62 237.31 115.62 237.31 128.05 237.31 129.61 237.31 143.59 237.31 143.59 237.31 150.59 237.31Z" fill="#FFFFFF"/><path d="M82.11 150.9C81.6 150.9 81.18 150.49 81.18 149.97L81.18 146.95C81.18 146.44 81.59 146.02 82.11 146.02 82.63 146.02 83.04 146.43 83.04 146.95L83.04 149.97C83.04 150.48 82.63 150.9 82.11 150.9Z" fill="#F33357"/><path d="M65.39 150.9C64.88 150.9 64.46 150.49 64.46 149.97L64.46 146.95C64.46 146.44 64.87 146.02 65.39 146.02 65.91 146.02 66.32 146.43 66.32 146.95L66.32 149.97C66.32 150.48 65.91 150.9 65.39 150.9Z" fill="#F33357"/><path d="M76.48 139.83 75.61 137.07 71.9 137.07 71.02 139.83 69.26 139.26 70.55 135.22 76.96 135.22 78.25 139.26 76.48 139.83Z" fill="#F33357"/><path d="M79.42 138.87 68.07 138.87C68.07 138.87 65.39 143.51 65.39 148.46 65.39 153.41 68.07 158.05 68.07 158.05L79.42 158.05C79.42 158.05 82.1 153.41 82.1 148.46 82.1 143.51 79.42 138.87 79.42 138.87Z" fill="#FFFFFF"/><path d="M65.4 148.97C65.57 153.73 68.07 158.06 68.07 158.06L79.42 158.06C79.42 158.06 82.1 153.42 82.1 148.47 82.1 146.99 81.86 145.55 81.53 144.24L65.4 148.98Z" fill="#FFAEBF"/><path d="M78.29 158.06 69.21 158.06 69.83 159.92 77.67 159.92 78.29 158.06Z" fill="#F33357"/><circle cx="73.76" cy="131.2" r="1.88" fill="#F33357"/><rect x="72.83" y="132.17" width="1.85" height="3.97" fill="#F33357"/><path d="M333.17 150.9C332.66 150.9 332.24 150.49 332.24 149.97L332.24 146.95C332.24 146.44 332.65 146.02 333.17 146.02 333.69 146.02 334.1 146.43 334.1 146.95L334.1 149.97C334.1 150.48 333.69 150.9 333.17 150.9Z" fill="#F33357"/><path d="M316.46 150.9C315.95 150.9 315.53 150.49 315.53 149.97L315.53 146.95C315.53 146.44 315.94 146.02 316.46 146.02 316.98 146.02 317.39 146.43 317.39 146.95L317.39 149.97C317.39 150.48 316.98 150.9 316.46 150.9Z" fill="#F33357"/><path d="M327.55 139.83 326.67 137.07 322.97 137.07 322.09 139.83 320.33 139.26 321.61 135.22 328.03 135.22 329.32 139.26 327.55 139.83Z" fill="#F33357"/><path d="M330.49 138.87 319.14 138.87C319.14 138.87 316.46 143.51 316.46 148.46 316.46 153.41 319.14 158.05 319.14 158.05L330.49 158.05C330.49 158.05 333.17 153.41 333.17 148.46 333.17 143.51 330.49 138.87 330.49 138.87Z" fill="#FFFFFF"/><path d="M316.47 148.97C316.64 153.73 319.14 158.06 319.14 158.06L330.49 158.06C330.49 158.06 333.17 153.42 333.17 148.47 333.17 146.99 332.93 145.55 332.6 144.24L316.47 148.98Z" fill="#FFAEBF"/><path d="M329.36 158.06 320.28 158.06 320.9 159.92 328.74 159.92 329.36 158.06Z" fill="#F33357"/><circle cx="324.82" cy="131.2" r="1.88" fill="#F33357"/><rect x="323.9" y="132.17" width="1.85" height="3.97" fill="#F33357"/><path d="M575.24 150.9C574.73 150.9 574.31 150.49 574.31 149.97L574.31 146.95C574.31 146.44 574.72 146.02 575.24 146.02 575.76 146.02 576.17 146.43 576.17 146.95L576.17 149.97C576.17 150.48 575.76 150.9 575.24 150.9Z" fill="#F33357"/><path d="M558.53 150.9C558.02 150.9 557.6 150.49 557.6 149.97L557.6 146.95C557.6 146.44 558.01 146.02 558.53 146.02 559.05 146.02 559.46 146.43 559.46 146.95L559.46 149.97C559.46 150.48 559.05 150.9 558.53 150.9Z" fill="#F33357"/><path d="M569.62 139.83 568.74 137.07 565.03 137.07 564.15 139.83 562.39 139.26 563.68 135.22 570.09 135.22 571.38 139.26 569.62 139.83Z" fill="#F33357"/><path d="M572.56 138.87 561.21 138.87C561.21 138.87 558.53 143.51 558.53 148.46 558.53 153.41 561.21 158.05 561.21 158.05L572.56 158.05C572.56 158.05 575.24 153.41 575.24 148.46 575.24 143.51 572.56 138.87 572.56 138.87Z" fill="#FFFFFF"/><path d="M558.54 148.97C558.71 153.73 561.21 158.06 561.21 158.06L572.56 158.06C572.56 158.06 575.24 153.42 575.24 148.47 575.24 146.99 575 145.55 574.67 144.24L558.54 148.98Z" fill="#FFAEBF"/><path d="M571.42 158.06 562.34 158.06 562.96 159.92 570.8 159.92 571.42 158.06Z" fill="#F33357"/><circle cx="566.89" cy="131.2" r="1.88" fill="#F33357"/><rect x="565.96" y="132.17" width="1.85" height="3.97" fill="#F33357"/><circle cx="402.91" cy="131.31" r="4.33" fill="#F33357"/><circle cx="426.87" cy="131.31" r="4.33" fill="#F33357"/><path d="M266.08 197.45C259.21 197.45 253.62 191.86 253.62 184.99 253.62 178.12 259.21 172.53 266.08 172.53 272.95 172.53 278.54 178.12 278.54 184.99 278.54 191.86 272.95 197.45 266.08 197.45ZM266.08 173.91C259.97 173.91 255 178.88 255 184.99 255 191.1 259.97 196.07 266.08 196.07 272.19 196.07 277.16 191.1 277.16 184.99 277.16 178.88 272.19 173.91 266.08 173.91Z" fill="#F33357"/><path d="M266.08 204.51C255.31 204.51 246.56 195.75 246.56 184.99 246.56 174.23 255.32 165.47 266.08 165.47 276.84 165.47 285.6 174.23 285.6 184.99 285.6 195.75 276.84 204.51 266.08 204.51ZM266.08 166.85C256.08 166.85 247.94 174.99 247.94 184.99 247.94 194.99 256.08 203.13 266.08 203.13 276.08 203.13 284.22 194.99 284.22 184.99 284.22 174.99 276.08 166.85 266.08 166.85Z" fill="#F33357"/><path d="M266.08 211.57C251.42 211.57 239.49 199.64 239.49 184.98 239.49 170.32 251.42 158.39 266.08 158.39 280.74 158.39 292.67 170.32 292.67 184.98 292.67 199.64 280.74 211.57 266.08 211.57ZM266.08 159.79C252.18 159.79 240.88 171.09 240.88 184.99 240.88 198.89 252.18 210.19 266.08 210.19 279.98 210.19 291.28 198.89 291.28 184.99 291.28 171.09 279.98 159.79 266.08 159.79Z" fill="#F33357"/><path d="M266.08 218.63C247.53 218.63 232.43 203.54 232.43 184.98 232.43 166.42 247.52 151.33 266.08 151.33 284.64 151.33 299.73 166.42 299.73 184.98 299.73 203.54 284.64 218.63 266.08 218.63ZM266.08 152.73C248.29 152.73 233.82 167.2 233.82 184.99 233.82 202.78 248.29 217.25 266.08 217.25 283.87 217.25 298.34 202.78 298.34 184.99 298.34 167.2 283.87 152.73 266.08 152.73Z" fill="#F33357"/><path d="M266.08 225.7C243.63 225.7 225.37 207.44 225.37 184.99 225.37 162.54 243.63 144.28 266.08 144.28 288.53 144.28 306.79 162.54 306.79 184.99 306.79 207.44 288.53 225.7 266.08 225.7ZM266.08 145.66C244.4 145.66 226.76 163.3 226.76 184.98 226.76 206.66 244.4 224.3 266.08 224.3 287.76 224.3 305.4 206.66 305.4 184.98 305.4 163.3 287.76 145.66 266.08 145.66Z" fill="#F33357"/><path d="M266.13 232.09C266.11 231.32 266.71 230.68 267.48 230.66L267.48 230.66C268.25 230.64 268.89 231.24 268.9 232.01L268.9 232.01C268.93 232.77 268.33 233.42 267.56 233.43L267.51 233.43C266.76 233.43 266.15 232.84 266.12 232.09ZM261.83 233.27C261.06 233.2 260.5 232.53 260.57 231.76L260.57 231.76C260.64 231 261.3 230.43 262.07 230.5L262.07 230.5C262.83 230.57 263.4 231.24 263.34 232L263.34 232C263.27 232.72 262.66 233.27 261.95 233.27L261.83 233.27ZM271.7 231.75C271.59 230.99 272.11 230.28 272.87 230.17L272.87 230.17C273.63 230.06 274.34 230.59 274.45 231.35L274.45 231.35C274.56 232.1 274.04 232.81 273.28 232.92L273.28 232.92C273.21 232.92 273.14 232.94 273.07 232.94L273.07 232.94C272.4 232.94 271.8 232.44 271.7 231.76ZM256.15 232.43C255.4 232.28 254.92 231.54 255.08 230.79L255.08 230.79C255.24 230.04 255.97 229.56 256.73 229.72L256.73 229.72C257.47 229.88 257.96 230.61 257.8 231.36L257.8 231.36C257.66 232.02 257.08 232.47 256.44 232.47L256.44 232.47C256.35 232.47 256.25 232.47 256.15 232.43ZM277.18 230.76C276.98 230.02 277.42 229.26 278.16 229.06L278.16 229.06C278.89 228.86 279.66 229.29 279.86 230.03L279.86 230.03C280.06 230.77 279.62 231.54 278.88 231.73L278.88 231.73C278.76 231.77 278.64 231.79 278.52 231.79L278.52 231.79C277.91 231.79 277.35 231.38 277.18 230.76ZM250.6 230.93 250.6 230.93C249.88 230.68 249.48 229.89 249.73 229.17L249.73 229.17C249.97 228.44 250.76 228.05 251.49 228.3L251.49 228.3C252.21 228.54 252.6 229.33 252.36 230.06L252.36 230.06C252.17 230.63 251.63 231 251.05 231L251.05 231C250.9 231 250.75 230.97 250.61 230.93ZM282.52 229.13C282.23 228.42 282.57 227.61 283.28 227.32L283.28 227.32C283.99 227.03 284.8 227.38 285.09 228.09L285.09 228.09C285.38 228.79 285.03 229.61 284.32 229.89L284.32 229.89C284.15 229.96 283.98 229.99 283.8 229.99L283.8 229.99C283.25 229.99 282.74 229.67 282.51 229.13ZM245.28 228.77 245.28 228.77C244.59 228.45 244.29 227.61 244.62 226.92L244.62 226.92C244.94 226.23 245.78 225.94 246.46 226.26L246.46 226.26C247.14 226.59 247.44 227.42 247.11 228.11L247.11 228.11C246.88 228.61 246.38 228.91 245.86 228.91L245.86 228.91C245.67 228.91 245.45 228.86 245.27 228.77ZM287.62 226.88C287.25 226.21 287.49 225.36 288.17 224.99L288.17 224.99C288.84 224.62 289.68 224.87 290.05 225.54L290.05 225.54C290.42 226.21 290.18 227.06 289.51 227.43L289.51 227.43C289.3 227.55 289.07 227.61 288.83 227.61L288.83 227.61C288.34 227.61 287.87 227.35 287.62 226.89ZM240.25 226.01 240.25 226.01C239.6 225.59 239.41 224.74 239.82 224.1L239.82 224.1C240.23 223.45 241.09 223.26 241.73 223.66L241.73 223.66C242.38 224.07 242.57 224.93 242.17 225.58L242.17 225.58C241.9 226 241.46 226.23 240.99 226.23L240.99 226.23C240.74 226.23 240.48 226.16 240.25 226.02ZM292.41 224.04C291.97 223.42 292.1 222.55 292.72 222.11L292.72 222.11C293.34 221.66 294.21 221.8 294.66 222.42L294.66 222.42C295.1 223.04 294.97 223.91 294.34 224.35L294.34 224.35C294.1 224.53 293.81 224.61 293.53 224.61L293.53 224.61C293.1 224.61 292.68 224.42 292.4 224.04ZM235.59 222.66C234.99 222.18 234.91 221.31 235.39 220.71L235.39 220.71C235.87 220.12 236.74 220.03 237.34 220.51L237.34 220.51C237.93 220.99 238.02 221.87 237.54 222.46L237.54 222.46C237.26 222.8 236.86 222.98 236.46 222.98L236.46 222.98C236.15 222.98 235.85 222.88 235.59 222.67ZM296.84 220.64C296.32 220.08 296.36 219.21 296.92 218.69L296.92 218.69C297.48 218.16 298.36 218.21 298.88 218.77L298.88 218.77C299.4 219.33 299.36 220.21 298.8 220.73L298.8 220.73C298.53 220.97 298.2 221.09 297.86 221.09L297.86 221.09C297.49 221.09 297.11 220.94 296.84 220.64ZM231.35 218.79 231.35 218.79C230.81 218.24 230.82 217.37 231.38 216.83L231.38 216.83C231.93 216.29 232.8 216.3 233.34 216.86L233.34 216.86C233.87 217.41 233.86 218.28 233.31 218.82L233.31 218.82C233.04 219.08 232.69 219.21 232.34 219.21L232.34 219.21C231.98 219.21 231.62 219.07 231.35 218.79ZM300.84 216.76C300.26 216.26 300.19 215.39 300.69 214.81L300.69 214.81C301.19 214.23 302.07 214.16 302.65 214.66L302.65 214.66C303.23 215.16 303.3 216.04 302.8 216.62L302.8 216.62C302.52 216.93 302.13 217.1 301.74 217.1L301.74 217.1C301.42 217.1 301.09 216.99 300.83 216.76ZM227.59 214.45 227.59 214.45C227.13 213.84 227.24 212.97 227.85 212.51L227.85 212.51C228.45 212.04 229.33 212.16 229.79 212.76L229.79 212.76C230.26 213.37 230.14 214.24 229.53 214.71L229.53 214.71C229.28 214.9 228.98 215 228.69 215L228.69 215C228.27 215 227.87 214.81 227.59 214.45ZM304.36 212.43C303.72 212 303.55 211.14 303.99 210.51L303.99 210.51C304.42 209.87 305.28 209.7 305.91 210.14L305.91 210.14C306.54 210.57 306.72 211.43 306.28 212.06L306.28 212.06C306.01 212.46 305.58 212.67 305.13 212.67L305.13 212.67C304.86 212.67 304.59 212.6 304.35 212.43ZM224.37 209.7 224.37 209.7C223.97 209.04 224.19 208.19 224.85 207.8L224.85 207.8C225.51 207.41 226.36 207.62 226.75 208.28L226.75 208.28C227.14 208.94 226.92 209.8 226.26 210.19L226.26 210.19C226.04 210.32 225.8 210.38 225.56 210.38L225.56 210.38C225.08 210.38 224.62 210.14 224.36 209.7ZM307.34 207.71C306.66 207.37 306.39 206.53 306.74 205.84L306.74 205.84C307.09 205.16 307.93 204.9 308.61 205.25L308.61 205.25C309.29 205.59 309.56 206.43 309.21 207.12L309.21 207.12C308.96 207.59 308.48 207.87 307.97 207.87L307.97 207.87C307.76 207.87 307.54 207.82 307.34 207.71ZM221.75 204.6C221.44 203.91 221.75 203.08 222.45 202.78L222.45 202.78C223.15 202.47 223.98 202.78 224.28 203.48L224.28 203.48C224.59 204.18 224.28 205 223.58 205.31L223.58 205.31C223.39 205.39 223.2 205.43 223.02 205.43L223.02 205.43C222.49 205.43 221.98 205.12 221.75 204.6ZM309.74 202.67C309.02 202.4 308.65 201.61 308.92 200.88L308.92 200.88C309.19 200.17 309.99 199.8 310.71 200.07L310.71 200.07C311.43 200.34 311.79 201.13 311.52 201.86L311.52 201.86C311.32 202.42 310.79 202.77 310.22 202.77L310.22 202.77C310.06 202.77 309.9 202.73 309.74 202.68ZM219.74 199.22C219.51 198.49 219.93 197.71 220.66 197.49L220.66 197.49C221.39 197.27 222.17 197.67 222.4 198.41L222.4 198.41C222.62 199.14 222.21 199.92 221.47 200.15L221.47 200.15C221.33 200.19 221.2 200.21 221.06 200.21L221.06 200.21C220.47 200.21 219.92 199.83 219.74 199.23ZM311.52 197.39C310.78 197.2 310.32 196.46 310.5 195.72L310.5 195.72C310.68 194.97 311.43 194.51 312.18 194.69L312.18 194.69C312.92 194.87 313.38 195.62 313.21 196.36L313.21 196.36C313.05 197 312.48 197.42 311.85 197.42L311.85 197.42C311.75 197.42 311.64 197.4 311.53 197.38ZM218.39 193.64C218.25 192.89 218.75 192.17 219.51 192.03L219.51 192.03C220.26 191.89 220.98 192.4 221.12 193.15L221.12 193.15C221.26 193.91 220.75 194.63 220 194.76L220 194.76C219.92 194.78 219.83 194.79 219.75 194.79L219.75 194.79C219.09 194.79 218.5 194.32 218.39 193.64ZM312.67 191.93C311.91 191.84 311.37 191.14 311.46 190.39L311.46 190.39C311.54 189.63 312.24 189.09 313 189.18L313 189.18C313.76 189.26 314.3 189.96 314.22 190.72L314.22 190.72C314.14 191.43 313.55 191.95 312.85 191.95L312.85 191.95C312.79 191.95 312.74 191.95 312.68 191.95ZM217.7 187.95C217.64 187.18 218.23 186.53 219 186.48L219 186.48C219.77 186.43 220.42 187.02 220.47 187.78L220.47 187.78C220.52 188.55 219.93 189.2 219.17 189.25L219.09 189.25C218.37 189.25 217.75 188.69 217.71 187.95ZM311.77 184.98 311.77 184.98 311.77 184.91 311.77 184.91 311.77 184.81 311.77 184.81C311.77 184.04 312.38 183.41 313.15 183.41L313.15 183.41C313.92 183.41 314.54 184.02 314.55 184.79L314.55 184.79C314.55 184.79 314.55 184.85 314.55 184.89L314.55 184.89C314.55 184.89 314.55 184.95 314.55 184.98L314.55 184.98C314.55 185.75 313.93 186.37 313.16 186.37L313.16 186.37C312.39 186.37 311.77 185.75 311.77 184.98ZM219 183.68C218.23 183.63 217.65 182.98 217.7 182.22L217.7 182.22C217.75 181.45 218.4 180.86 219.17 180.91L219.17 180.91C219.93 180.96 220.52 181.61 220.47 182.37L220.47 182.37C220.42 183.11 219.81 183.68 219.08 183.68L219.01 183.68ZM311.43 179.41 311.43 179.41C311.34 178.64 311.88 177.96 312.64 177.87L312.64 177.87C313.4 177.78 314.09 178.31 314.18 179.07L314.18 179.07C314.27 179.84 313.74 180.52 312.97 180.61L312.97 180.61C312.91 180.61 312.86 180.63 312.8 180.63L312.8 180.63C312.11 180.63 311.5 180.11 311.42 179.41ZM219.47 178.12C218.72 177.99 218.21 177.27 218.35 176.51L218.35 176.51C218.48 175.76 219.2 175.25 219.96 175.39L219.96 175.39C220.71 175.52 221.22 176.24 221.08 177L221.08 177C220.96 177.67 220.38 178.14 219.72 178.14L219.72 178.14C219.64 178.14 219.55 178.14 219.47 178.12ZM310.45 174.08C310.27 173.34 310.73 172.59 311.47 172.41L311.47 172.41C312.22 172.22 312.97 172.69 313.15 173.43L313.15 173.43C313.33 174.18 312.87 174.93 312.13 175.11L312.13 175.11C312.02 175.14 311.91 175.15 311.8 175.15L311.8 175.15C311.17 175.15 310.61 174.72 310.45 174.09ZM220.61 172.66C219.87 172.44 219.46 171.66 219.68 170.93L219.68 170.93C219.9 170.2 220.68 169.78 221.41 170L221.41 170C222.14 170.22 222.56 171 222.34 171.73L222.34 171.73C222.16 172.33 221.61 172.72 221.02 172.72L221.02 172.72C220.88 172.72 220.74 172.69 220.61 172.65ZM308.85 168.91C308.58 168.19 308.95 167.39 309.66 167.12L309.66 167.12C310.38 166.85 311.18 167.21 311.45 167.93L311.45 167.93C311.73 168.65 311.36 169.45 310.64 169.72L310.64 169.72C310.47 169.78 310.31 169.8 310.15 169.8L310.15 169.8C309.59 169.8 309.06 169.46 308.85 168.9ZM222.39 167.37C221.69 167.06 221.36 166.25 221.68 165.54L221.68 165.54C221.99 164.85 222.8 164.52 223.5 164.83L223.5 164.83C224.2 165.14 224.53 165.96 224.22 166.66L224.22 166.66C223.99 167.18 223.48 167.49 222.94 167.49L222.94 167.49C222.75 167.49 222.56 167.45 222.39 167.37ZM306.66 163.97C306.3 163.29 306.57 162.45 307.24 162.1L307.24 162.1C307.92 161.74 308.77 162.01 309.12 162.69L309.12 162.69C309.47 163.37 309.2 164.21 308.53 164.56L308.53 164.56C308.33 164.66 308.1 164.72 307.89 164.72L307.89 164.72C307.38 164.72 306.9 164.44 306.66 163.97ZM224.77 162.33C224.11 161.94 223.89 161.09 224.28 160.43L224.28 160.43C224.67 159.77 225.52 159.55 226.19 159.94L226.19 159.94C226.85 160.33 227.07 161.18 226.68 161.84L226.68 161.84C226.42 162.28 225.96 162.52 225.48 162.52L225.48 162.52C225.24 162.52 225 162.46 224.78 162.33ZM303.89 159.33C303.45 158.69 303.62 157.83 304.26 157.4L304.26 157.4C304.89 156.97 305.76 157.14 306.18 157.77L306.18 157.77C306.62 158.41 306.45 159.27 305.81 159.69L305.81 159.69C305.58 159.86 305.3 159.93 305.03 159.93L305.03 159.93C304.59 159.93 304.15 159.72 303.88 159.33ZM227.75 157.61C227.14 157.15 227.02 156.28 227.48 155.67L227.48 155.67C227.94 155.06 228.81 154.94 229.42 155.4L229.42 155.4C230.03 155.87 230.15 156.74 229.69 157.34L229.69 157.34C229.41 157.7 229.01 157.89 228.58 157.89L228.58 157.89C228.29 157.89 228 157.8 227.75 157.6ZM300.58 155.04C300.08 154.47 300.15 153.59 300.72 153.09L300.72 153.09C301.3 152.58 302.17 152.65 302.68 153.23L302.68 153.23C303.18 153.8 303.11 154.68 302.54 155.18L302.54 155.18C302.28 155.41 301.96 155.52 301.63 155.52L301.63 155.52C301.24 155.52 300.85 155.36 300.58 155.04ZM231.26 153.28C230.7 152.74 230.7 151.86 231.22 151.31L231.22 151.31C231.76 150.76 232.63 150.75 233.18 151.28L233.18 151.28C233.73 151.81 233.74 152.69 233.22 153.24L233.22 153.24C232.94 153.52 232.58 153.66 232.22 153.66L232.22 153.66C231.88 153.66 231.53 153.54 231.26 153.28ZM296.81 151.17C296.24 150.65 296.2 149.78 296.71 149.21L296.71 149.21C297.23 148.65 298.11 148.6 298.67 149.12L298.67 149.12C299.23 149.64 299.28 150.52 298.76 151.08L298.76 151.08C298.49 151.38 298.11 151.53 297.73 151.53L297.73 151.53C297.4 151.53 297.06 151.41 296.8 151.17ZM235.25 149.38C234.77 148.78 234.86 147.91 235.44 147.42L235.44 147.42C236.03 146.94 236.9 147.03 237.39 147.62L237.39 147.62C237.87 148.21 237.79 149.08 237.19 149.57L237.19 149.57C236.94 149.78 236.63 149.88 236.32 149.88L236.32 149.88C235.91 149.88 235.51 149.7 235.24 149.37ZM292.59 147.77 292.59 147.77C291.97 147.33 291.82 146.46 292.27 145.84L292.27 145.84C292.71 145.21 293.58 145.06 294.2 145.52L294.2 145.52C294.83 145.96 294.97 146.82 294.52 147.45L294.52 147.45C294.25 147.83 293.83 148.03 293.39 148.03L293.39 148.03C293.11 148.03 292.83 147.95 292.58 147.77ZM239.67 145.98C239.26 145.33 239.45 144.48 240.1 144.07L240.1 144.07C240.75 143.66 241.61 143.85 242.02 144.5L242.02 144.5C242.44 145.15 242.24 146.01 241.59 146.41L241.59 146.41C241.36 146.56 241.11 146.63 240.85 146.63L240.85 146.63C240.39 146.63 239.94 146.4 239.68 145.98ZM288.01 144.9C287.33 144.53 287.08 143.69 287.45 143.01L287.45 143.01C287.82 142.34 288.66 142.09 289.34 142.46L289.34 142.46C290.01 142.83 290.26 143.67 289.89 144.34L289.89 144.34C289.64 144.8 289.17 145.06 288.68 145.06L288.68 145.06C288.45 145.06 288.23 145 288.01 144.89ZM244.46 143.13C244.13 142.45 244.42 141.61 245.11 141.28L245.11 141.28C245.8 140.95 246.64 141.23 246.96 141.93L246.96 141.93C247.29 142.62 247.01 143.45 246.31 143.78L246.31 143.78C246.12 143.87 245.91 143.92 245.71 143.92L245.71 143.92C245.2 143.92 244.7 143.63 244.46 143.13ZM283.12 142.57C282.41 142.29 282.07 141.48 282.35 140.77L282.35 140.77C282.64 140.05 283.44 139.71 284.15 139.99L284.15 139.99C284.86 140.28 285.2 141.08 284.92 141.79L284.92 141.79C284.71 142.34 284.18 142.66 283.63 142.66L283.63 142.66C283.45 142.66 283.28 142.63 283.11 142.56ZM249.56 140.86C249.31 140.14 249.7 139.35 250.43 139.1L250.43 139.1C251.15 138.85 251.94 139.24 252.19 139.96L252.19 139.96C252.44 140.69 252.05 141.48 251.32 141.73L251.32 141.73C251.17 141.78 251.02 141.8 250.88 141.8L250.88 141.8C250.3 141.8 249.76 141.44 249.57 140.86ZM277.98 140.86C277.24 140.67 276.8 139.9 277 139.16L277 139.16C277.2 138.42 277.96 137.98 278.7 138.18L278.7 138.18C279.44 138.38 279.88 139.14 279.68 139.88L279.68 139.88C279.51 140.5 278.96 140.91 278.35 140.91L278.35 140.91C278.23 140.91 278.1 140.91 277.98 140.86ZM254.89 139.22C254.73 138.47 255.21 137.73 255.96 137.57L255.96 137.57C256.71 137.41 257.44 137.89 257.61 138.64L257.61 138.64C257.77 139.39 257.29 140.12 256.54 140.29L256.54 140.29C256.45 140.31 256.35 140.32 256.25 140.32L256.25 140.32C255.6 140.32 255.03 139.88 254.89 139.22ZM272.69 139.77C271.93 139.66 271.4 138.96 271.52 138.2L271.52 138.2C271.62 137.44 272.33 136.91 273.09 137.03L273.09 137.03C273.85 137.14 274.38 137.84 274.26 138.6L274.26 138.6C274.16 139.29 273.57 139.78 272.88 139.78L272.88 139.78C272.82 139.78 272.75 139.78 272.69 139.78ZM260.37 138.23C260.3 137.47 260.87 136.8 261.63 136.72L261.63 136.72C262.39 136.65 263.06 137.22 263.14 137.98L263.14 137.98C263.2 138.75 262.65 139.42 261.88 139.49L261.88 139.49C261.88 139.49 261.8 139.49 261.76 139.49L261.76 139.49C261.05 139.49 260.44 138.94 260.37 138.22ZM267.29 139.31C266.52 139.29 265.92 138.66 265.94 137.89L265.94 137.89C265.96 137.12 266.6 136.51 267.36 136.53L267.36 136.53C268.13 136.56 268.73 137.2 268.71 137.95L268.71 137.95C268.69 138.71 268.07 139.3 267.32 139.3L267.28 139.3Z" fill="#FFAEBF"/><rect x="229.75" y="210.97" width="55.92" height="1.39" fill="#F33357" transform="matrix(0.299374 -0.954136 0.954136 0.299374 -21.4 394.18)"/><rect x="273.76" y="183.7" width="1.39" height="55.92" fill="#F33357" transform="matrix(0.954084 -0.29954 0.29954 0.954084 -50.79 91.9)"/><circle cx="266.08" cy="184.99" r="4.71" fill="#FFAEBF"/><path d="M136.6 79.96 136.6 94.26 131.88 94.26 129.61 94.26 122.61 94.26 122.61 79.96 115.62 79.96 115.62 122.87 122.61 122.87 123.85 122.87 129.61 122.87 131.88 122.87 133.58 122.87 136.6 122.87 143.59 122.87 143.59 79.96 136.6 79.96Z" fill="#FFFFFF"/><path d="M133.1 83.53 129.61 83.53 129.27 83.53 126.11 83.53 122.61 79.96 122.61 83.53 122.61 94.26 129.27 94.26 129.61 94.26 136.6 94.26 136.6 83.53 136.6 79.96 133.1 83.53Z" fill="#DB1E3D"/><path d="M129.61 87.97 122.61 87.97 122.61 89.82 129.61 89.82 136.6 89.82 136.6 87.97 129.61 87.97Z" fill="#FFAEBF"/><rect x="122.61" y="86.16" width="1.23" height="36.71" fill="#DB1E3D"/><path d="M116.85 237.31 123.85 130.02 122.61 130.02 115.62 237.31 116.85 237.31Z" fill="#DB1E3D"/><path d="M115.62 107.64 115.62 109.49 129.61 109.49 143.59 109.49 143.59 107.64 129.61 107.64 115.62 107.64Z" fill="#DB1E3D"/><path d="M115.62 114.79 115.62 116.64 129.61 116.64 143.59 116.64 143.59 114.79 129.61 114.79 115.62 114.79Z" fill="#DB1E3D"/><path d="M129.61 100.49 115.62 100.49 115.62 102.34 129.61 102.34 143.59 102.34 143.59 100.49 129.61 100.49Z" fill="#DB1E3D"/><path d="M130.94 215.85 129.61 215.85 122.61 215.85 122.61 223.01 129.61 223.01 130.94 223.01 136.6 223.01 136.6 215.85 130.94 215.85Z" fill="#F33357"/><rect x="135.37" y="86.16" width="1.23" height="36.71" fill="#DB1E3D"/><path d="M115.62 122.87 115.62 130.02 122.61 130.02 129.61 130.02 129.61 122.87 122.61 122.87 115.62 122.87Z" fill="#F33357"/><path d="M136.6 122.87 129.61 122.87 129.61 130.02 136.6 130.02 143.59 130.02 143.59 122.87 136.6 122.87Z" fill="#F33357"/><path d="M129.61 223.01 129.03 223.01 122.61 223.01 122.61 237.31 129.03 237.31 129.61 237.31 136.6 237.31 136.6 223.01 129.61 223.01Z" fill="#630013"/><path d="M142.36 237.31 135.37 130.02 136.6 130.02 143.6 237.31 142.36 237.31Z" fill="#DB1E3D"/><path d="M144.1 137.81 144.02 136.55 129.61 136.55 115.19 136.55 115.11 137.81 129.61 137.81 144.1 137.81Z" fill="#DB1E3D"/><path d="M144.57 144.96 144.48 143.7 129.61 143.7 114.73 143.7 114.64 144.96 129.61 144.96 144.57 144.96Z" fill="#DB1E3D"/><path d="M145.03 152.11 144.95 150.85 129.61 150.85 114.26 150.85 114.18 152.11 129.61 152.11 145.03 152.11Z" fill="#DB1E3D"/><path d="M145.5 159.26 145.42 158 129.61 158 113.79 158 113.71 159.26 129.61 159.26 145.5 159.26Z" fill="#DB1E3D"/><path d="M145.96 166.42 145.88 165.16 129.61 165.16 113.33 165.16 113.25 166.42 129.61 166.42 145.96 166.42Z" fill="#DB1E3D"/><path d="M146.43 173.57 146.35 172.31 129.61 172.31 112.86 172.31 112.78 173.57 129.61 173.57 146.43 173.57Z" fill="#DB1E3D"/><path d="M146.82 179.46 129.61 179.46 112.4 179.46 112.31 180.72 129.61 180.72 146.9 180.72 146.82 179.46Z" fill="#DB1E3D"/><path d="M147.36 187.87 147.28 186.61 129.61 186.61 111.93 186.61 111.85 187.87 129.61 187.87 147.36 187.87Z" fill="#DB1E3D"/><path d="M147.83 195.03 147.75 193.77 129.61 193.77 111.46 193.77 111.38 195.03 129.61 195.03 147.83 195.03Z" fill="#DB1E3D"/><path d="M148.3 202.18 148.21 200.92 129.61 200.92 111 200.92 110.91 202.18 129.61 202.18 148.3 202.18Z" fill="#DB1E3D"/><path d="M148.68 208.07 129.61 208.07 110.53 208.07 110.45 209.33 129.61 209.33 148.76 209.33 148.68 208.07Z" fill="#DB1E3D"/><path d="M205.65 237.31 205.65 151.84 189.99 151.84 186.51 148.36 176.14 148.36 176.14 237.2 205.65 237.31Z" fill="#FFFFFF"/><rect x="176.14" y="230.81" width="29.51" height="1.85" fill="#DB1E3D"/><rect x="176.14" y="225.34" width="29.51" height="1.85" fill="#DB1E3D"/><rect x="176.14" y="219.87" width="29.51" height="1.85" fill="#DB1E3D"/><rect x="176.14" y="214.4" width="29.51" height="1.85" fill="#DB1E3D"/><rect x="176.14" y="208.93" width="29.51" height="1.85" fill="#DB1E3D"/><rect x="176.14" y="203.46" width="29.51" height="1.85" fill="#DB1E3D"/><rect x="176.14" y="197.99" width="29.51" height="1.85" fill="#DB1E3D"/><rect x="176.14" y="192.52" width="29.51" height="1.85" fill="#DB1E3D"/><rect x="176.14" y="187.05" width="29.51" height="1.85" fill="#DB1E3D"/><rect x="176.14" y="181.59" width="29.51" height="1.85" fill="#DB1E3D"/><rect x="176.14" y="176.12" width="29.51" height="1.85" fill="#DB1E3D"/><rect x="176.14" y="170.65" width="29.51" height="1.85" fill="#DB1E3D"/><rect x="176.14" y="165.18" width="29.51" height="1.85" fill="#DB1E3D"/><rect x="176.14" y="159.71" width="29.51" height="1.85" fill="#DB1E3D"/><rect x="358.27" y="149.74" width="8.02" height="87.57" fill="#FFAEBF"/><path d="M363.86 228.83 363.86 146.93C385.05 162.43 376.62 237.32 376.62 237.32L363.86 237.32 363.86 228.84Z" fill="#FFFFFF"/><path d="M359.69 228.19 359.69 146.92C359.69 146.92 316.68 164.61 337.02 237.31L359.69 237.31 359.69 228.19Z" fill="#FFFFFF"/><rect x="339.7" y="225.21" width="19.99" height="1.85" fill="#DB1E3D"/><rect x="338.55" y="218.38" width="21.15" height="1.85" fill="#DB1E3D"/><rect x="337.62" y="211.54" width="22.08" height="1.85" fill="#DB1E3D"/><rect x="337.12" y="204.7" width="22.57" height="1.85" fill="#DB1E3D"/><rect x="337.06" y="197.87" width="22.63" height="1.85" fill="#DB1E3D"/><rect x="337.5" y="191.03" width="22.19" height="1.85" fill="#DB1E3D"/><rect x="338.5" y="184.2" width="21.2" height="1.85" fill="#DB1E3D"/><rect x="340.24" y="177.36" width="19.45" height="1.85" fill="#DB1E3D"/><rect x="342.77" y="170.52" width="16.92" height="1.85" fill="#DB1E3D"/><rect x="346.35" y="163.69" width="13.34" height="1.85" fill="#DB1E3D"/><g clip-path="url(#clippath-1)"><rect x="363.86" y="225.21" width="20.79" height="1.85" fill="#DB1E3D"/><rect x="363.86" y="218.38" width="20.79" height="1.85" fill="#DB1E3D"/><rect x="363.86" y="211.54" width="20.79" height="1.85" fill="#DB1E3D"/><rect x="363.86" y="204.7" width="20.79" height="1.85" fill="#DB1E3D"/><rect x="363.86" y="197.87" width="20.79" height="1.85" fill="#DB1E3D"/><rect x="363.86" y="191.03" width="20.79" height="1.85" fill="#DB1E3D"/><rect x="363.86" y="184.2" width="20.79" height="1.85" fill="#DB1E3D"/><rect x="363.86" y="177.36" width="19.53" height="1.85" fill="#DB1E3D"/><rect x="363.86" y="170.52" width="17.85" height="1.85" fill="#DB1E3D"/><rect x="363.86" y="163.69" width="15.55" height="1.85" fill="#DB1E3D"/></g><path d="M58.53 231.96 58.53 172.88 89.46 172.88 89.46 237.31 58.53 237.31 58.53 231.96Z" fill="#FFFFFF"/><rect x="58.53" y="172.88" width="30.93" height="5.3" fill="#F33357"/><rect x="63.17" y="185.33" width="5.25" height="7.87" fill="#F33357"/><rect x="71.37" y="185.33" width="5.25" height="7.87" fill="#F33357"/><rect x="79.58" y="185.33" width="5.25" height="7.87" fill="#F33357"/><rect x="63.17" y="201.05" width="5.25" height="7.87" fill="#F33357"/><rect x="71.37" y="201.05" width="5.25" height="7.87" fill="#F33357"/><rect x="79.58" y="201.05" width="5.25" height="7.87" fill="#F33357"/><rect x="63.17" y="216.77" width="5.25" height="7.87" fill="#F33357"/><rect x="71.37" y="216.77" width="5.25" height="7.87" fill="#F33357"/><rect x="79.58" y="216.77" width="5.25" height="7.87" fill="#F33357"/></g><rect x="38.83" y="154.54" width="16.5" height="18.75" fill="#2F2FBC"/><rect x="0" y="234.99" width="616.06" height="101.77" fill="#FFAEBF"/><g><g><g><rect x="5.82" y="241.22" width="11" height="1.94" fill="#FFFFFF"/><rect x="27.83" y="241.22" width="11" height="1.94" fill="#FFFFFF"/></g><g><rect x="49.83" y="241.22" width="11" height="1.94" fill="#FFFFFF"/><rect x="71.84" y="241.22" width="11" height="1.94" fill="#FFFFFF"/></g><g><rect x="93.84" y="241.22" width="11" height="1.94" fill="#FFFFFF"/><rect x="115.85" y="241.22" width="11" height="1.94" fill="#FFFFFF"/></g><g><rect x="137.86" y="241.22" width="11" height="1.94" fill="#FFFFFF"/><rect x="159.86" y="241.22" width="11" height="1.94" fill="#FFFFFF"/></g><g><rect x="181.87" y="241.22" width="11" height="1.94" fill="#FFFFFF"/><rect x="203.87" y="241.22" width="11" height="1.94" fill="#FFFFFF"/></g><g><rect x="225.88" y="241.22" width="11" height="1.94" fill="#FFFFFF"/><rect x="247.89" y="241.22" width="11" height="1.94" fill="#FFFFFF"/></g><g><rect x="269.89" y="241.22" width="11" height="1.94" fill="#FFFFFF"/><rect x="291.9" y="241.22" width="11" height="1.94" fill="#FFFFFF"/></g><g><rect x="313.9" y="241.22" width="11" height="1.94" fill="#FFFFFF"/><rect x="335.91" y="241.22" width="11" height="1.94" fill="#FFFFFF"/></g><g><g><rect x="357.91" y="241.22" width="11" height="1.94" fill="#FFFFFF"/><rect x="379.92" y="241.22" width="11" height="1.94" fill="#FFFFFF"/></g><g><rect x="401.93" y="241.22" width="11" height="1.94" fill="#FFFFFF"/><rect x="423.93" y="241.22" width="11" height="1.94" fill="#FFFFFF"/></g><g><rect x="445.94" y="241.22" width="11" height="1.94" fill="#FFFFFF"/><rect x="467.94" y="241.22" width="11" height="1.94" fill="#FFFFFF"/></g><rect x="489.95" y="241.22" width="11" height="1.94" fill="#FFFFFF"/></g></g><g><rect x="511.96" y="241.22" width="11" height="1.94" fill="#FFFFFF"/><g><rect x="533.96" y="241.22" width="11" height="1.94" fill="#FFFFFF"/><rect x="555.97" y="241.22" width="11" height="1.94" fill="#FFFFFF"/></g><g><rect x="577.97" y="241.22" width="11" height="1.94" fill="#FFFFFF"/><rect x="599.98" y="241.22" width="11" height="1.94" fill="#FFFFFF"/></g></g><g><g><rect x="16.82" y="250.92" width="11" height="1.94" fill="#FFFFFF"/><rect x="38.83" y="250.92" width="11" height="1.94" fill="#FFFFFF"/></g><g><rect x="60.84" y="250.92" width="11" height="1.94" fill="#FFFFFF"/><rect x="82.84" y="250.92" width="11" height="1.94" fill="#FFFFFF"/></g><g><rect x="104.85" y="250.92" width="11" height="1.94" fill="#FFFFFF"/><rect x="126.85" y="250.92" width="11" height="1.94" fill="#FFFFFF"/></g><g><rect x="148.86" y="250.92" width="11" height="1.94" fill="#FFFFFF"/><rect x="170.87" y="250.92" width="11" height="1.94" fill="#FFFFFF"/></g><g><rect x="192.87" y="250.92" width="11" height="1.94" fill="#FFFFFF"/><rect x="214.88" y="250.92" width="11" height="1.94" fill="#FFFFFF"/></g><g><rect x="236.88" y="250.92" width="11" height="1.94" fill="#FFFFFF"/><rect x="258.89" y="250.92" width="11" height="1.94" fill="#FFFFFF"/></g><g><rect x="280.89" y="250.92" width="11" height="1.94" fill="#FFFFFF"/><rect x="302.9" y="250.92" width="11" height="1.94" fill="#FFFFFF"/></g><g><rect x="324.91" y="250.92" width="11" height="1.94" fill="#FFFFFF"/><rect x="346.91" y="250.92" width="11" height="1.94" fill="#FFFFFF"/></g><g><g><rect x="368.92" y="250.92" width="11" height="1.94" fill="#FFFFFF"/><rect x="390.92" y="250.92" width="11" height="1.94" fill="#FFFFFF"/></g><g><rect x="412.93" y="250.92" width="11" height="1.94" fill="#FFFFFF"/><rect x="434.94" y="250.92" width="11" height="1.94" fill="#FFFFFF"/></g><g><rect x="456.94" y="250.92" width="11" height="1.94" fill="#FFFFFF"/><rect x="478.95" y="250.92" width="11" height="1.94" fill="#FFFFFF"/></g><rect x="500.95" y="250.92" width="11" height="1.94" fill="#FFFFFF"/></g></g><g><rect x="522.96" y="250.92" width="11" height="1.94" fill="#FFFFFF"/><g><rect x="544.96" y="250.92" width="11" height="1.94" fill="#FFFFFF"/><rect x="566.97" y="250.92" width="11" height="1.94" fill="#FFFFFF"/></g><g><rect x="588.98" y="250.92" width="11" height="1.94" fill="#FFFFFF"/><rect x="610.98" y="250.92" width="5.08" height="1.94" fill="#FFFFFF"/></g></g><g><g><rect x="5.82" y="260.62" width="11" height="1.94" fill="#FFFFFF"/><rect x="27.83" y="260.62" width="11" height="1.94" fill="#FFFFFF"/></g><g><rect x="49.83" y="260.62" width="11" height="1.94" fill="#FFFFFF"/><rect x="71.84" y="260.62" width="11" height="1.94" fill="#FFFFFF"/></g><g><rect x="93.84" y="260.62" width="11" height="1.94" fill="#FFFFFF"/><rect x="115.85" y="260.62" width="11" height="1.94" fill="#FFFFFF"/></g><g><rect x="137.86" y="260.62" width="11" height="1.94" fill="#FFFFFF"/><rect x="159.86" y="260.62" width="11" height="1.94" fill="#FFFFFF"/></g><g><rect x="181.87" y="260.62" width="11" height="1.94" fill="#FFFFFF"/><rect x="203.87" y="260.62" width="11" height="1.94" fill="#FFFFFF"/></g><rect x="225.88" y="260.62" width="11" height="1.94" fill="#FFFFFF"/><g><rect x="269.89" y="260.62" width="11" height="1.94" fill="#FFFFFF"/><rect x="291.9" y="260.62" width="11" height="1.94" fill="#FFFFFF"/></g><g><rect x="313.9" y="260.62" width="11" height="1.94" fill="#FFFFFF"/><rect x="335.91" y="260.62" width="11" height="1.94" fill="#FFFFFF"/></g><g><g><rect x="357.91" y="260.62" width="11" height="1.94" fill="#FFFFFF"/><rect x="379.92" y="260.62" width="11" height="1.94" fill="#FFFFFF"/></g><g><rect x="401.93" y="260.62" width="11" height="1.94" fill="#FFFFFF"/><rect x="423.93" y="260.62" width="11" height="1.94" fill="#FFFFFF"/></g><g><rect x="445.94" y="260.62" width="11" height="1.94" fill="#FFFFFF"/><rect x="467.94" y="260.62" width="11" height="1.94" fill="#FFFFFF"/></g><g><rect x="489.95" y="260.62" width="11" height="1.94" fill="#FFFFFF"/><rect x="511.96" y="260.62" width="11" height="1.94" fill="#FFFFFF"/></g></g></g><g><rect x="533.96" y="260.62" width="11" height="1.94" fill="#FFFFFF"/><g><rect x="555.97" y="260.62" width="11" height="1.94" fill="#FFFFFF"/><rect x="577.97" y="260.62" width="11" height="1.94" fill="#FFFFFF"/></g><rect x="599.98" y="260.62" width="11" height="1.94" fill="#FFFFFF"/></g><g><g><rect x="16.82" y="270.33" width="11" height="1.94" fill="#FFFFFF"/><rect x="38.83" y="270.33" width="11" height="1.94" fill="#FFFFFF"/></g><g><rect x="60.84" y="270.33" width="11" height="1.94" fill="#FFFFFF"/><rect x="82.84" y="270.33" width="11" height="1.94" fill="#FFFFFF"/></g><g><rect x="104.85" y="270.33" width="11" height="1.94" fill="#FFFFFF"/><rect x="126.85" y="270.33" width="11" height="1.94" fill="#FFFFFF"/></g><g><rect x="148.86" y="270.33" width="11" height="1.94" fill="#FFFFFF"/><rect x="170.87" y="270.33" width="11" height="1.94" fill="#FFFFFF"/></g><g><rect x="192.87" y="270.33" width="11" height="1.94" fill="#FFFFFF"/><rect x="214.88" y="270.33" width="11" height="1.94" fill="#FFFFFF"/></g><g><rect x="236.88" y="270.33" width="11" height="1.94" fill="#FFFFFF"/><rect x="258.89" y="270.33" width="11" height="1.94" fill="#FFFFFF"/></g><rect x="302.9" y="270.33" width="11" height="1.94" fill="#FFFFFF"/><g><rect x="324.91" y="270.33" width="11" height="1.94" fill="#FFFFFF"/><rect x="346.91" y="270.33" width="11" height="1.94" fill="#FFFFFF"/></g><g><g><rect x="368.92" y="270.33" width="11" height="1.94" fill="#FFFFFF"/><rect x="390.92" y="270.33" width="11" height="1.94" fill="#FFFFFF"/></g><g><rect x="412.93" y="270.33" width="11" height="1.94" fill="#FFFFFF"/><rect x="434.94" y="270.33" width="11" height="1.94" fill="#FFFFFF"/></g><g><rect x="456.94" y="270.33" width="11" height="1.94" fill="#FFFFFF"/><rect x="478.95" y="270.33" width="11" height="1.94" fill="#FFFFFF"/></g><rect x="500.95" y="270.33" width="11" height="1.94" fill="#FFFFFF"/></g></g><g><rect x="522.96" y="270.33" width="11" height="1.94" fill="#FFFFFF"/><g><rect x="544.96" y="270.33" width="11" height="1.94" fill="#FFFFFF"/><rect x="566.97" y="270.33" width="11" height="1.94" fill="#FFFFFF"/></g><g><rect x="588.98" y="270.33" width="11" height="1.94" fill="#FFFFFF"/><rect x="610.98" y="270.33" width="5.08" height="1.94" fill="#FFFFFF"/></g></g><g><g><rect x="5.82" y="280.03" width="11" height="1.94" fill="#FFFFFF"/><rect x="27.83" y="280.03" width="11" height="1.94" fill="#FFFFFF"/></g><g><rect x="49.83" y="280.03" width="11" height="1.94" fill="#FFFFFF"/><rect x="71.84" y="280.03" width="11" height="1.94" fill="#FFFFFF"/></g><g><rect x="93.84" y="280.03" width="11" height="1.94" fill="#FFFFFF"/><rect x="115.85" y="280.03" width="11" height="1.94" fill="#FFFFFF"/></g><g><rect x="137.86" y="280.03" width="11" height="1.94" fill="#FFFFFF"/><rect x="159.86" y="280.03" width="11" height="1.94" fill="#FFFFFF"/></g><g><rect x="181.87" y="280.03" width="11" height="1.94" fill="#FFFFFF"/><rect x="203.87" y="280.03" width="11" height="1.94" fill="#FFFFFF"/></g><g><rect x="225.88" y="280.03" width="11" height="1.94" fill="#FFFFFF"/><rect x="247.89" y="280.03" width="11" height="1.94" fill="#FFFFFF"/></g><g><rect x="269.89" y="280.03" width="11" height="1.94" fill="#FFFFFF"/><rect x="291.9" y="280.03" width="11" height="1.94" fill="#FFFFFF"/></g><rect x="313.9" y="280.03" width="11" height="1.94" fill="#FFFFFF"/><g><g><rect x="357.91" y="280.03" width="11" height="1.94" fill="#FFFFFF"/><rect x="379.92" y="280.03" width="11" height="1.94" fill="#FFFFFF"/></g><g><rect x="401.93" y="280.03" width="11" height="1.94" fill="#FFFFFF"/><rect x="423.93" y="280.03" width="11" height="1.94" fill="#FFFFFF"/></g><g><rect x="445.94" y="280.03" width="11" height="1.94" fill="#FFFFFF"/><rect x="467.94" y="280.03" width="11" height="1.94" fill="#FFFFFF"/></g><rect x="489.95" y="280.03" width="11" height="1.94" fill="#FFFFFF"/></g></g><g><g><rect x="511.96" y="280.03" width="11" height="1.94" fill="#FFFFFF"/><rect x="533.96" y="280.03" width="11" height="1.94" fill="#FFFFFF"/></g><g><rect x="555.97" y="280.03" width="11" height="1.94" fill="#FFFFFF"/><rect x="577.97" y="280.03" width="11" height="1.94" fill="#FFFFFF"/></g><rect x="599.98" y="280.03" width="11" height="1.94" fill="#FFFFFF"/></g><g><g><rect x="16.82" y="289.73" width="11" height="1.94" fill="#FFFFFF"/><rect x="38.83" y="289.73" width="11" height="1.94" fill="#FFFFFF"/></g><g><rect x="60.84" y="289.73" width="11" height="1.94" fill="#FFFFFF"/><rect x="82.84" y="289.73" width="11" height="1.94" fill="#FFFFFF"/></g><g><rect x="104.85" y="289.73" width="11" height="1.94" fill="#FFFFFF"/><rect x="126.85" y="289.73" width="11" height="1.94" fill="#FFFFFF"/></g><g><rect x="148.86" y="289.73" width="11" height="1.94" fill="#FFFFFF"/><rect x="170.87" y="289.73" width="11" height="1.94" fill="#FFFFFF"/></g><g><rect x="192.87" y="289.73" width="11" height="1.94" fill="#FFFFFF"/><rect x="214.88" y="289.73" width="11" height="1.94" fill="#FFFFFF"/></g><g><rect x="236.88" y="289.73" width="11" height="1.94" fill="#FFFFFF"/><rect x="258.89" y="289.73" width="11" height="1.94" fill="#FFFFFF"/></g><g><rect x="280.89" y="289.73" width="11" height="1.94" fill="#FFFFFF"/><rect x="302.9" y="289.73" width="11" height="1.94" fill="#FFFFFF"/></g><g><rect x="324.91" y="289.73" width="11" height="1.94" fill="#FFFFFF"/><rect x="346.91" y="289.73" width="11" height="1.94" fill="#FFFFFF"/></g><g><g><rect x="368.92" y="289.73" width="11" height="1.94" fill="#FFFFFF"/><rect x="390.92" y="289.73" width="11" height="1.94" fill="#FFFFFF"/></g><g><rect x="412.93" y="289.73" width="11" height="1.94" fill="#FFFFFF"/><rect x="434.94" y="289.73" width="11" height="1.94" fill="#FFFFFF"/></g><g><rect x="456.94" y="289.73" width="11" height="1.94" fill="#FFFFFF"/><rect x="478.95" y="289.73" width="11" height="1.94" fill="#FFFFFF"/></g></g></g><g><rect x="500.95" y="289.73" width="11" height="1.94" fill="#FFFFFF"/><g><rect x="522.96" y="289.73" width="11" height="1.94" fill="#FFFFFF"/><rect x="544.96" y="289.73" width="11" height="1.94" fill="#FFFFFF"/></g><g><rect x="566.97" y="289.73" width="11" height="1.94" fill="#FFFFFF"/><rect x="588.98" y="289.73" width="11" height="1.94" fill="#FFFFFF"/></g><rect x="610.98" y="289.73" width="5.07" height="1.94" fill="#FFFFFF"/></g><g><g><rect x="5.82" y="299.43" width="11" height="1.94" fill="#FFFFFF"/><rect x="27.83" y="299.43" width="11" height="1.94" fill="#FFFFFF"/></g><g><rect x="49.83" y="299.43" width="11" height="1.94" fill="#FFFFFF"/><rect x="71.84" y="299.43" width="11" height="1.94" fill="#FFFFFF"/></g><g><rect x="93.84" y="299.43" width="11" height="1.94" fill="#FFFFFF"/><rect x="115.85" y="299.43" width="11" height="1.94" fill="#FFFFFF"/></g><g><rect x="137.86" y="299.43" width="11" height="1.94" fill="#FFFFFF"/><rect x="159.86" y="299.43" width="11" height="1.94" fill="#FFFFFF"/></g><g><rect x="181.87" y="299.43" width="11" height="1.94" fill="#FFFFFF"/><rect x="203.87" y="299.43" width="11" height="1.94" fill="#FFFFFF"/></g><g><rect x="225.88" y="299.43" width="11" height="1.94" fill="#FFFFFF"/><rect x="247.89" y="299.43" width="11" height="1.94" fill="#FFFFFF"/></g><g><rect x="269.89" y="299.43" width="11" height="1.94" fill="#FFFFFF"/><rect x="291.9" y="299.43" width="11" height="1.94" fill="#FFFFFF"/></g><g><rect x="313.9" y="299.43" width="11" height="1.94" fill="#FFFFFF"/><rect x="335.91" y="299.43" width="11" height="1.94" fill="#FFFFFF"/></g><g><g><rect x="357.91" y="299.43" width="11" height="1.94" fill="#FFFFFF"/><rect x="379.92" y="299.43" width="11" height="1.94" fill="#FFFFFF"/></g><g><rect x="401.93" y="299.43" width="11" height="1.94" fill="#FFFFFF"/><rect x="423.93" y="299.43" width="11" height="1.94" fill="#FFFFFF"/></g><g><rect x="445.94" y="299.43" width="11" height="1.94" fill="#FFFFFF"/><rect x="467.94" y="299.43" width="11" height="1.94" fill="#FFFFFF"/></g></g></g><g><rect x="489.95" y="299.43" width="11" height="1.94" fill="#FFFFFF"/><g><rect x="511.95" y="299.43" width="11" height="1.94" fill="#FFFFFF"/><rect x="533.96" y="299.43" width="11" height="1.94" fill="#FFFFFF"/></g><g><rect x="555.96" y="299.43" width="11" height="1.94" fill="#FFFFFF"/><rect x="577.97" y="299.43" width="11" height="1.94" fill="#FFFFFF"/></g><rect x="599.98" y="299.43" width="11" height="1.94" fill="#FFFFFF"/></g><g><g><rect x="16.82" y="309.14" width="11" height="1.94" fill="#FFFFFF"/><rect x="38.83" y="309.14" width="11" height="1.94" fill="#FFFFFF"/></g><g><rect x="60.84" y="309.14" width="11" height="1.94" fill="#FFFFFF"/><rect x="82.84" y="309.14" width="11" height="1.94" fill="#FFFFFF"/></g><g><rect x="104.85" y="309.14" width="11" height="1.94" fill="#FFFFFF"/><rect x="126.85" y="309.14" width="11" height="1.94" fill="#FFFFFF"/></g><g><rect x="148.86" y="309.14" width="11" height="1.94" fill="#FFFFFF"/><rect x="170.87" y="309.14" width="11" height="1.94" fill="#FFFFFF"/></g><g><rect x="192.87" y="309.14" width="11" height="1.94" fill="#FFFFFF"/><rect x="214.88" y="309.14" width="11" height="1.94" fill="#FFFFFF"/></g><g><rect x="236.88" y="309.14" width="11" height="1.94" fill="#FFFFFF"/><rect x="258.89" y="309.14" width="11" height="1.94" fill="#FFFFFF"/></g><g><rect x="280.89" y="309.14" width="11" height="1.94" fill="#FFFFFF"/><rect x="302.9" y="309.14" width="11" height="1.94" fill="#FFFFFF"/></g><g><rect x="324.91" y="309.14" width="11" height="1.94" fill="#FFFFFF"/><rect x="346.91" y="309.14" width="11" height="1.94" fill="#FFFFFF"/></g><g><g><rect x="368.92" y="309.14" width="11" height="1.94" fill="#FFFFFF"/><rect x="390.92" y="309.14" width="11" height="1.94" fill="#FFFFFF"/></g><g><rect x="412.93" y="309.14" width="11" height="1.94" fill="#FFFFFF"/><rect x="434.94" y="309.14" width="11" height="1.94" fill="#FFFFFF"/></g><rect x="456.94" y="309.14" width="11" height="1.94" fill="#FFFFFF"/></g></g><g><rect x="478.94" y="309.14" width="11" height="1.94" fill="#FFFFFF"/><g><rect x="500.95" y="309.14" width="11" height="1.94" fill="#FFFFFF"/><rect x="522.96" y="309.14" width="11" height="1.94" fill="#FFFFFF"/></g><g><rect x="544.96" y="309.14" width="11" height="1.94" fill="#FFFFFF"/><rect x="566.97" y="309.14" width="11" height="1.94" fill="#FFFFFF"/></g><g><rect x="588.97" y="309.14" width="11" height="1.94" fill="#FFFFFF"/><rect x="610.98" y="309.14" width="5.07" height="1.94" fill="#FFFFFF"/></g></g></g><g clip-path="url(#clippath-2)"><g><g><path d="M435.71 279.57C435.71 260.74 420.45 245.48 401.62 245.48 382.79 245.48 367.53 260.74 367.53 279.57 367.53 298.4 382.79 313.66 401.62 313.66 420.45 313.66 435.71 298.4 435.71 279.57Z" fill="#1D1D6B"/><path d="M401.62 314.63C382.29 314.63 366.56 298.9 366.56 279.57 366.56 260.24 382.29 244.51 401.62 244.51 420.95 244.51 436.68 260.24 436.68 279.57 436.68 298.9 420.95 314.63 401.62 314.63ZM401.62 246.45C383.36 246.45 368.5 261.31 368.5 279.57 368.5 297.83 383.36 312.69 401.62 312.69 419.88 312.69 434.74 297.83 434.74 279.57 434.74 261.31 419.88 246.45 401.62 246.45Z" fill="#3939D8"/></g><g><path d="M367.52 279.57C367.52 260.74 352.26 245.48 333.43 245.48 314.6 245.48 299.34 260.74 299.34 279.57 299.34 298.4 314.6 313.66 333.43 313.66 352.26 313.66 367.52 298.4 367.52 279.57Z" fill="#1D1D6B"/><path d="M333.43 314.63C314.1 314.63 298.37 298.9 298.37 279.57 298.37 260.24 314.1 244.51 333.43 244.51 352.76 244.51 368.49 260.24 368.49 279.57 368.49 298.9 352.76 314.63 333.43 314.63ZM333.43 246.45C315.17 246.45 300.31 261.31 300.31 279.57 300.31 297.83 315.17 312.69 333.43 312.69 351.69 312.69 366.55 297.83 366.55 279.57 366.55 261.31 351.69 246.45 333.43 246.45Z" fill="#3939D8"/></g><g><path d="M504.01 279.57C504.01 260.74 488.75 245.48 469.92 245.48 451.09 245.48 435.83 260.74 435.83 279.57 435.83 298.4 451.09 313.66 469.92 313.66 488.75 313.66 504.01 298.4 504.01 279.57Z" fill="#1D1D6B"/><path d="M469.92 314.63C450.59 314.63 434.86 298.9 434.86 279.57 434.86 260.24 450.59 244.51 469.92 244.51 489.25 244.51 504.98 260.24 504.98 279.57 504.98 298.9 489.25 314.63 469.92 314.63ZM469.92 246.45C451.66 246.45 436.8 261.31 436.8 279.57 436.8 297.83 451.66 312.69 469.92 312.69 488.18 312.69 503.04 297.83 503.04 279.57 503.04 261.31 488.18 246.45 469.92 246.45Z" fill="#3939D8"/></g><g><path d="M572.19 279.57C572.19 260.74 556.93 245.48 538.1 245.48 519.27 245.48 504.01 260.74 504.01 279.57 504.01 298.4 519.27 313.66 538.1 313.66 556.93 313.66 572.19 298.4 572.19 279.57Z" fill="#1D1D6B"/><path d="M538.1 314.63C518.77 314.63 503.04 298.9 503.04 279.57 503.04 260.24 518.77 244.51 538.1 244.51 557.43 244.51 573.16 260.24 573.16 279.57 573.16 298.9 557.43 314.63 538.1 314.63ZM538.1 246.45C519.84 246.45 504.98 261.31 504.98 279.57 504.98 297.83 519.84 312.69 538.1 312.69 556.36 312.69 571.22 297.83 571.22 279.57 571.22 261.31 556.36 246.45 538.1 246.45Z" fill="#3939D8"/></g></g><g><path d="M640.12 279.57C640.12 260.74 624.86 245.48 606.03 245.48 587.2 245.48 571.94 260.74 571.94 279.57 571.94 298.4 587.2 313.66 606.03 313.66 624.86 313.66 640.12 298.4 640.12 279.57Z" fill="#1D1D6B"/><path d="M606.03 314.63C586.7 314.63 570.97 298.9 570.97 279.57 570.97 260.24 586.7 244.51 606.03 244.51 625.36 244.51 641.09 260.24 641.09 279.57 641.09 298.9 625.36 314.63 606.03 314.63ZM606.03 246.45C587.77 246.45 572.91 261.31 572.91 279.57 572.91 297.83 587.77 312.69 606.03 312.69 624.29 312.69 639.15 297.83 639.15 279.57 639.15 261.31 624.29 246.45 606.03 246.45Z" fill="#3939D8"/></g><g><g><path d="M606.03 296.69C606.03 277.86 590.77 262.6 571.94 262.6 553.11 262.6 537.85 277.86 537.85 296.69 537.85 315.52 553.11 330.78 571.94 330.78 590.77 330.78 606.03 315.52 606.03 296.69Z" fill="#1D1D6B"/><path d="M571.94 331.75C552.61 331.75 536.88 316.02 536.88 296.69 536.88 277.36 552.61 261.63 571.94 261.63 591.27 261.63 607 277.36 607 296.69 607 316.02 591.27 331.75 571.94 331.75ZM571.94 263.57C553.68 263.57 538.82 278.43 538.82 296.69 538.82 314.95 553.68 329.81 571.94 329.81 590.2 329.81 605.06 314.95 605.06 296.69 605.06 278.43 590.2 263.57 571.94 263.57Z" fill="#3939D8"/></g><g><path d="M674.33 296.69C674.33 277.86 659.07 262.6 640.24 262.6 621.41 262.6 606.15 277.86 606.15 296.69 606.15 315.52 621.41 330.78 640.24 330.78 659.07 330.78 674.33 315.52 674.33 296.69Z" fill="#1D1D6B"/><path d="M640.24 331.75C620.91 331.75 605.18 316.02 605.18 296.69 605.18 277.36 620.91 261.63 640.24 261.63 659.57 261.63 675.3 277.36 675.3 296.69 675.3 316.02 659.57 331.75 640.24 331.75ZM640.24 263.57C621.98 263.57 607.12 278.43 607.12 296.69 607.12 314.95 621.98 329.81 640.24 329.81 658.5 329.81 673.36 314.95 673.36 296.69 673.36 278.43 658.5 263.57 640.24 263.57Z" fill="#3939D8"/></g></g><g><g><path d="M94.68 279.57C94.68 260.74 79.42 245.48 60.59 245.48 41.76 245.48 26.5 260.74 26.5 279.57 26.5 298.4 41.76 313.66 60.59 313.66 79.42 313.66 94.68 298.4 94.68 279.57Z" fill="#1D1D6B"/><path d="M60.58 314.63C41.25 314.63 25.52 298.9 25.52 279.57 25.52 260.24 41.25 244.51 60.58 244.51 79.91 244.51 95.64 260.24 95.64 279.57 95.64 298.9 79.91 314.63 60.58 314.63ZM60.58 246.45C42.32 246.45 27.46 261.31 27.46 279.57 27.46 297.83 42.32 312.69 60.58 312.69 78.84 312.69 93.7 297.83 93.7 279.57 93.7 261.31 78.84 246.45 60.58 246.45Z" fill="#3939D8"/></g><g><path d="M26.49 279.57C26.49 260.74 11.23 245.48-7.6 245.48-26.43 245.48-41.69 260.74-41.69 279.57-41.69 298.4-26.43 313.66-7.6 313.66 11.23 313.66 26.49 298.4 26.49 279.57Z" fill="#1D1D6B"/><path d="M-7.6 314.63C-26.93 314.63-42.66 298.9-42.66 279.57-42.66 260.24-26.93 244.51-7.6 244.51 11.73 244.51 27.46 260.24 27.46 279.57 27.46 298.9 11.73 314.63-7.6 314.63ZM-7.6 246.45C-25.86 246.45-40.72 261.31-40.72 279.57-40.72 297.83-25.86 312.69-7.6 312.69 10.66 312.69 25.52 297.83 25.52 279.57 25.52 261.31 10.66 246.45-7.6 246.45Z" fill="#3939D8"/></g><g><path d="M162.98 279.57C162.98 260.74 147.72 245.48 128.89 245.48 110.06 245.48 94.8 260.74 94.8 279.57 94.8 298.4 110.06 313.66 128.89 313.66 147.72 313.66 162.98 298.4 162.98 279.57Z" fill="#1D1D6B"/><path d="M128.88 314.63C109.55 314.63 93.82 298.9 93.82 279.57 93.82 260.24 109.55 244.51 128.88 244.51 148.21 244.51 163.94 260.24 163.94 279.57 163.94 298.9 148.21 314.63 128.88 314.63ZM128.88 246.45C110.62 246.45 95.76 261.31 95.76 279.57 95.76 297.83 110.62 312.69 128.88 312.69 147.14 312.69 162 297.83 162 279.57 162 261.31 147.14 246.45 128.88 246.45Z" fill="#3939D8"/></g><g><path d="M231.16 279.57C231.16 260.74 215.9 245.48 197.07 245.48 178.24 245.48 162.98 260.74 162.98 279.57 162.98 298.4 178.24 313.66 197.07 313.66 215.9 313.66 231.16 298.4 231.16 279.57Z" fill="#1D1D6B"/><path d="M197.07 314.63C177.74 314.63 162.01 298.9 162.01 279.57 162.01 260.24 177.74 244.51 197.07 244.51 216.4 244.51 232.13 260.24 232.13 279.57 232.13 298.9 216.4 314.63 197.07 314.63ZM197.07 246.45C178.81 246.45 163.95 261.31 163.95 279.57 163.95 297.83 178.81 312.69 197.07 312.69 215.33 312.69 230.19 297.83 230.19 279.57 230.19 261.31 215.33 246.45 197.07 246.45Z" fill="#3939D8"/></g><g><path d="M299.34 279.57C299.34 260.74 284.08 245.48 265.25 245.48 246.42 245.48 231.16 260.74 231.16 279.57 231.16 298.4 246.42 313.66 265.25 313.66 284.08 313.66 299.34 298.4 299.34 279.57Z" fill="#1D1D6B"/><path d="M265.25 314.63C245.92 314.63 230.19 298.9 230.19 279.57 230.19 260.24 245.92 244.51 265.25 244.51 284.58 244.51 300.31 260.24 300.31 279.57 300.31 298.9 284.58 314.63 265.25 314.63ZM265.25 246.45C246.99 246.45 232.13 261.31 232.13 279.57 232.13 297.83 246.99 312.69 265.25 312.69 283.51 312.69 298.37 297.83 298.37 279.57 298.37 261.31 283.51 246.45 265.25 246.45Z" fill="#3939D8"/></g></g><g><g><path d="M60.58 296.69C60.58 277.86 45.32 262.6 26.49 262.6 7.66 262.6-7.6 277.86-7.6 296.69-7.6 315.52 7.66 330.78 26.49 330.78 45.32 330.78 60.58 315.52 60.58 296.69Z" fill="#1D1D6B"/><path d="M26.49 331.75C7.16 331.75-8.57 316.02-8.57 296.69-8.57 277.36 7.16 261.63 26.49 261.63 45.82 261.63 61.55 277.36 61.55 296.69 61.55 316.02 45.82 331.75 26.49 331.75ZM26.49 263.57C8.23 263.57-6.63 278.43-6.63 296.69-6.63 314.95 8.23 329.81 26.49 329.81 44.75 329.81 59.61 314.95 59.61 296.69 59.61 278.43 44.75 263.57 26.49 263.57Z" fill="#3939D8"/></g><g><path d="M128.89 296.69C128.89 277.86 113.63 262.6 94.8 262.6 75.97 262.6 60.71 277.86 60.71 296.69 60.71 315.52 75.97 330.78 94.8 330.78 113.63 330.78 128.89 315.52 128.89 296.69Z" fill="#1D1D6B"/><path d="M94.79 331.75C75.46 331.75 59.73 316.02 59.73 296.69 59.73 277.36 75.46 261.63 94.79 261.63 114.12 261.63 129.85 277.36 129.85 296.69 129.85 316.02 114.12 331.75 94.79 331.75ZM94.79 263.57C76.53 263.57 61.67 278.43 61.67 296.69 61.67 314.95 76.53 329.81 94.79 329.81 113.05 329.81 127.91 314.95 127.91 296.69 127.91 278.43 113.05 263.57 94.79 263.57Z" fill="#3939D8"/></g><g><path d="M197.07 296.69C197.07 277.86 181.81 262.6 162.98 262.6 144.15 262.6 128.89 277.86 128.89 296.69 128.89 315.52 144.15 330.78 162.98 330.78 181.81 330.78 197.07 315.52 197.07 296.69Z" fill="#1D1D6B"/><path d="M162.98 331.75C143.65 331.75 127.92 316.02 127.92 296.69 127.92 277.36 143.65 261.63 162.98 261.63 182.31 261.63 198.04 277.36 198.04 296.69 198.04 316.02 182.31 331.75 162.98 331.75ZM162.98 263.57C144.72 263.57 129.86 278.43 129.86 296.69 129.86 314.95 144.72 329.81 162.98 329.81 181.24 329.81 196.1 314.95 196.1 296.69 196.1 278.43 181.24 263.57 162.98 263.57Z" fill="#3939D8"/></g><g><path d="M265.25 296.69C265.25 277.86 249.99 262.6 231.16 262.6 212.33 262.6 197.07 277.86 197.07 296.69 197.07 315.52 212.33 330.78 231.16 330.78 249.99 330.78 265.25 315.52 265.25 296.69Z" fill="#1D1D6B"/><path d="M231.16 331.75C211.83 331.75 196.1 316.02 196.1 296.69 196.1 277.36 211.83 261.63 231.16 261.63 250.49 261.63 266.22 277.36 266.22 296.69 266.22 316.02 250.49 331.75 231.16 331.75ZM231.16 263.57C212.9 263.57 198.04 278.43 198.04 296.69 198.04 314.95 212.9 329.81 231.16 329.81 249.42 329.81 264.28 314.95 264.28 296.69 264.28 278.43 249.42 263.57 231.16 263.57Z" fill="#3939D8"/></g></g><g><g><path d="M333.73 296.69C333.73 277.86 318.47 262.6 299.64 262.6 280.81 262.6 265.55 277.86 265.55 296.69 265.55 315.52 280.81 330.78 299.64 330.78 318.47 330.78 333.73 315.52 333.73 296.69Z" fill="#1D1D6B"/><path d="M299.64 331.75C280.31 331.75 264.58 316.02 264.58 296.69 264.58 277.36 280.31 261.63 299.64 261.63 318.97 261.63 334.7 277.36 334.7 296.69 334.7 316.02 318.97 331.75 299.64 331.75ZM299.64 263.57C281.38 263.57 266.52 278.43 266.52 296.69 266.52 314.95 281.38 329.81 299.64 329.81 317.9 329.81 332.76 314.95 332.76 296.69 332.76 278.43 317.9 263.57 299.64 263.57Z" fill="#3939D8"/></g><g><path d="M402.03 296.69C402.03 277.86 386.77 262.6 367.94 262.6 349.11 262.6 333.85 277.86 333.85 296.69 333.85 315.52 349.11 330.78 367.94 330.78 386.77 330.78 402.03 315.52 402.03 296.69Z" fill="#1D1D6B"/><path d="M367.94 331.75C348.61 331.75 332.88 316.02 332.88 296.69 332.88 277.36 348.61 261.63 367.94 261.63 387.27 261.63 403 277.36 403 296.69 403 316.02 387.27 331.75 367.94 331.75ZM367.94 263.57C349.68 263.57 334.82 278.43 334.82 296.69 334.82 314.95 349.68 329.81 367.94 329.81 386.2 329.81 401.06 314.95 401.06 296.69 401.06 278.43 386.2 263.57 367.94 263.57Z" fill="#3939D8"/></g><g><path d="M470.21 296.69C470.21 277.86 454.95 262.6 436.12 262.6 417.29 262.6 402.03 277.86 402.03 296.69 402.03 315.52 417.29 330.78 436.12 330.78 454.95 330.78 470.21 315.52 470.21 296.69Z" fill="#1D1D6B"/><path d="M436.12 331.75C416.79 331.75 401.06 316.02 401.06 296.69 401.06 277.36 416.79 261.63 436.12 261.63 455.45 261.63 471.18 277.36 471.18 296.69 471.18 316.02 455.45 331.75 436.12 331.75ZM436.12 263.57C417.86 263.57 403 278.43 403 296.69 403 314.95 417.86 329.81 436.12 329.81 454.38 329.81 469.24 314.95 469.24 296.69 469.24 278.43 454.38 263.57 436.12 263.57Z" fill="#3939D8"/></g><g><path d="M538.4 296.69C538.4 277.86 523.14 262.6 504.31 262.6 485.48 262.6 470.22 277.86 470.22 296.69 470.22 315.52 485.48 330.78 504.31 330.78 523.14 330.78 538.4 315.52 538.4 296.69Z" fill="#1D1D6B"/><path d="M504.3 331.75C484.97 331.75 469.24 316.02 469.24 296.69 469.24 277.36 484.97 261.63 504.3 261.63 523.63 261.63 539.36 277.36 539.36 296.69 539.36 316.02 523.63 331.75 504.3 331.75ZM504.3 263.57C486.04 263.57 471.18 278.43 471.18 296.69 471.18 314.95 486.04 329.81 504.3 329.81 522.56 329.81 537.42 314.95 537.42 296.69 537.42 278.43 522.56 263.57 504.3 263.57Z" fill="#3939D8"/></g></g><g><g><path d="M94.68 313.81C94.68 294.98 79.42 279.72 60.59 279.72 41.76 279.72 26.5 294.98 26.5 313.81 26.5 332.64 41.76 347.9 60.59 347.9 79.42 347.9 94.68 332.64 94.68 313.81Z" fill="#1D1D6B"/><path d="M60.58 348.88C41.25 348.88 25.52 333.15 25.52 313.82 25.52 294.49 41.25 278.76 60.58 278.76 79.91 278.76 95.64 294.49 95.64 313.82 95.64 333.15 79.91 348.88 60.58 348.88ZM60.58 280.69C42.32 280.69 27.46 295.55 27.46 313.81 27.46 332.07 42.32 346.93 60.58 346.93 78.84 346.93 93.7 332.07 93.7 313.81 93.7 295.55 78.84 280.69 60.58 280.69Z" fill="#3939D8"/></g><g><path d="M26.49 313.81C26.49 294.98 11.23 279.72-7.6 279.72-26.43 279.72-41.69 294.98-41.69 313.81-41.69 332.64-26.43 347.9-7.6 347.9 11.23 347.9 26.49 332.64 26.49 313.81Z" fill="#1D1D6B"/><path d="M-7.6 348.88C-26.93 348.88-42.66 333.15-42.66 313.82-42.66 294.49-26.93 278.76-7.6 278.76 11.73 278.76 27.46 294.49 27.46 313.82 27.46 333.15 11.73 348.88-7.6 348.88ZM-7.6 280.69C-25.86 280.69-40.72 295.55-40.72 313.81-40.72 332.07-25.86 346.93-7.6 346.93 10.66 346.93 25.52 332.07 25.52 313.81 25.52 295.55 10.66 280.69-7.6 280.69Z" fill="#3939D8"/></g><g><path d="M162.98 313.81C162.98 294.98 147.72 279.72 128.89 279.72 110.06 279.72 94.8 294.98 94.8 313.81 94.8 332.64 110.06 347.9 128.89 347.9 147.72 347.9 162.98 332.64 162.98 313.81Z" fill="#1D1D6B"/><path d="M128.88 348.88C109.55 348.88 93.82 333.15 93.82 313.82 93.82 294.49 109.55 278.76 128.88 278.76 148.21 278.76 163.94 294.49 163.94 313.82 163.94 333.15 148.21 348.88 128.88 348.88ZM128.88 280.69C110.62 280.69 95.76 295.55 95.76 313.81 95.76 332.07 110.62 346.93 128.88 346.93 147.14 346.93 162 332.07 162 313.81 162 295.55 147.14 280.69 128.88 280.69Z" fill="#3939D8"/></g><g><path d="M231.16 313.81C231.16 294.98 215.9 279.72 197.07 279.72 178.24 279.72 162.98 294.98 162.98 313.81 162.98 332.64 178.24 347.9 197.07 347.9 215.9 347.9 231.16 332.64 231.16 313.81Z" fill="#1D1D6B"/><path d="M197.07 348.88C177.74 348.88 162.01 333.15 162.01 313.82 162.01 294.49 177.74 278.76 197.07 278.76 216.4 278.76 232.13 294.49 232.13 313.82 232.13 333.15 216.4 348.88 197.07 348.88ZM197.07 280.69C178.81 280.69 163.95 295.55 163.95 313.81 163.95 332.07 178.81 346.93 197.07 346.93 215.33 346.93 230.19 332.07 230.19 313.81 230.19 295.55 215.33 280.69 197.07 280.69Z" fill="#3939D8"/></g><g><path d="M299.34 313.81C299.34 294.98 284.08 279.72 265.25 279.72 246.42 279.72 231.16 294.98 231.16 313.81 231.16 332.64 246.42 347.9 265.25 347.9 284.08 347.9 299.34 332.64 299.34 313.81Z" fill="#1D1D6B"/><path d="M265.25 348.88C245.92 348.88 230.19 333.15 230.19 313.82 230.19 294.49 245.92 278.76 265.25 278.76 284.58 278.76 300.31 294.49 300.31 313.82 300.31 333.15 284.58 348.88 265.25 348.88ZM265.25 280.69C246.99 280.69 232.13 295.55 232.13 313.81 232.13 332.07 246.99 346.93 265.25 346.93 283.51 346.93 298.37 332.07 298.37 313.81 298.37 295.55 283.51 280.69 265.25 280.69Z" fill="#3939D8"/></g></g><g><g><path d="M436 313.81C436 294.98 420.74 279.72 401.91 279.72 383.08 279.72 367.82 294.98 367.82 313.81 367.82 332.64 383.08 347.9 401.91 347.9 420.74 347.9 436 332.64 436 313.81Z" fill="#1D1D6B"/><path d="M401.91 348.88C382.58 348.88 366.85 333.15 366.85 313.82 366.85 294.49 382.58 278.76 401.91 278.76 421.24 278.76 436.97 294.49 436.97 313.82 436.97 333.15 421.24 348.88 401.91 348.88ZM401.91 280.69C383.65 280.69 368.79 295.55 368.79 313.81 368.79 332.07 383.65 346.93 401.91 346.93 420.17 346.93 435.03 332.07 435.03 313.81 435.03 295.55 420.17 280.69 401.91 280.69Z" fill="#3939D8"/></g><g><path d="M367.82 313.81C367.82 294.98 352.56 279.72 333.73 279.72 314.9 279.72 299.64 294.98 299.64 313.81 299.64 332.64 314.9 347.9 333.73 347.9 352.56 347.9 367.82 332.64 367.82 313.81Z" fill="#1D1D6B"/><path d="M333.73 348.88C314.4 348.88 298.67 333.15 298.67 313.82 298.67 294.49 314.4 278.76 333.73 278.76 353.06 278.76 368.79 294.49 368.79 313.82 368.79 333.15 353.06 348.88 333.73 348.88ZM333.73 280.69C315.47 280.69 300.61 295.55 300.61 313.81 300.61 332.07 315.47 346.93 333.73 346.93 351.99 346.93 366.85 332.07 366.85 313.81 366.85 295.55 351.99 280.69 333.73 280.69Z" fill="#3939D8"/></g><g><path d="M504.31 313.81C504.31 294.98 489.05 279.72 470.22 279.72 451.39 279.72 436.13 294.98 436.13 313.81 436.13 332.64 451.39 347.9 470.22 347.9 489.05 347.9 504.31 332.64 504.31 313.81Z" fill="#1D1D6B"/><path d="M470.21 348.88C450.88 348.88 435.15 333.15 435.15 313.82 435.15 294.49 450.88 278.76 470.21 278.76 489.54 278.76 505.27 294.49 505.27 313.82 505.27 333.15 489.54 348.88 470.21 348.88ZM470.21 280.69C451.95 280.69 437.09 295.55 437.09 313.81 437.09 332.07 451.95 346.93 470.21 346.93 488.47 346.93 503.33 332.07 503.33 313.81 503.33 295.55 488.47 280.69 470.21 280.69Z" fill="#3939D8"/></g><g><path d="M572.49 313.81C572.49 294.98 557.23 279.72 538.4 279.72 519.57 279.72 504.31 294.98 504.31 313.81 504.31 332.64 519.57 347.9 538.4 347.9 557.23 347.9 572.49 332.64 572.49 313.81Z" fill="#1D1D6B"/><path d="M538.4 348.88C519.07 348.88 503.34 333.15 503.34 313.82 503.34 294.49 519.07 278.76 538.4 278.76 557.73 278.76 573.46 294.49 573.46 313.82 573.46 333.15 557.73 348.88 538.4 348.88ZM538.4 280.69C520.14 280.69 505.28 295.55 505.28 313.81 505.28 332.07 520.14 346.93 538.4 346.93 556.66 346.93 571.52 332.07 571.52 313.81 571.52 295.55 556.66 280.69 538.4 280.69Z" fill="#3939D8"/></g></g><g><g><path d="M60.58 330.93C60.58 312.1 45.32 296.84 26.49 296.84 7.66 296.84-7.6 312.1-7.6 330.93-7.6 349.76 7.66 365.02 26.49 365.02 45.32 365.02 60.58 349.76 60.58 330.93Z" fill="#1D1D6B"/><path d="M26.49 366C7.16 366-8.57 350.27-8.57 330.94-8.57 311.61 7.16 295.88 26.49 295.88 45.82 295.88 61.55 311.61 61.55 330.94 61.55 350.27 45.82 366 26.49 366ZM26.49 297.81C8.23 297.81-6.63 312.67-6.63 330.93-6.63 349.19 8.23 364.05 26.49 364.05 44.75 364.05 59.61 349.19 59.61 330.93 59.61 312.67 44.75 297.81 26.49 297.81Z" fill="#3939D8"/></g><g><path d="M128.89 330.93C128.89 312.1 113.63 296.84 94.8 296.84 75.97 296.84 60.71 312.1 60.71 330.93 60.71 349.76 75.97 365.02 94.8 365.02 113.63 365.02 128.89 349.76 128.89 330.93Z" fill="#1D1D6B"/><path d="M94.79 366C75.46 366 59.73 350.27 59.73 330.94 59.73 311.61 75.46 295.88 94.79 295.88 114.12 295.88 129.85 311.61 129.85 330.94 129.85 350.27 114.12 366 94.79 366ZM94.79 297.81C76.53 297.81 61.67 312.67 61.67 330.93 61.67 349.19 76.53 364.05 94.79 364.05 113.05 364.05 127.91 349.19 127.91 330.93 127.91 312.67 113.05 297.81 94.79 297.81Z" fill="#3939D8"/></g><g><path d="M197.07 330.93C197.07 312.1 181.81 296.84 162.98 296.84 144.15 296.84 128.89 312.1 128.89 330.93 128.89 349.76 144.15 365.02 162.98 365.02 181.81 365.02 197.07 349.76 197.07 330.93Z" fill="#1D1D6B"/><path d="M162.98 366C143.65 366 127.92 350.27 127.92 330.94 127.92 311.61 143.65 295.88 162.98 295.88 182.31 295.88 198.04 311.61 198.04 330.94 198.04 350.27 182.31 366 162.98 366ZM162.98 297.81C144.72 297.81 129.86 312.67 129.86 330.93 129.86 349.19 144.72 364.05 162.98 364.05 181.24 364.05 196.1 349.19 196.1 330.93 196.1 312.67 181.24 297.81 162.98 297.81Z" fill="#3939D8"/></g><g><path d="M265.25 330.93C265.25 312.1 249.99 296.84 231.16 296.84 212.33 296.84 197.07 312.1 197.07 330.93 197.07 349.76 212.33 365.02 231.16 365.02 249.99 365.02 265.25 349.76 265.25 330.93Z" fill="#1D1D6B"/><path d="M231.16 366C211.83 366 196.1 350.27 196.1 330.94 196.1 311.61 211.83 295.88 231.16 295.88 250.49 295.88 266.22 311.61 266.22 330.94 266.22 350.27 250.49 366 231.16 366ZM231.16 297.81C212.9 297.81 198.04 312.67 198.04 330.93 198.04 349.19 212.9 364.05 231.16 364.05 249.42 364.05 264.28 349.19 264.28 330.93 264.28 312.67 249.42 297.81 231.16 297.81Z" fill="#3939D8"/></g></g><g><path d="M640.12 313.81C640.12 294.98 624.86 279.72 606.03 279.72 587.2 279.72 571.94 294.98 571.94 313.81 571.94 332.64 587.2 347.9 606.03 347.9 624.86 347.9 640.12 332.64 640.12 313.81Z" fill="#1D1D6B"/><path d="M606.03 348.88C586.7 348.88 570.97 333.15 570.97 313.82 570.97 294.49 586.7 278.76 606.03 278.76 625.36 278.76 641.09 294.49 641.09 313.82 641.09 333.15 625.36 348.88 606.03 348.88ZM606.03 280.69C587.77 280.69 572.91 295.55 572.91 313.81 572.91 332.07 587.77 346.93 606.03 346.93 624.29 346.93 639.15 332.07 639.15 313.81 639.15 295.55 624.29 280.69 606.03 280.69Z" fill="#3939D8"/></g><g><g><path d="M333.67 330.93C333.67 312.1 318.41 296.84 299.58 296.84 280.75 296.84 265.49 312.1 265.49 330.93 265.49 349.76 280.75 365.02 299.58 365.02 318.41 365.02 333.67 349.76 333.67 330.93Z" fill="#1D1D6B"/><path d="M299.58 366C280.25 366 264.52 350.27 264.52 330.94 264.52 311.61 280.25 295.88 299.58 295.88 318.91 295.88 334.64 311.61 334.64 330.94 334.64 350.27 318.91 366 299.58 366ZM299.58 297.81C281.32 297.81 266.46 312.67 266.46 330.93 266.46 349.19 281.32 364.05 299.58 364.05 317.84 364.05 332.7 349.19 332.7 330.93 332.7 312.67 317.84 297.81 299.58 297.81Z" fill="#3939D8"/></g><g><path d="M401.97 330.93C401.97 312.1 386.71 296.84 367.88 296.84 349.05 296.84 333.79 312.1 333.79 330.93 333.79 349.76 349.05 365.02 367.88 365.02 386.71 365.02 401.97 349.76 401.97 330.93Z" fill="#1D1D6B"/><path d="M367.88 366C348.55 366 332.82 350.27 332.82 330.94 332.82 311.61 348.55 295.88 367.88 295.88 387.21 295.88 402.94 311.61 402.94 330.94 402.94 350.27 387.21 366 367.88 366ZM367.88 297.81C349.62 297.81 334.76 312.67 334.76 330.93 334.76 349.19 349.62 364.05 367.88 364.05 386.14 364.05 401 349.19 401 330.93 401 312.67 386.14 297.81 367.88 297.81Z" fill="#3939D8"/></g><g><path d="M470.15 330.93C470.15 312.1 454.89 296.84 436.06 296.84 417.23 296.84 401.97 312.1 401.97 330.93 401.97 349.76 417.23 365.02 436.06 365.02 454.89 365.02 470.15 349.76 470.15 330.93Z" fill="#1D1D6B"/><path d="M436.06 366C416.73 366 401 350.27 401 330.94 401 311.61 416.73 295.88 436.06 295.88 455.39 295.88 471.12 311.61 471.12 330.94 471.12 350.27 455.39 366 436.06 366ZM436.06 297.81C417.8 297.81 402.94 312.67 402.94 330.93 402.94 349.19 417.8 364.05 436.06 364.05 454.32 364.05 469.18 349.19 469.18 330.93 469.18 312.67 454.32 297.81 436.06 297.81Z" fill="#3939D8"/></g><g><path d="M538.34 330.93C538.34 312.1 523.08 296.84 504.25 296.84 485.42 296.84 470.16 312.1 470.16 330.93 470.16 349.76 485.42 365.02 504.25 365.02 523.08 365.02 538.34 349.76 538.34 330.93Z" fill="#1D1D6B"/><path d="M504.25 366C484.92 366 469.19 350.27 469.19 330.94 469.19 311.61 484.92 295.88 504.25 295.88 523.58 295.88 539.31 311.61 539.31 330.94 539.31 350.27 523.58 366 504.25 366ZM504.25 297.81C485.99 297.81 471.13 312.67 471.13 330.93 471.13 349.19 485.99 364.05 504.25 364.05 522.51 364.05 537.37 349.19 537.37 330.93 537.37 312.67 522.51 297.81 504.25 297.81Z" fill="#3939D8"/></g></g><g><g><path d="M606.03 330.93C606.03 312.1 590.77 296.84 571.94 296.84 553.11 296.84 537.85 312.1 537.85 330.93 537.85 349.76 553.11 365.02 571.94 365.02 590.77 365.02 606.03 349.76 606.03 330.93Z" fill="#1D1D6B"/><path d="M571.94 366C552.61 366 536.88 350.27 536.88 330.94 536.88 311.61 552.61 295.88 571.94 295.88 591.27 295.88 607 311.61 607 330.94 607 350.27 591.27 366 571.94 366ZM571.94 297.81C553.68 297.81 538.82 312.67 538.82 330.93 538.82 349.19 553.68 364.05 571.94 364.05 590.2 364.05 605.06 349.19 605.06 330.93 605.06 312.67 590.2 297.81 571.94 297.81Z" fill="#3939D8"/></g><g><path d="M674.33 330.93C674.33 312.1 659.07 296.84 640.24 296.84 621.41 296.84 606.15 312.1 606.15 330.93 606.15 349.76 621.41 365.02 640.24 365.02 659.07 365.02 674.33 349.76 674.33 330.93Z" fill="#1D1D6B"/><path d="M640.24 366C620.91 366 605.18 350.27 605.18 330.94 605.18 311.61 620.91 295.88 640.24 295.88 659.57 295.88 675.3 311.61 675.3 330.94 675.3 350.27 659.57 366 640.24 366ZM640.24 297.81C621.98 297.81 607.12 312.67 607.12 330.93 607.12 349.19 621.98 364.05 640.24 364.05 658.5 364.05 673.36 349.19 673.36 330.93 673.36 312.67 658.5 297.81 640.24 297.81Z" fill="#3939D8"/></g></g><g><g><path d="M94.68 348.06C94.68 329.23 79.42 313.97 60.59 313.97 41.76 313.97 26.5 329.23 26.5 348.06 26.5 366.89 41.76 382.15 60.59 382.15 79.42 382.15 94.68 366.89 94.68 348.06Z" fill="#1D1D6B"/><path d="M60.58 383.12C41.25 383.12 25.52 367.39 25.52 348.06 25.52 328.73 41.25 313 60.58 313 79.91 313 95.64 328.73 95.64 348.06 95.64 367.39 79.91 383.12 60.58 383.12ZM60.58 314.94C42.32 314.94 27.46 329.8 27.46 348.06 27.46 366.32 42.32 381.18 60.58 381.18 78.84 381.18 93.7 366.32 93.7 348.06 93.7 329.8 78.84 314.94 60.58 314.94Z" fill="#3939D8"/></g><g><path d="M26.49 348.06C26.49 329.23 11.23 313.97-7.6 313.97-26.43 313.97-41.69 329.23-41.69 348.06-41.69 366.89-26.43 382.15-7.6 382.15 11.23 382.15 26.49 366.89 26.49 348.06Z" fill="#1D1D6B"/><path d="M-7.6 383.12C-26.93 383.12-42.66 367.39-42.66 348.06-42.66 328.73-26.93 313-7.6 313 11.73 313 27.46 328.73 27.46 348.06 27.46 367.39 11.73 383.12-7.6 383.12ZM-7.6 314.94C-25.86 314.94-40.72 329.8-40.72 348.06-40.72 366.32-25.86 381.18-7.6 381.18 10.66 381.18 25.52 366.32 25.52 348.06 25.52 329.8 10.66 314.94-7.6 314.94Z" fill="#3939D8"/></g><g><path d="M162.98 348.06C162.98 329.23 147.72 313.97 128.89 313.97 110.06 313.97 94.8 329.23 94.8 348.06 94.8 366.89 110.06 382.15 128.89 382.15 147.72 382.15 162.98 366.89 162.98 348.06Z" fill="#1D1D6B"/><path d="M128.88 383.12C109.55 383.12 93.82 367.39 93.82 348.06 93.82 328.73 109.55 313 128.88 313 148.21 313 163.94 328.73 163.94 348.06 163.94 367.39 148.21 383.12 128.88 383.12ZM128.88 314.94C110.62 314.94 95.76 329.8 95.76 348.06 95.76 366.32 110.62 381.18 128.88 381.18 147.14 381.18 162 366.32 162 348.06 162 329.8 147.14 314.94 128.88 314.94Z" fill="#3939D8"/></g><g><path d="M231.16 348.06C231.16 329.23 215.9 313.97 197.07 313.97 178.24 313.97 162.98 329.23 162.98 348.06 162.98 366.89 178.24 382.15 197.07 382.15 215.9 382.15 231.16 366.89 231.16 348.06Z" fill="#1D1D6B"/><path d="M197.07 383.12C177.74 383.12 162.01 367.39 162.01 348.06 162.01 328.73 177.74 313 197.07 313 216.4 313 232.13 328.73 232.13 348.06 232.13 367.39 216.4 383.12 197.07 383.12ZM197.07 314.94C178.81 314.94 163.95 329.8 163.95 348.06 163.95 366.32 178.81 381.18 197.07 381.18 215.33 381.18 230.19 366.32 230.19 348.06 230.19 329.8 215.33 314.94 197.07 314.94Z" fill="#3939D8"/></g><g><path d="M299.34 348.06C299.34 329.23 284.08 313.97 265.25 313.97 246.42 313.97 231.16 329.23 231.16 348.06 231.16 366.89 246.42 382.15 265.25 382.15 284.08 382.15 299.34 366.89 299.34 348.06Z" fill="#1D1D6B"/><path d="M265.25 383.12C245.92 383.12 230.19 367.39 230.19 348.06 230.19 328.73 245.92 313 265.25 313 284.58 313 300.31 328.73 300.31 348.06 300.31 367.39 284.58 383.12 265.25 383.12ZM265.25 314.94C246.99 314.94 232.13 329.8 232.13 348.06 232.13 366.32 246.99 381.18 265.25 381.18 283.51 381.18 298.37 366.32 298.37 348.06 298.37 329.8 283.51 314.94 265.25 314.94Z" fill="#3939D8"/></g></g><g><g><path d="M435.94 348.06C435.94 329.23 420.68 313.97 401.85 313.97 383.02 313.97 367.76 329.23 367.76 348.06 367.76 366.89 383.02 382.15 401.85 382.15 420.68 382.15 435.94 366.89 435.94 348.06Z" fill="#1D1D6B"/><path d="M401.85 383.12C382.52 383.12 366.79 367.39 366.79 348.06 366.79 328.73 382.52 313 401.85 313 421.18 313 436.91 328.73 436.91 348.06 436.91 367.39 421.18 383.12 401.85 383.12ZM401.85 314.94C383.59 314.94 368.73 329.8 368.73 348.06 368.73 366.32 383.59 381.18 401.85 381.18 420.11 381.18 434.97 366.32 434.97 348.06 434.97 329.8 420.11 314.94 401.85 314.94Z" fill="#3939D8"/></g><g><path d="M367.76 348.06C367.76 329.23 352.5 313.97 333.67 313.97 314.84 313.97 299.58 329.23 299.58 348.06 299.58 366.89 314.84 382.15 333.67 382.15 352.5 382.15 367.76 366.89 367.76 348.06Z" fill="#1D1D6B"/><path d="M333.67 383.12C314.34 383.12 298.61 367.39 298.61 348.06 298.61 328.73 314.34 313 333.67 313 353 313 368.73 328.73 368.73 348.06 368.73 367.39 353 383.12 333.67 383.12ZM333.67 314.94C315.41 314.94 300.55 329.8 300.55 348.06 300.55 366.32 315.41 381.18 333.67 381.18 351.93 381.18 366.79 366.32 366.79 348.06 366.79 329.8 351.93 314.94 333.67 314.94Z" fill="#3939D8"/></g><g><path d="M504.25 348.06C504.25 329.23 488.99 313.97 470.16 313.97 451.33 313.97 436.07 329.23 436.07 348.06 436.07 366.89 451.33 382.15 470.16 382.15 488.99 382.15 504.25 366.89 504.25 348.06Z" fill="#1D1D6B"/><path d="M470.15 383.12C450.82 383.12 435.09 367.39 435.09 348.06 435.09 328.73 450.82 313 470.15 313 489.48 313 505.21 328.73 505.21 348.06 505.21 367.39 489.48 383.12 470.15 383.12ZM470.15 314.94C451.89 314.94 437.03 329.8 437.03 348.06 437.03 366.32 451.89 381.18 470.15 381.18 488.41 381.18 503.27 366.32 503.27 348.06 503.27 329.8 488.41 314.94 470.15 314.94Z" fill="#3939D8"/></g><g><path d="M572.43 348.06C572.43 329.23 557.17 313.97 538.34 313.97 519.51 313.97 504.25 329.23 504.25 348.06 504.25 366.89 519.51 382.15 538.34 382.15 557.17 382.15 572.43 366.89 572.43 348.06Z" fill="#1D1D6B"/><path d="M538.34 383.12C519.01 383.12 503.28 367.39 503.28 348.06 503.28 328.73 519.01 313 538.34 313 557.67 313 573.4 328.73 573.4 348.06 573.4 367.39 557.67 383.12 538.34 383.12ZM538.34 314.94C520.08 314.94 505.22 329.8 505.22 348.06 505.22 366.32 520.08 381.18 538.34 381.18 556.6 381.18 571.46 366.32 571.46 348.06 571.46 329.8 556.6 314.94 538.34 314.94Z" fill="#3939D8"/></g></g><g><g><path d="M60.58 365.18C60.58 346.35 45.32 331.09 26.49 331.09 7.66 331.09-7.6 346.35-7.6 365.18-7.6 384.01 7.66 399.27 26.49 399.27 45.32 399.27 60.58 384.01 60.58 365.18Z" fill="#1D1D6B"/><path d="M26.49 400.24C7.16 400.24-8.57 384.51-8.57 365.18-8.57 345.85 7.16 330.12 26.49 330.12 45.82 330.12 61.55 345.85 61.55 365.18 61.55 384.51 45.82 400.24 26.49 400.24ZM26.49 332.06C8.23 332.06-6.63 346.92-6.63 365.18-6.63 383.44 8.23 398.3 26.49 398.3 44.75 398.3 59.61 383.44 59.61 365.18 59.61 346.92 44.75 332.06 26.49 332.06Z" fill="#3939D8"/></g><g><path d="M128.89 365.18C128.89 346.35 113.63 331.09 94.8 331.09 75.97 331.09 60.71 346.35 60.71 365.18 60.71 384.01 75.97 399.27 94.8 399.27 113.63 399.27 128.89 384.01 128.89 365.18Z" fill="#1D1D6B"/><path d="M94.79 400.24C75.46 400.24 59.73 384.51 59.73 365.18 59.73 345.85 75.46 330.12 94.79 330.12 114.12 330.12 129.85 345.85 129.85 365.18 129.85 384.51 114.12 400.24 94.79 400.24ZM94.79 332.06C76.53 332.06 61.67 346.92 61.67 365.18 61.67 383.44 76.53 398.3 94.79 398.3 113.05 398.3 127.91 383.44 127.91 365.18 127.91 346.92 113.05 332.06 94.79 332.06Z" fill="#3939D8"/></g><g><path d="M197.07 365.18C197.07 346.35 181.81 331.09 162.98 331.09 144.15 331.09 128.89 346.35 128.89 365.18 128.89 384.01 144.15 399.27 162.98 399.27 181.81 399.27 197.07 384.01 197.07 365.18Z" fill="#1D1D6B"/><path d="M162.98 400.24C143.65 400.24 127.92 384.51 127.92 365.18 127.92 345.85 143.65 330.12 162.98 330.12 182.31 330.12 198.04 345.85 198.04 365.18 198.04 384.51 182.31 400.24 162.98 400.24ZM162.98 332.06C144.72 332.06 129.86 346.92 129.86 365.18 129.86 383.44 144.72 398.3 162.98 398.3 181.24 398.3 196.1 383.44 196.1 365.18 196.1 346.92 181.24 332.06 162.98 332.06Z" fill="#3939D8"/></g><g><path d="M265.25 365.18C265.25 346.35 249.99 331.09 231.16 331.09 212.33 331.09 197.07 346.35 197.07 365.18 197.07 384.01 212.33 399.27 231.16 399.27 249.99 399.27 265.25 384.01 265.25 365.18Z" fill="#1D1D6B"/><path d="M231.16 400.24C211.83 400.24 196.1 384.51 196.1 365.18 196.1 345.85 211.83 330.12 231.16 330.12 250.49 330.12 266.22 345.85 266.22 365.18 266.22 384.51 250.49 400.24 231.16 400.24ZM231.16 332.06C212.9 332.06 198.04 346.92 198.04 365.18 198.04 383.44 212.9 398.3 231.16 398.3 249.42 398.3 264.28 383.44 264.28 365.18 264.28 346.92 249.42 332.06 231.16 332.06Z" fill="#3939D8"/></g></g><g><path d="M640.12 348.06C640.12 329.23 624.86 313.97 606.03 313.97 587.2 313.97 571.94 329.23 571.94 348.06 571.94 366.89 587.2 382.15 606.03 382.15 624.86 382.15 640.12 366.89 640.12 348.06Z" fill="#1D1D6B"/><path d="M606.03 383.12C586.7 383.12 570.97 367.39 570.97 348.06 570.97 328.73 586.7 313 606.03 313 625.36 313 641.09 328.73 641.09 348.06 641.09 367.39 625.36 383.12 606.03 383.12ZM606.03 314.94C587.77 314.94 572.91 329.8 572.91 348.06 572.91 366.32 587.77 381.18 606.03 381.18 624.29 381.18 639.15 366.32 639.15 348.06 639.15 329.8 624.29 314.94 606.03 314.94Z" fill="#3939D8"/></g><g><g><path d="M606.03 365.18C606.03 346.35 590.77 331.09 571.94 331.09 553.11 331.09 537.85 346.35 537.85 365.18 537.85 384.01 553.11 399.27 571.94 399.27 590.77 399.27 606.03 384.01 606.03 365.18Z" fill="#1D1D6B"/><path d="M571.94 400.24C552.61 400.24 536.88 384.51 536.88 365.18 536.88 345.85 552.61 330.12 571.94 330.12 591.27 330.12 607 345.85 607 365.18 607 384.51 591.27 400.24 571.94 400.24ZM571.94 332.06C553.68 332.06 538.82 346.92 538.82 365.18 538.82 383.44 553.68 398.3 571.94 398.3 590.2 398.3 605.06 383.44 605.06 365.18 605.06 346.92 590.2 332.06 571.94 332.06Z" fill="#3939D8"/></g><g><path d="M674.33 365.18C674.33 346.35 659.07 331.09 640.24 331.09 621.41 331.09 606.15 346.35 606.15 365.18 606.15 384.01 621.41 399.27 640.24 399.27 659.07 399.27 674.33 384.01 674.33 365.18Z" fill="#1D1D6B"/><path d="M640.24 400.24C620.91 400.24 605.18 384.51 605.18 365.18 605.18 345.85 620.91 330.12 640.24 330.12 659.57 330.12 675.3 345.85 675.3 365.18 675.3 384.51 659.57 400.24 640.24 400.24ZM640.24 332.06C621.98 332.06 607.12 346.92 607.12 365.18 607.12 383.44 621.98 398.3 640.24 398.3 658.5 398.3 673.36 383.44 673.36 365.18 673.36 346.92 658.5 332.06 640.24 332.06Z" fill="#3939D8"/></g></g><g><g><path d="M333.61 365.18C333.61 346.35 318.35 331.09 299.52 331.09 280.69 331.09 265.43 346.35 265.43 365.18 265.43 384.01 280.69 399.27 299.52 399.27 318.35 399.27 333.61 384.01 333.61 365.18Z" fill="#1D1D6B"/><path d="M299.52 400.24C280.19 400.24 264.46 384.51 264.46 365.18 264.46 345.85 280.19 330.12 299.52 330.12 318.85 330.12 334.58 345.85 334.58 365.18 334.58 384.51 318.85 400.24 299.52 400.24ZM299.52 332.06C281.26 332.06 266.4 346.92 266.4 365.18 266.4 383.44 281.26 398.3 299.52 398.3 317.78 398.3 332.64 383.44 332.64 365.18 332.64 346.92 317.78 332.06 299.52 332.06Z" fill="#3939D8"/></g><g><path d="M401.91 365.18C401.91 346.35 386.65 331.09 367.82 331.09 348.99 331.09 333.73 346.35 333.73 365.18 333.73 384.01 348.99 399.27 367.82 399.27 386.65 399.27 401.91 384.01 401.91 365.18Z" fill="#1D1D6B"/><path d="M367.82 400.24C348.49 400.24 332.76 384.51 332.76 365.18 332.76 345.85 348.49 330.12 367.82 330.12 387.15 330.12 402.88 345.85 402.88 365.18 402.88 384.51 387.15 400.24 367.82 400.24ZM367.82 332.06C349.56 332.06 334.7 346.92 334.7 365.18 334.7 383.44 349.56 398.3 367.82 398.3 386.08 398.3 400.94 383.44 400.94 365.18 400.94 346.92 386.08 332.06 367.82 332.06Z" fill="#3939D8"/></g><g><path d="M470.1 365.18C470.1 346.35 454.84 331.09 436.01 331.09 417.18 331.09 401.92 346.35 401.92 365.18 401.92 384.01 417.18 399.27 436.01 399.27 454.84 399.27 470.1 384.01 470.1 365.18Z" fill="#1D1D6B"/><path d="M436 400.24C416.67 400.24 400.94 384.51 400.94 365.18 400.94 345.85 416.67 330.12 436 330.12 455.33 330.12 471.06 345.85 471.06 365.18 471.06 384.51 455.33 400.24 436 400.24ZM436 332.06C417.74 332.06 402.88 346.92 402.88 365.18 402.88 383.44 417.74 398.3 436 398.3 454.26 398.3 469.12 383.44 469.12 365.18 469.12 346.92 454.26 332.06 436 332.06Z" fill="#3939D8"/></g><g><path d="M538.28 365.18C538.28 346.35 523.02 331.09 504.19 331.09 485.36 331.09 470.1 346.35 470.1 365.18 470.1 384.01 485.36 399.27 504.19 399.27 523.02 399.27 538.28 384.01 538.28 365.18Z" fill="#1D1D6B"/><path d="M504.19 400.24C484.86 400.24 469.13 384.51 469.13 365.18 469.13 345.85 484.86 330.12 504.19 330.12 523.52 330.12 539.25 345.85 539.25 365.18 539.25 384.51 523.52 400.24 504.19 400.24ZM504.19 332.06C485.93 332.06 471.07 346.92 471.07 365.18 471.07 383.44 485.93 398.3 504.19 398.3 522.45 398.3 537.31 383.44 537.31 365.18 537.31 346.92 522.45 332.06 504.19 332.06Z" fill="#3939D8"/></g></g></g><g clip-path="url(#clippath-3)"><g><g><g><rect x="32.03" y="300.42" width="1.94" height="3.88" fill="#FFAEBF"/><rect x="98.04" y="300.42" width="1.94" height="3.88" fill="#FFAEBF"/><rect x="164.05" y="300.42" width="1.94" height="3.88" fill="#FFAEBF"/><rect x="230.05" y="300.42" width="1.94" height="3.88" fill="#FFAEBF"/><rect x="296.01" y="300.42" width="1.94" height="3.88" fill="#FFAEBF"/><rect x="362.02" y="300.42" width="1.94" height="3.88" fill="#FFAEBF"/><rect x="428.07" y="300.42" width="1.94" height="3.88" fill="#FFAEBF"/><rect x="494.08" y="300.42" width="1.94" height="3.88" fill="#FFAEBF"/></g><rect x="0" y="303.33" width="616.06" height="1.94" fill="#FFFFFF"/><rect x="0" y="299.45" width="616.06" height="1.94" fill="#FFFFFF"/></g><g><path d="M107.68 299.45 334.31 299.45C345.29 299.45 354.19 290.55 354.19 279.57 354.19 268.59 345.29 259.69 334.31 259.69 334.31 259.69 321.88 259.69 307.95 259.69 294.02 259.69 274.23 239.13 203.08 239.13 180.05 239.13 107.69 239.13 107.69 239.13L107.69 299.45Z" fill="#FFFFFF"/><path d="M0 299.45 334.31 299.45C345.29 299.45 354.19 290.55 354.19 279.57 354.19 268.59 345.29 259.69 334.31 259.69 334.31 259.69 321.88 259.69 307.95 259.69 294.02 259.69 274.23 239.13 203.08 239.13 180.05 239.13 0.01 239.13 0.01 239.13L0.01 299.45Z" fill="#FFFFFF"/><path d="M353.68 284.01C351.66 292.85 343.75 299.44 334.3 299.44L0 299.44 0 284.01C0 284.01 353.68 284.01 353.68 284.01Z" fill="#DB1E3D"/><path d="M310.61 259.68 266.01 259.68C262.78 259.68 260.17 257.06 260.17 253.84 260.17 250.61 262.79 248 266.01 248L272.57 248" fill="#DB1E3D"/><g><path d="M162.54 250.73C160.48 250.73 158.82 252.4 158.82 254.45L158.82 255.82C158.82 257.88 160.49 259.54 162.54 259.54 164.6 259.54 166.26 257.87 166.26 255.82L166.26 254.45C166.26 252.39 164.59 250.73 162.54 250.73Z" fill="#DB1E3D"/><path d="M150.93 250.73C148.87 250.73 147.21 252.4 147.21 254.45L147.21 255.82C147.21 257.88 148.88 259.54 150.93 259.54 152.98 259.54 154.65 257.87 154.65 255.82L154.65 254.45C154.65 252.39 152.98 250.73 150.93 250.73Z" fill="#DB1E3D"/><path d="M139.32 250.73C137.26 250.73 135.6 252.4 135.6 254.45L135.6 255.82C135.6 257.88 137.27 259.54 139.32 259.54 141.38 259.54 143.04 257.87 143.04 255.82L143.04 254.45C143.04 252.39 141.37 250.73 139.32 250.73Z" fill="#DB1E3D"/><path d="M127.71 250.73C125.65 250.73 123.99 252.4 123.99 254.45L123.99 255.82C123.99 257.88 125.66 259.54 127.71 259.54 129.77 259.54 131.43 257.87 131.43 255.82L131.43 254.45C131.43 252.39 129.76 250.73 127.71 250.73Z" fill="#DB1E3D"/><path d="M116.1 250.73C114.04 250.73 112.38 252.4 112.38 254.45L112.38 255.82C112.38 257.88 114.05 259.54 116.1 259.54 118.16 259.54 119.82 257.87 119.82 255.82L119.82 254.45C119.82 252.39 118.15 250.73 116.1 250.73Z" fill="#DB1E3D"/><g><path d="M104.49 250.73C102.43 250.73 100.77 252.4 100.77 254.45L100.77 255.82C100.77 257.88 102.44 259.54 104.49 259.54 106.55 259.54 108.21 257.87 108.21 255.82L108.21 254.45C108.21 252.39 106.54 250.73 104.49 250.73Z" fill="#DB1E3D"/><path d="M92.88 250.73C90.82 250.73 89.16 252.4 89.16 254.45L89.16 255.82C89.16 257.88 90.83 259.54 92.88 259.54 94.94 259.54 96.6 257.87 96.6 255.82L96.6 254.45C96.6 252.39 94.93 250.73 92.88 250.73Z" fill="#DB1E3D"/><path d="M81.27 250.73C79.21 250.73 77.55 252.4 77.55 254.45L77.55 255.82C77.55 257.88 79.22 259.54 81.27 259.54 83.33 259.54 84.99 257.87 84.99 255.82L84.99 254.45C84.99 252.39 83.32 250.73 81.27 250.73Z" fill="#DB1E3D"/><path d="M69.66 250.73C67.6 250.73 65.94 252.4 65.94 254.45L65.94 255.82C65.94 257.88 67.61 259.54 69.66 259.54 71.72 259.54 73.38 257.87 73.38 255.82L73.38 254.45C73.38 252.39 71.71 250.73 69.66 250.73Z" fill="#DB1E3D"/></g><path d="M58.05 250.73C55.99 250.73 54.33 252.4 54.33 254.45L54.33 255.82C54.33 257.88 56 259.54 58.05 259.54 60.11 259.54 61.77 257.87 61.77 255.82L61.77 254.45C61.77 252.39 60.1 250.73 58.05 250.73Z" fill="#DB1E3D"/><path d="M46.44 250.73C44.38 250.73 42.72 252.4 42.72 254.45L42.72 255.82C42.72 257.88 44.39 259.54 46.44 259.54 48.5 259.54 50.16 257.87 50.16 255.82L50.16 254.45C50.16 252.39 48.49 250.73 46.44 250.73Z" fill="#DB1E3D"/><path d="M34.83 250.73C32.77 250.73 31.11 252.4 31.11 254.45L31.11 255.82C31.11 257.88 32.78 259.54 34.83 259.54 36.89 259.54 38.55 257.87 38.55 255.82L38.55 254.45C38.55 252.39 36.88 250.73 34.83 250.73Z" fill="#DB1E3D"/><path d="M23.22 250.73C21.16 250.73 19.5 252.4 19.5 254.45L19.5 255.82C19.5 257.88 21.17 259.54 23.22 259.54 25.28 259.54 26.94 257.87 26.94 255.82L26.94 254.45C26.94 252.39 25.27 250.73 23.22 250.73Z" fill="#DB1E3D"/><path d="M11.61 250.73C9.55 250.73 7.89 252.4 7.89 254.45L7.89 255.82C7.89 257.88 9.56 259.54 11.61 259.54 13.67 259.54 15.33 257.87 15.33 255.82L15.33 254.45C15.33 252.39 13.66 250.73 11.61 250.73Z" fill="#DB1E3D"/><path d="M0 250.73C2.06 250.73 3.72 252.4 3.72 254.45L3.72 255.82C3.72 257.87 2.05 259.54 0 259.54L0 250.73Z" fill="#DB1E3D"/><path d="M185.76 250.73C183.7 250.73 182.04 252.4 182.04 254.45L182.04 255.82C182.04 257.88 183.71 259.54 185.76 259.54 187.82 259.54 189.48 257.87 189.48 255.82L189.48 254.45C189.48 252.39 187.81 250.73 185.76 250.73Z" fill="#DB1E3D"/><path d="M174.15 250.73C172.09 250.73 170.43 252.4 170.43 254.45L170.43 255.82C170.43 257.88 172.1 259.54 174.15 259.54 176.21 259.54 177.87 257.87 177.87 255.82L177.87 254.45C177.87 252.39 176.2 250.73 174.15 250.73Z" fill="#DB1E3D"/></g><path d="M251.24 291.73C251.24 293.25 252.48 294.49 254 294.49L259.08 294.49C260.6 294.49 261.84 293.25 261.84 291.73 261.84 290.21 260.6 288.97 259.08 288.97L254 288.97C252.48 288.97 251.24 290.21 251.24 291.73Z" fill="#FFFFFF"/></g></g></g><g clip-path="url(#clippath-4)"><g><path d="M547.81 125.09 547.81 167.25 570.41 235.43 547.81 301.83C596.61 301.83 636.18 262.27 636.18 213.46 636.18 164.65 596.62 125.09 547.81 125.09Z" fill="#06062D"/><g><rect x="537.66" y="225.53" width="19.81" height="9.9" fill="#0A0C10"/><path d="M557.46 205.72 557.46 205.72 557.46 225.53 537.65 225.53C537.65 214.59 546.52 205.72 557.46 205.72Z" fill="#0A0C10"/><path d="M557.46 235.43 557.46 235.43C557.46 235.43 557.46 235.43 557.46 235.43 557.46 246.37 548.59 255.24 537.65 255.24L534.98 255.24C531.55 261.15 525.17 265.14 517.84 265.14L517.84 255.24C517.84 255.24 517.84 245.34 517.84 245.34L517.84 245.34C517.84 223.46 535.58 205.73 557.45 205.73L557.45 235.44Z" fill="#06062D"/></g><path d="M473.53 165.91 480.13 165.91C480.13 165.91 480.13 146.49 480.13 146.49L473.53 146.49C471.71 146.49 470.23 147.97 470.23 149.79L470.23 162.6C470.23 164.42 471.71 165.9 473.53 165.9Z" fill="#FFFFFF"/><g><path d="M553.53 288.72 541.86 277.05 530.19 288.72C536.64 295.17 547.09 295.17 553.53 288.72Z" fill="#06062D"/><rect x="542.36" y="275.84" width="16.51" height="8.25" fill="#06062D" transform="matrix(0.707107 0.707107 -0.707107 0.707107 359.24 -307.35)"/><path d="M524.36 271.21 524.36 271.21 518.52 277.05 512.68 282.89C517 287.21 523.11 288.62 528.61 287.15L530.18 288.72 536.02 282.88 547.69 271.21C541.24 264.76 530.79 264.76 524.35 271.21Z" fill="#06062D"/></g><path d="M499.7 287.81 499.7 287.81C497.58 278.94 488.68 273.47 479.81 275.59L479.81 275.59C479.81 275.59 479.81 275.59 479.81 275.59L471.78 277.51 463.75 279.43C465.17 285.37 469.64 289.77 475.09 291.4L475.61 293.57C477.73 302.44 486.63 307.91 495.49 305.79 486.62 307.91 481.15 316.81 483.27 325.68L483.79 327.85C479.66 331.77 477.66 337.72 479.08 343.66L487.11 341.74 495.14 339.82 495.14 339.82C495.14 339.82 495.14 339.82 495.14 339.82 504.01 337.7 509.48 328.8 507.36 319.93L507.36 319.93C516.23 317.81 521.7 308.91 519.58 300.04 517.46 291.17 508.56 285.7 499.69 287.82Z" fill="#06062D"/><path d="M624.73 212.29C624.73 159.46 575.18 116.64 522.36 116.64 497.71 116.64 477.73 136.62 477.73 161.27 477.73 184.32 495.2 203.28 517.62 205.65L517.62 205.65C538.8 208.11 555.23 226.64 555.23 248.48 555.23 267.33 543.05 283.36 526.08 288.97L526.08 288.97C522.18 290.24 519.37 293.9 519.37 298.22 519.37 303.59 523.72 307.94 529.09 307.94L529.08 307.94C529.08 307.94 529.1 307.94 529.1 307.94 529.1 307.94 529.11 307.94 529.12 307.94 581.93 307.92 624.73 265.11 624.73 212.29Z" fill="#FFFFFF"/><g><rect x="563.56" y="225.53" width="19.81" height="9.9" fill="#0A0C10" transform="matrix(-1 -1.22465e-16 1.22465e-16 -1 1146.92 460.96)"/><path d="M563.56 205.72 563.56 205.72 563.56 225.53 583.37 225.53C583.37 214.59 574.5 205.72 563.56 205.72Z" fill="#0A0C10"/><path d="M563.56 235.43 563.56 235.43C563.56 235.43 563.56 235.43 563.56 235.43 563.56 246.37 572.43 255.24 583.37 255.24L586.04 255.24C589.47 261.15 595.85 265.14 603.18 265.14L603.18 255.24C603.18 255.24 603.18 245.34 603.18 245.34L603.18 245.34C603.18 223.46 585.44 205.73 563.57 205.73L563.57 235.44Z" fill="#06062D"/></g><circle cx="513.24" cy="147.95" r="8.32" fill="#06062D"/><g><path d="M548.33 283.51 560 295.18 548.33 306.85C541.88 300.4 541.88 289.95 548.33 283.51Z" fill="#06062D"/><rect x="548.83" y="282.3" width="16.51" height="8.25" fill="#06062D" transform="matrix(-0.707107 -0.707107 0.707107 -0.707107 748.47 882.89)"/><path d="M554.17 301.02 548.33 306.86 549.9 308.43C548.43 313.93 549.84 320.05 554.16 324.36L560 318.52 565.84 312.68 565.84 312.68C572.29 306.23 572.29 295.78 565.84 289.34L554.17 301.01Z" fill="#06062D"/></g><g><path d="M534.11 128.45C537.6 131.94 542.56 133.06 547 131.82 547.3 132.22 547.61 132.61 547.98 132.98 551.85 136.85 558.12 136.85 561.99 132.98 563.93 131.04 564.89 128.51 564.89 125.97 554.07 121.09 542.4 117.96 530.43 116.98 529.77 121.03 530.99 125.33 534.11 128.45Z" fill="#DB1E3D"/><path d="M574.28 150.18 578.97 155.37C575.15 158.82 574.85 164.72 578.31 168.54 581.76 172.36 587.66 172.66 591.48 169.2L596.17 174.39C601.35 180.12 610.19 180.57 615.92 175.39 616.02 175.3 616.1 175.21 616.19 175.12 607.45 156.81 592.63 141.41 574.7 131.02 569.55 136.26 569.3 144.66 574.29 150.19Z" fill="#DB1E3D"/><path d="M610.39 187.26 607.89 193.37C602.83 191.3 597.05 193.73 594.98 198.79 592.91 203.85 595.34 209.63 600.4 211.7L609.57 215.45 609.23 216.27C606.97 216.58 604.94 218.05 604.01 220.31 602.63 223.69 604.25 227.54 607.62 228.92L613.73 231.42 613.73 231.42C611.66 236.48 614.09 242.26 619.15 244.33L619.21 244.35C622.78 234.33 624.72 223.53 624.72 212.29 624.72 208.08 624.4 203.93 623.8 199.87L617.05 197.11 617.39 196.29C619.5 196 621.41 194.69 622.4 192.67 621.71 189.76 620.86 186.9 619.88 184.1 619.6 183.93 619.3 183.77 618.99 183.64 615.61 182.26 611.76 183.88 610.38 187.25Z" fill="#DB1E3D"/><path d="M575.87 293.11C575.87 293.97 575.93 294.81 576.03 295.64 586.41 289.78 595.6 282.03 603.11 272.87 601.18 272.29 599.14 271.98 597.02 271.98 585.34 271.98 575.88 281.44 575.88 293.12Z" fill="#DB1E3D"/></g></g></g></svg>